<?xml version="1.0" encoding="UTF-8" standalone="no"?>
<svg
    viewBox="0 0 425 400" width="100%" height="100%"
    id="provinvies"
    version="1.0"
    xmlns="http://www.w3.org/2000/svg">

  <style
     id="style1">
    /* Asegúrate de que el SVG ocupe toda la pantalla y se centre */
    html, body, svg {
    width: 100%;
    height: 100%;
    display: flex;
    justify-content: center;
    align-items: center;
    margin: 0;
    padding: 0;
    fill: #9ea9ba;
    }
    /* Ajusta el estilo de las rutas si es necesario */
    path {
    stroke: black; /* Bordes negros */
    stroke-width: 1;
    }
  </style>
  <g
     id="g7500">

    //Alt Emporda
    <path
   id="Província de Girona"
   clip-path="url(#SVG_CP_1)"
   style="fill:#9ea9ba;fill-opacity:1;fill-rule:nonzero;stroke:#000000;stroke-width:0.334084;stroke-linecap:round;stroke-linejoin:round;stroke-miterlimit:4;stroke-dasharray:none;stroke-opacity:1"
   onclick="provinceClicked('Província de Girona')"
   d="m 217.44141,76 -1.88672,0.234375 -0.94336,1.179687 0.70703,0.94336 v 0.234375 l 0.23633,0.943359 -0.70703,1.886719 0.4707,2.121094 0.47266,1.179687 1.17773,0.941406 2.12305,0.236329 0.94336,0.236328 h 2.12109 l 0.70703,0.234375 1.17774,1.65039 0.23632,0.236328 0.47266,1.179688 -0.70898,0.234375 0.23632,1.179687 -0.23632,2.357422 -0.47071,1.650391 h 0.23633 l 0.4707,0.707031 0.94336,-0.236328 0.47071,-0.707031 1.17968,-0.707031 0.47071,0.470703 1.41601,0.472656 0.94141,1.177734 -0.70703,0.707032 -0.23438,0.707031 v 0.707031 l -1.41601,-0.234375 0.47265,0.94336 -0.23633,1.177732 0.23633,0.4707 v 0.47266 l -0.47265,0.70703 v 1.65039 l 0.70703,2.59375 1.41601,-0.70898 0.94336,-0.4707 0.47071,0.23632 0.94336,-0.23632 h 0.23437 L 233,104.52344 l 0.70703,-0.23438 0.47266,-0.70703 1.41406,-0.23633 1.88672,0.94336 2.12109,0.23438 0.23633,1.17968 1.17773,-0.94335 0.47266,0.4707 3.06445,1.88672 h 1.17774 l 1.17969,-0.94336 1.17773,-0.23438 h 1.41602 l 1.65039,0.70703 0.9414,0.70704 1.17969,0.70703 0.94336,0.4707 0.70703,0.23633 -0.47266,0.94336 -1.64843,0.94336 -0.23633,0.4707 -0.94336,0.94336 -0.70703,1.41406 -0.94336,1.17774 v 0.23632 l -0.23633,1.6504 -0.23437,0.70703 -0.94336,0.70703 0.70703,0.94336 0.70703,1.65039 0.4707,-0.47071 1.17969,-0.47265 1.17969,0.23633 -0.23633,0.70703 -0.23633,0.70703 0.23633,2.35742 0.70703,0.23633 0.70703,0.23437 -0.4707,0.47266 0.23437,1.41406 -0.4707,0.94336 H 251.625 l -0.94336,-0.70703 -0.70703,0.70703 -0.23633,0.94336 -0.70703,0.70703 -1.88477,0.23438 -0.23632,-0.47071 -0.94336,-0.94336 0.94336,-1.65039 -0.23633,-0.4707 -0.47071,-0.94336 1.17774,-0.4707 h -2.35742 l -1.65039,-0.47266 -0.94336,-0.23437 v 3.06445 l 1.65039,-0.23633 h 1.41601 l -0.23632,0.70703 0.23632,0.70703 1.17774,2.35743 0.23633,0.47265 v 0.70703 l 2.59375,-0.47265 0.9414,0.70703 0.70899,0.94336 0.9414,-0.23438 0.47266,0.47071 0.70703,0.70703 0.23633,0.23633 0.23437,-0.23633 0.94336,-0.47071 v -0.47265 l 1.65039,0.23633 0.94336,-0.47071 0.70703,0.70703 v 1.41407 l 0.23633,0.23633 v 0.4707 l 0.23438,0.4707 1.65039,1.17969 0.94336,0.4707 1.41406,-1.41406 0.94336,-1.41406 1.88672,-0.70703 2.82812,0.23437 0.23633,0.47266 v 0.94336 h 0.70703 0.94336 l 0.23633,-0.70703 0.4707,0.4707 0.47071,-0.23633 -0.23438,-0.94336 0.23438,-0.70703 0.23632,-0.23438 3.06446,-0.47265 0.47265,0.94336 1.65039,-0.23633 0.70704,-0.4707 0.70703,-0.47071 0.4707,0.47071 0.94336,0.23632 -0.4707,0.70704 0.4707,0.4707 1.17969,0.47266 0.94336,-0.47266 0.4707,0.94336 -0.23633,1.17969 -0.23437,0.70703 0.4707,0.4707 -1.17969,1.17969 v 0.23437 l 2.35742,-0.94336 0.47266,-0.70703 2.82812,-0.9414 h 2.59376 l 0.4707,0.4707 0.70898,0.23633 0.23438,1.17773 0.47265,0.94336 h 2.1211 l 0.23633,0.23633 -0.70704,1.65039 0.23438,0.23437 v 0.23633 l 0.94336,1.41407 0.47266,0.70703 v 0.47265 l 1.17773,1.17774 0.70703,0.23633 0.70703,-0.23633 2.12305,-1.41406 0.23437,-0.70704 0.70899,0.23633 1.17773,0.47071 0.47071,0.4707 0.23632,0.94336 0.70704,-0.47071 h 1.41406 l 0.70898,0.94336 v 0.47071 l -0.47265,0.4707 -1.17774,0.70703 0.4707,0.94336 2.1211,2.12305 0.23633,0.23437 -0.47071,0.94336 -0.47265,0.47071 h -0.47071 v 1.41601 l 1.17774,0.4707 -0.70703,0.47071 0.23632,0.70898 -1.41406,0.4707 -0.70703,0.47071 -0.23633,-0.47071 -0.23632,-0.4707 -0.23438,0.70703 -0.94336,0.47071 2.12109,1.41406 -0.94335,0.47265 v 0.70704 l -0.70704,0.4707 0.23633,0.94336 h -1.41406 l -0.70703,0.4707 -0.23633,-0.23437 h -0.47266 l -0.23437,-0.23633 -0.70703,-0.23633 -0.47266,-0.4707 -1.17773,0.70703 v 0.70703 h 0.70703 l 0.70703,0.94336 v 0.70703 l -0.47266,1.17773 0.70899,0.94336 0.23437,-0.4707 h 0.70703 l 0.70899,0.23633 0.4707,0.23437 0.23633,0.47266 h 1.17773 l 0.70704,1.88477 v 0.94335 0.70704 l -1.17774,1.17968 -0.23633,0.47071 -0.94336,0.70703 -0.70703,0.70703 -0.94336,0.47266 -0.23437,0.9414 -0.47266,-0.23437 -0.94336,-0.23633 -0.23437,-0.70703 -0.47266,-0.47071 -0.4707,0.70704 -1.65039,-0.47266 -0.23633,1.17969 -0.94336,0.4707 -0.94141,0.94336 -0.47265,0.23633 -0.23633,0.9414 -0.94141,-0.4707 -0.70898,-1.17773 V 173.125 l -0.4707,0.70703 -0.47071,-0.4707 -0.70703,0.23633 -0.23633,-0.23633 -0.94336,-0.47266 -1.17968,-0.4707 -0.70704,0.94336 h -0.23437 l -0.47266,1.17773 0.47266,1.41602 0.4707,0.23437 -0.70703,1.65039 0.94336,1.88672 1.41406,1.65039 -0.23633,0.94141 v 0.70898 l 0.47266,0.94141 0.4707,0.94336 2.1211,0.94336 1.41601,-0.70703 0.47071,0.23633 0.47265,0.4707 2.35743,0.4707 0.9414,-0.4707 h 1.41602 l 1.41406,1.17773 0.23633,1.41602 1.41406,0.70703 1.88477,-0.70703 -0.47071,1.65039 1.65039,1.17773 1.41407,0.94336 h 0.23632 l 2.35743,0.47071 0.23632,0.94336 -0.47265,0.4707 0.47265,0.70898 -0.23632,0.23438 1.17773,0.94336 0.70898,0.94336 -0.23632,0.70703 0.4707,1.17969 1.65039,0.70703 1.88672,-0.94336 0.94336,-0.23633 0.4707,0.23633 2.59375,-0.47266 2.59375,-0.4707 1.88477,-0.70703 0.70703,-1.17969 h 0.47265 0.94336 l 0.47071,-0.70703 1.41406,0.23633 1.17969,0.94336 0.70703,-0.23633 -0.23633,-0.23633 h -0.23633 v -0.70703 l 0.94336,0.23633 v 0.70703 h 2.12305 l 1.88476,-0.47071 2.35743,1.6504 4.00781,-0.23633 v 0.70703 l -1.41406,0.94336 0.70703,4.47851 -0.23633,1.41407 -1.41406,1.41601 0.94336,2.12109 v 0.23633 l 1.41406,2.35743 0.70703,-1.88672 0.94336,-1.41407 0.47266,-0.47265 0.4707,-0.23438 v 0.23438 l -0.23633,0.23633 0.47266,-0.23633 0.23437,-0.23438 v -0.23633 l 0.47266,-0.23632 v -0.23438 l 0.70703,-0.47265 0.23633,-0.23633 v -0.23438 l 0.23437,-0.23633 0.47266,-0.23632 0.70703,-0.23438 v -0.23633 l 0.70703,-0.23633 0.23633,-0.23437 0.4707,0.23437 0.23633,-0.23437 0.23633,-0.23633 0.4707,-0.23633 0.94336,-0.4707 h 0.4707 l 0.70704,0.23437 0.23632,-0.23437 h 0.47071 l 0.47265,-0.23633 h 0.23633 0.23438 v -0.23633 h 0.23632 0.47071 l 0.23632,0.23633 h 0.23633 l 0.23438,-0.23633 h 0.23633 l 0.47265,-0.23437 0.47071,-0.23633 -0.23633,-0.23633 0.47265,-0.23437 h 0.23438 0.70898 0.23438 l 0.94336,-0.47266 h 0.23633 0.23437 l 0.23633,-0.23633 0.70703,-0.23437 h 0.23633 V 200 199.5293 l 0.23633,-0.23633 0.23437,-0.23633 0.47266,-0.4707 h 0.4707 v -0.23633 l 0.23633,-0.23633 -0.23633,-0.23437 h 0.23633 0.23633 l 0.23437,-0.23633 0.23633,-0.23633 v -0.4707 h 0.23633 0.23437 l 0.23633,-0.23633 h -0.23633 v -0.4707 l 0.94336,-1.17969 0.47266,-0.70703 0.4707,-0.23633 0.47266,-0.70703 0.70703,-0.23438 0.94141,-0.23633 0.23632,-0.23632 h 0.23633 l 0.23633,-0.23438 0.23437,-0.23633 0.23633,-0.23632 0.70703,-0.47071 1.17969,-0.47265 h 0.70703 0.23438 l 0.23633,0.23632 0.23632,0.23633 v -0.23633 h 0.23633 l -0.23633,-0.23632 -0.23632,-0.94141 h 0.23632 0.47071 0.23633 l 0.23632,0.23437 h 0.23438 l 0.47265,-0.23437 v -0.23633 H 369.5 l 0.23633,-0.23633 v -0.23633 L 369.5,188.91992 v -0.23633 l 0.23633,-0.23437 h 0.47265 l 0.23438,0.23437 0.23633,0.23633 v -0.23633 l 0.23633,-0.4707 v -0.23633 l 0.4707,-0.4707 -0.23633,-0.23633 0.47266,-0.4707 -0.23633,-0.23633 h 0.23633 v -0.23633 l 0.4707,-1.41406 0.23633,-0.94336 0.4707,-0.70703 0.70703,-0.4707 1.17969,-1.17969 h 0.23633 l 0.23437,-0.70703 0.70899,-0.94336 0.9414,-0.47071 1.17969,-0.23632 h 0.4707 l 0.47266,0.23632 0.23438,0.23633 v 0.23438 l -0.23438,0.23633 h -0.70703 v 0.23632 l 0.94141,-0.23632 h 0.23632 0.23633 v -0.23633 -0.47071 h 0.23633 l 0.23438,-0.23632 v 0.23632 h 0.23632 v -0.23632 l 0.70703,-0.23438 0.23633,-0.23633 -0.23633,-0.4707 v -0.70898 h 0.23633 0.23438 l 0.23633,-0.23438 v -0.23633 h 0.23632 0.23633 v -0.23633 h 0.4707 v 0.47266 l 0.23633,-0.23633 h 0.47071 l 0.23632,-0.23633 0.70704,-0.23437 0.23632,-0.23633 0.23438,-0.23633 h 0.23633 l -0.23633,-0.4707 0.23633,-0.70703 0.4707,-0.23633 -0.4707,-0.4707 0.4707,-0.47266 v -0.4707 l 0.23633,-0.23633 0.70703,-0.23633 0.23633,-0.4707 v -0.23633 h 0.23633 l 0.23437,-0.23437 0.47266,0.4707 0.23437,-0.23633 0.23633,-1.17773 0.47266,-0.23633 v -0.94336 l 0.4707,-0.23438 -0.23633,-0.47265 v -0.47071 l -0.23437,-0.47265 h 0.70703 l 0.23437,-0.47071 0.47266,-0.23632 -0.47266,-0.47071 0.23633,-0.4707 -0.23633,-0.23633 0.47266,-0.23633 -0.23633,-0.23632 0.23633,-0.23438 -0.23633,-0.23633 h -0.23633 v -0.23632 l 0.23633,-0.47071 v -0.4707 l 0.94336,-0.70899 0.70703,-0.4707 -0.23633,-0.94336 0.23633,-0.23437 0.23633,-0.47266 h -0.23633 v 0.23633 l -0.23633,-0.23633 v -0.23633 l -0.23437,-0.23437 0.23437,-0.23633 v -0.23633 l -0.23437,-0.4707 -0.47266,-0.47071 h -0.23437 -0.47266 -0.70703 -0.23633 v -0.70898 l -0.23437,-0.70703 -0.70899,-1.17773 -0.4707,-2.1211 -0.23633,-0.70898 -0.23437,-1.88477 v -1.41406 l 0.23437,-1.17969 v -1.17773 l 0.23633,-0.70703 0.23633,-0.47266 v -0.23633 l 0.4707,0.23633 -0.23633,-0.23633 -0.23437,-0.23437 h 0.23437 0.23633 0.23633 0.23633 v 0.23437 l 0.23437,-0.23437 v -0.23633 l 0.47266,-0.70703 -0.23633,-0.23633 h -0.23633 v -0.23438 -0.70898 -0.23438 l -0.23437,-0.23632 -0.23633,-0.23633 -0.23633,-0.23438 -0.23633,-0.23632 h 0.23633 l -0.70703,-0.47071 v -0.23633 l 0.23633,-0.23632 v -0.23633 h -0.23633 v -0.23438 h -0.4707 v -0.70703 l -0.23633,-0.23633 -0.23633,-0.4707 -0.4707,-0.94336 -0.23633,-0.23633 v -0.23633 l -0.23633,-0.4707 v -0.23633 l -0.4707,0.23633 -0.94336,0.23633 -0.23633,-0.47266 0.23633,-0.23437 0.47265,-0.23633 0.23438,-0.23633 -0.23438,-0.23633 h -0.23632 l -0.23633,-0.4707 -0.23633,0.23633 h -0.4707 l -0.47071,-0.23633 -0.94336,-0.70703 -0.23632,-0.23633 v 0.23633 h -0.23633 -0.23438 l 0.23438,0.23633 -0.23438,0.23437 h -0.23633 -0.4707 -0.47265 l 0.23632,-0.9414 -0.23632,-0.70899 h -0.23438 -0.23633 -0.94336 l -0.23633,-0.9414 v -0.47266 l -0.23437,-0.23633 -0.47266,-1.41406 -0.4707,-4.47852 -0.23633,-4.47851 0.23633,-1.41602 0.70703,-1.88476 0.70703,-1.88672 1.17969,-1.65039 0.4707,-0.94141 1.41407,-1.17969 0.70703,-0.4707 1.17968,-0.23633 h 0.47071 l 0.47265,0.4707 0.47071,0.23633 0.23633,0.23633 v 0.23438 h -0.23633 v 0.23632 h 0.23633 v 0.47266 h -0.23633 -0.23633 v 0.23438 h 0.47266 v 0.23632 l 0.23437,0.23633 v 0.23438 h 0.94336 l 0.47266,-0.23438 0.23437,0.70703 0.70703,0.23438 0.70899,0.23633 -0.23633,0.23632 0.94336,0.47071 0.4707,0.47265 0.23633,-0.47265 0.4707,-0.47071 v -0.23632 h 0.47266 l -0.23633,-0.47071 0.23633,-0.23632 -0.23633,-0.70704 0.23633,-0.4707 0.9414,0.70703 0.23633,-0.47265 0.47266,0.23632 0.4707,0.94336 0.94336,0.70703 0.70703,0.23633 0.23633,-0.23633 0.23438,-0.70703 -0.23438,-0.23632 h -0.47266 -0.4707 l -0.23633,-0.23633 0.23633,-0.23438 v -0.94336 l 0.23633,0.23633 h 0.70703 l 0.70703,-0.23633 h 0.94336 l 0.4707,-0.23633 v -0.4707 l 0.70704,-1.41406 -0.23633,-0.70899 -0.23438,-0.23437 -0.23633,-0.23633 -0.4707,-0.94336 0.23438,-0.23437 v -0.23633 l -0.23438,-0.23633 v -0.23633 l 0.4707,-0.23437 0.47071,0.23437 0.70703,0.47266 0.23633,0.23633 v -0.23633 h 0.47265 v -0.47266 l -0.23632,-0.70703 h -0.47266 l -0.4707,-0.4707 0.23632,-0.23633 0.23438,-0.4707 -0.23438,-0.23633 0.23438,-0.4707 h -0.4707 l 0.23632,-0.47266 0.47071,-0.23438 0.23633,0.23438 0.4707,0.23633 v -0.47071 l 0.47265,-0.47265 0.47071,-0.23438 v -0.23633 l 0.70703,-0.23632 -0.23438,-0.47071 0.70703,0.47071 -0.23632,-0.47071 0.70703,-0.23632 -0.23633,-0.23633 -0.94141,-0.70703 v 0.70703 l -0.47265,-0.47071 v -0.4707 h -0.23633 v 0.23438 l -1.41406,-0.70703 -0.23633,0.23632 -0.23438,-0.23632 -0.47265,0.47265 v -0.94336 h -0.47071 l -0.23632,-0.23633 -0.23438,-0.23632 -1.65039,-0.70704 h -0.23633 v 0.47266 l -0.23633,0.23438 v 0.23632 h -0.70703 -0.23632 v 0.47071 h -0.23438 l -0.47266,-0.94141 -0.4707,0.23438 v -0.47071 l -0.47266,-0.70703 v -0.70703 l -0.4707,-0.23633 -0.23633,-0.236326 -0.4707,-0.234375 -0.4707,0.470701 h -0.94336 l -0.47266,0.23633 -0.23437,0.4707 v -0.23633 h -0.47266 -0.23633 l -0.4707,0.70899 h 0.23633 0.23437 v 0.23437 l -0.23437,0.47266 -0.47266,0.23438 -1.41406,-1.17774 0.23633,-1.179686 v -0.234375 h -0.23633 v 0.234375 h -0.23633 l -0.23437,-0.234375 0.23437,-0.236328 h -0.23437 -0.23633 l -0.23633,-0.236329 h -0.23438 l -0.47265,-0.470703 -0.47071,-0.236328 -0.23632,-0.470703 v -0.707031 -0.707031 -0.472657 h -0.23633 v 0.236329 l -0.23438,0.236328 h -0.23633 v -0.708985 l -0.23632,-0.707031 0.70703,-0.707031 0.47265,-0.707031 h -0.23632 l -0.47071,-0.236329 -0.94336,-0.234375 0.47071,-0.707031 0.94336,-0.707031 -0.23633,-0.472656 h -0.70703 l 0.70703,-1.177735 0.23633,-0.472656 0.4707,-0.234375 v -0.708984 h -0.23438 l 0.23438,-0.707032 -0.94141,-0.470703 0.23438,-0.470703 h 0.70703 l 0.70898,-0.472656 -0.23632,-0.236328 h -1.17969 l -0.70703,0.236328 h -0.94336 -0.70703 l -2.1211,-0.236328 -0.70703,-0.234375 -1.17969,0.234375 -0.70703,0.943359 v 0.472656 l -1.41406,0.234375 h -0.4707 l -1.17969,-1.414062 -0.4707,-0.236328 -0.47266,-0.707032 -0.70703,-0.707031 -1.41406,-1.414062 -0.47266,-1.414063 -0.70703,-1.886718 h -0.94141 l -1.17968,0.472656 -0.94336,0.707031 -1.41407,-0.707031 -1.41406,-0.707032 -1.17969,1.177735 -1.41406,0.470703 -1.65039,-1.884766 -0.70703,-0.707031 -2.1211,1.650391 -0.70898,1.884765 -0.94141,0.472657 -1.88671,-0.472657 -2.1211,-0.470703 -1.41601,-0.943359 -0.70703,0.707031 -0.23438,1.414063 -2.59375,-0.707032 -0.70703,0.94336 -0.23633,1.414062 -0.70703,0.94336 -0.94336,-0.236329 -1.17773,1.416016 -0.23633,-0.236328 -0.94336,2.121094 h -0.4707 l -1.17969,0.236328 -0.70703,0.707031 -0.70704,0.236328 -0.70703,-0.707031 -0.94336,-1.179688 -2.12109,-0.236328 -1.88672,0.236328 -1.88672,1.414063 -1.88476,1.179687 h -1.17969 l -1.17773,0.707032 v 2.357422 l -0.70704,0.236328 -1.41601,-0.472656 0.70703,1.179687 0.23633,1.177734 v 0.472657 l 0.47265,1.177734 0.94141,0.470703 0.23633,1.650391 v 1.179686 l -1.17774,0.23633 -0.94336,-0.23633 -0.94335,-0.23633 h -1.17969 l -0.70703,-0.4707 H 318.3418 L 317.40039,99.808594 315.75,99.101562 v -0.470703 l -1.41406,-0.236328 -2.35938,0.707031 -0.23437,0.943358 -0.47266,0.94336 -0.94141,1.41406 h -2.12304 l -1.65039,-0.94336 -2.1211,-0.4707 -0.94336,0.23633 -0.4707,-0.23633 -0.70703,-1.179686 -0.70898,-1.414063 -1.17774,-0.707031 -0.4707,-1.177734 -1.41602,-0.236328 -0.94336,-1.179688 v -2.121094 l -3.53515,-0.236328 -1.65039,-0.941406 -1.41407,-0.236328 -2.12304,-0.472656 -1.41407,-0.941407 -0.23632,-0.943359 -0.23438,-0.236328 h -1.65039 l -1.17969,-0.94336 -0.94336,-0.941406 -1.64843,0.941406 -1.65039,-0.941406 -1.17969,-0.943359 -1.41406,-0.472657 h -0.94336 l -0.70703,1.416016 -1.17969,0.234375 -2.35742,0.707031 -0.94336,0.472657 -0.94141,0.470703 -2.35742,-0.236328 -1.41602,-1.177735 -1.65039,0.470703 -0.9414,0.472657 -0.94336,0.470703 -1.17969,0.707031 -0.70703,1.886719 -0.70703,0.707031 0.23632,1.650391 -1.41406,0.707031 -1.88672,0.943359 -0.47265,1.650391 -0.23438,0.234375 -0.94336,-0.707031 -0.94336,0.707031 -1.17773,0.472656 H 251.625 l -1.65039,0.234375 -1.41406,1.416016 -0.47266,-0.707031 -0.94141,-0.708985 h -0.47265 l -0.70703,-0.470703 -0.70703,-0.470703 -0.70704,-1.179688 -0.70703,-0.470703 -0.94336,-0.943359 -0.23632,-1.414063 -0.23633,-0.472656 -0.23438,-1.65039 -0.47265,-1.177735 0.23632,-2.357422 -1.88671,-1.179687 v -1.414063 l -0.23438,-1.884765 -0.94336,-0.236328 -1.17969,0.707031 h -1.41406 -0.23633 l -0.9414,-0.236328 -0.94336,0.236328 -0.47266,-0.236328 -0.4707,-1.414063 -2.1211,-1.177734 -0.47265,0.470703 -1.17774,-0.707031 -0.47265,-0.94336 -1.41407,-1.65039 -1.17773,-0.234375 -0.70898,0.234375 -1.65039,-1.177735 -2.1211,0.707031 -1.88476,-0.472656 -0.94336,0.236328 -0.70703,-0.707031 z m 181.29297,33.23828 0.23632,-0.70703 h -0.23632 l -0.23633,0.47266 z m -17.44532,27.11133 v -0.23633 l -0.23633,0.23633 z m -9.66601,50.21289 0.23633,0.23633 v -0.23633 z m -3.06446,3.77148 -0.70703,0.23633 h 0.23438 z M 244.55273,76.470703 v 0.236328 l -0.23632,0.470703 v 0.472657 l -0.70703,0.470703 -1.17969,0.943359 -0.70703,3.064453 0.47265,0.470703 2.82813,1.179688 3.30078,-0.236328 0.23633,-0.470703 -0.23633,-0.236328 -0.4707,-0.470704 -1.88672,-1.65039 -0.47071,-0.94336 0.70703,-1.886718 h 0.47071 l -1.41406,-1.414063 z m 147.81641,24.753907 v 0.23437 h 0.23633 z m 9.19336,2.82812 0.23633,0.23633 v -0.23633 z m 1.41602,0.47071 v 0.23633 z m -2.83008,4.48047 h 0.23633 z m -151.58789,24.75195 0.23633,0.23633 -0.23633,0.4707 -0.23633,0.23633 -1.65039,0.23633 v 0.4707 0.23633 l 0.47265,1.41406 v 0.4707 l 0.23438,0.23633 0.70703,-0.23633 0.23633,-0.23437 0.23633,-0.70703 v -1.17969 l 1.41406,-0.70703 v -0.23633 l -0.70703,-0.4707 z m 141.45117,13.67383 -0.23633,0.23633 0.23633,0.23437 h 0.23633 l 0.4707,-0.23437 v -0.23633 h -0.23633 -0.23437 z m 0.4707,0.70703 v 0.23633 l 0.23633,-0.23633 z m -10.37304,31.58984 v 0.23438 l 0.23632,-0.23438 z m -9.19336,6.36524 0.23437,0.23437 h -0.23437 z" />

    <path
   id="Província de Barcelona"
   clip-path="url(#SVG_CP_1)"
   style="fill-opacity:1;fill-rule:evenodd;stroke:#000000;stroke-width:0.334084;stroke-linecap:round;stroke-linejoin:round;stroke-miterlimit:4;stroke-dasharray:none;stroke-opacity:1"
   onclick="provinceClicked('Província de Barcelona')"
   d="m 235.59375,103.3457 -1.41406,0.23633 -0.47266,0.70703 -0.70703,0.23438 -0.94336,0.23633 h -0.23437 l -0.94336,0.23632 -0.47071,-0.23632 -0.94336,0.4707 -1.41601,0.70898 h -0.70703 l -0.94141,0.70703 -1.17969,0.23438 -1.41406,-0.4707 -0.94336,0.70703 v 0.4707 h -0.94336 l -1.17773,0.70899 -0.94336,-0.23633 h -1.65039 -1.88672 l -0.70703,1.17773 h -0.23633 -1.88477 l -0.47265,-0.70703 -1.41406,0.70703 -0.23633,-0.23437 h -0.70703 -1.41407 l -0.94336,0.23437 -0.23437,0.47266 2.12109,0.4707 0.47071,2.12109 -1.17774,0.70899 v 0.4707 l 0.70703,1.41406 0.94336,0.70704 0.47071,0.47265 v 0.94141 l -2.59376,1.65039 0.23633,0.23633 -0.4707,2.59375 0.70703,-0.23633 0.70703,1.41406 1.88672,1.41406 0.70703,-0.23437 0.70703,-0.70703 2.1211,0.9414 v 0.94336 l -0.47071,0.23633 0.47071,0.70703 -0.23633,0.94336 0.23633,1.17774 -0.47071,0.70703 -1.41601,1.41601 -0.94141,-0.47265 -1.88672,3.30078 v 0.70703 l 1.17969,0.94336 0.4707,0.4707 -0.23632,0.47266 -0.23438,1.17773 -0.47265,0.47266 0.70703,0.70703 1.41406,0.23633 v 1.41406 l -0.70703,0.70703 -0.94141,0.4707 -2.12305,-0.70703 -0.23632,0.94336 v 0.70703 0.47071 l -1.64844,2.35742 -0.23633,1.17969 -0.23633,0.94336 v 0.70703 l 0.70703,0.4707 0.23633,-0.70703 0.4707,-0.94336 0.70704,0.47266 0.47265,0.4707 0.23633,0.94336 -0.23633,0.4707 0.47071,0.70703 -0.23438,0.47266 h -0.94336 l -0.94336,0.70703 -0.70703,0.4707 -0.70703,0.94336 0.23437,0.94336 -0.70703,0.70703 -0.4707,-0.4707 0.4707,-0.70703 -0.23437,-0.47266 0.23437,-1.41406 h -0.70703 l -0.4707,0.4707 -0.47266,1.17969 v 1.17774 l -0.4707,0.70703 0.4707,0.47265 v 0.70703 l 0.70703,-0.94336 -0.23437,-0.23632 0.23437,-0.47071 0.70899,0.47071 v 1.41601 l 0.70703,-0.23633 1.17773,-0.23632 0.94336,0.23632 0.47071,0.47071 0.23632,0.70703 0.23633,0.23633 0.23633,-1.17774 0.4707,-0.23633 -1.17968,-1.88671 0.47265,-1.41407 h 0.47071 l 0.94336,1.17969 v 0.4707 l 1.17968,0.47071 -0.23633,0.70898 v 0.70703 l 0.47071,0.94141 -1.65039,1.17969 -1.41407,0.70703 v 0.23633 l -1.41406,0.70703 -1.17969,-0.23633 -0.4707,-0.4707 0.94336,-1.65039 -1.17969,-0.47266 -0.70703,0.47266 -0.23633,0.4707 -0.4707,-0.23438 -0.23633,0.23438 -0.70703,2.12304 0.23633,1.17774 v 0.23633 l -0.4707,0.70703 0.4707,0.4707 v 0.70703 l -0.70703,0.47266 1.17773,2.12109 -0.4707,0.23633 -0.70703,-0.23633 h -0.47266 l -0.9414,1.17969 -1.17969,1.17773 -0.70703,1.17969 -1.41407,0.47071 -0.47265,-0.23633 -1.65039,2.35742 h -0.23438 v -0.70703 l -0.94336,0.47265 -0.94336,1.41407 1.65039,1.17773 0.70704,-0.4707 1.41406,-1.17969 0.70703,0.23633 1.41601,0.4707 0.94336,1.88672 v 0.23633 l 0.47071,1.41406 -0.47071,1.41406 0.47071,0.47266 -0.70703,0.94141 -1.65039,0.47265 0.4707,0.94336 -0.4707,1.88477 -2.1211,1.17969 -0.47265,1.17773 0.47265,0.70703 v 0.47266 h 0.47071 l -0.23633,0.23437 0.47265,0.94336 -0.94336,1.41406 0.23633,0.47266 -1.41601,0.23437 -0.94336,-0.9414 -0.23438,0.23437 -0.94336,0.47266 -0.4707,-0.23633 v 0.94336 l -1.17969,0.23633 -0.70703,2.12109 h -1.41406 l 0.23437,0.70703 h -0.4707 l -0.23633,-0.70703 0.47266,-0.94336 -0.70703,-0.23632 -0.47266,-0.47071 -0.4707,-0.70703 h -0.94336 v -0.47266 l -0.70703,-2.12109 -2.35742,-0.4707 0.23437,0.23437 -0.23437,0.47266 0.23437,1.41406 -0.4707,0.4707 v 0.47266 l -0.70703,-0.47266 -0.47071,0.23633 -0.23633,0.23633 h -0.47265 l -0.70703,-0.70703 0.94336,-0.47266 0.23632,-0.70703 v -0.94336 l 0.23633,-1.88476 -1.65039,0.23633 -1.65039,-0.23633 -2.35742,-0.23633 -0.70899,1.17969 0.23633,0.4707 -0.70703,2.35742 -0.4707,0.4707 v 1.17969 l -0.94336,3.30078 0.70703,0.70703 1.17773,0.47071 0.70899,0.70703 -0.94336,0.23633 -4.24414,4.00781 2.12109,0.23633 -0.70703,1.41406 0.94336,0.23633 v 1.17773 l 2.12109,0.23633 -0.23437,1.41406 -0.47266,0.23633 1.17969,0.70703 v 1.41407 l 0.70703,0.94335 1.17969,1.41407 h 0.94141 l -0.23438,1.65039 -0.70703,0.23633 h -0.70898 l -0.47071,0.23437 -0.23633,0.70703 1.17969,0.94336 -2.83008,0.94336 -1.17773,1.41406 v 1.17969 l -0.23633,1.88477 -1.65039,1.17968 v 0.70704 h 1.88672 l 0.4707,-0.70704 1.17969,-0.23632 3.77148,2.12109 -2.82812,2.12305 0.4707,0.70703 1.41407,-0.23633 0.23632,0.70703 v 1.88672 l -1.41406,-0.47266 -1.17969,1.17969 -2.59375,-0.4707 -0.70703,1.41406 -0.23437,0.94336 v 0.94141 l 0.4707,0.23632 0.23633,0.70704 0.94336,0.47265 0.70703,0.47071 0.23437,-0.23633 0.23633,0.47265 2.1211,0.47071 1.41601,1.17968 v 0.23438 h 0.94141 l 0.70898,0.47265 h 0.94141 l 0.23633,1.17774 0.94336,0.47266 0.23632,0.9414 v 1.41602 l -2.12304,2.59179 0.70703,0.94336 v 0.47071 h 2.35742 v 0.23632 l -1.17773,0.47266 -0.70704,-0.23633 -0.23632,1.17774 0.94336,0.47265 -0.23633,0.47071 -0.23438,0.47265 0.47071,0.47071 0.4707,1.88671 -0.70703,0.47071 -0.47071,1.17773 -0.47265,0.94336 -0.23438,0.70703 4.24219,-2.12109 1.17969,0.94336 2.12109,0.4707 1.17969,1.41406 0.4707,1.17969 0.70703,0.23633 0.70704,-0.23633 0.94335,0.47071 v 0.70703 l 0.23633,-0.23438 0.47071,0.23438 0.23632,1.17968 -0.94336,0.23633 -1.41406,1.65039 0.70703,0.70703 0.23633,1.41407 0.70703,1.17773 V 262 h 0.47071 l 1.88671,0.94336 v 0.23633 l -0.70703,1.65039 v 0.70703 h 0.23633 l 1.41406,0.94336 1.17774,0.4707 0.47265,-1.17969 1.17774,-0.70703 0.23633,0.23633 0.4707,-0.4707 0.47266,0.23437 -0.47266,0.47266 h -0.4707 v 0.70703 h 0.23632 l -0.23632,1.17774 -0.70703,0.94335 0.70703,0.94336 -0.70703,0.94336 v 0.23438 l -0.23633,1.17969 h -0.47071 l -0.94335,0.70703 -0.94336,-0.47071 h -0.47071 v -0.23632 l -0.23633,-0.23633 -0.23632,-0.23438 -2.82813,-0.47265 0.70703,0.94336 v 0.94336 l 0.94336,2.12109 1.17774,0.23633 0.94336,-0.23633 0.94336,0.70703 0.70703,0.70703 0.70703,0.70703 0.94336,-0.23437 0.23632,-0.70703 0.23438,-0.47266 0.94336,-0.4707 0.47266,0.94336 -0.23633,1.41406 0.4707,0.4707 0.70703,1.41406 -0.23437,0.23633 -0.47266,-0.70703 h -0.70703 v 1.41406 l 0.47266,1.17969 0.23437,-0.23633 h 0.70703 l -0.23437,0.23633 -0.70703,0.23438 h 1.17773 v -0.23438 -0.23633 l 2.12109,-0.23632 0.70899,-0.47071 0.4707,-0.23633 0.4707,-0.23632 0.70899,-0.47071 1.17773,-0.23633 1.17969,-0.23437 0.70703,-0.23633 h 0.94336 l 0.23438,0.23633 -0.23438,-0.70703 0.94141,-0.23633 0.23633,0.94336 h 0.23632 l -0.23632,-0.47266 0.23632,-0.23437 0.47071,-0.47266 h 0.70703 0.47265 l 0.47071,-0.23633 0.70703,0.23633 0.23633,-0.23633 h 0.23633 l 0.23437,-0.23437 h 0.23633 0.23633 l 0.70703,-0.47266 0.4707,0.23633 0.47266,-0.23633 v 0.23633 l 0.23437,-0.23633 v -0.23437 l 0.47266,-0.23633 0.23633,-0.23633 0.4707,-0.23437 1.17773,-0.47266 h 0.47266 l 0.4707,-0.23633 0.47266,-0.23437 0.23437,0.23437 v 0.23633 h 0.23633 l 0.23633,-0.23633 0.23438,0.23633 v -0.23633 l 0.23632,-0.23437 1.17969,0.4707 0.23438,-0.23633 0.47265,0.23633 0.23633,-0.23633 h 0.4707 l 0.70703,0.23633 0.47071,-0.23633 0.23633,-0.4707 h 0.47265 v 0.23633 l 0.23438,-0.23633 -0.23438,-0.23633 h 0.23438 v -0.23437 l 1.65039,-0.70704 0.94336,-0.23632 0.70703,-0.23633 0.47265,-0.4707 H 233 l 0.47266,-0.23633 0.4707,-0.23633 2.12109,-0.70703 -0.23437,0.23633 -0.23633,0.23632 h 0.23633 l 0.70703,-0.47265 0.70703,-0.23438 0.94336,-0.23633 h 6.83594 l 2.59375,-0.47265 2.59375,-0.47071 3.30078,-0.94335 3.53516,-1.41407 1.88671,-0.94336 0.47071,-0.70703 0.70703,-0.23633 h 0.23633 0.4707 l 0.23633,0.23633 -0.23633,-0.4707 -0.23438,-0.23633 h 0.23438 0.23633 l 0.47265,-0.4707 -0.47265,-0.23633 0.70703,-1.41406 0.23633,-0.47266 0.4707,0.47266 h 0.23633 l -0.4707,-0.47266 v -0.23437 -0.23633 h 0.23437 L 262.70508,262 h 0.23633 v -0.23633 l 0.23632,-0.70703 h 0.70704 v -0.23437 l 0.23437,-0.70704 0.47266,-1.17968 -0.23633,-0.23633 h -0.4707 -0.23633 l -0.23633,0.23633 -0.4707,0.94336 -0.23633,0.70703 h -0.4707 l 0.23437,-0.47071 -0.4707,-0.23632 0.23633,-0.23633 h 0.4707 l 0.23633,-1.65039 0.23632,0.47265 v 0.23438 l 0.94141,-0.70703 -0.23437,-0.23438 0.23437,-0.47265 h 0.23633 l 0.4707,0.47265 v 0.23438 l 0.70899,-1.41407 -0.47266,-0.4707 0.23633,-0.23633 0.4707,0.23633 0.23633,-0.23633 -0.23633,-0.23632 h -0.23437 l 0.23437,-0.47071 0.47266,0.23633 0.23437,-0.47266 -0.4707,-0.23632 v -0.70703 h 0.23633 l 0.23437,0.23632 h 0.23633 l -0.4707,-0.4707 0.4707,-0.70703 v 0.23437 l -0.23633,0.23633 0.23633,0.23633 0.23633,-0.47266 -0.23633,-0.4707 h 0.23633 0.23633 v 0.23633 0.23437 0.23633 h -0.23633 v 0.47071 l 0.23633,-0.23438 v 0.23438 l -0.23633,0.23632 v 0.47071 h 0.23633 v 0.23632 h 0.23437 l -0.23437,0.47266 -0.23633,0.94141 0.23633,-0.70703 0.23437,-0.23438 0.23633,-0.94336 h -0.23633 v -0.23633 l 0.47266,-1.17773 0.23437,-0.23633 0.23633,-0.47266 0.23633,-0.23437 v -0.23633 -0.23633 h 0.23437 0.23633 v -0.23437 l 0.70703,-0.94336 0.47266,-0.47266 0.23438,-0.23437 0.23632,-0.23633 v -0.23633 l 0.94336,-0.70703 v -0.23438 l 0.23633,0.23438 0.23438,-0.70703 0.23632,0.23633 v -0.23633 l -0.23632,-0.23633 h -0.23438 l 0.23438,-0.4707 0.23632,0.23633 v 0.23437 l 0.23633,-0.23437 -0.23633,-0.23633 h 0.23633 v -0.47071 l 0.23438,-0.47265 0.23632,-0.23438 0.23633,-0.23632 v -0.23633 l 0.23633,-0.47071 v -0.23632 l 0.4707,-0.94336 v 0.70703 l 0.23633,-0.70703 v -0.23438 -0.23633 h 0.23438 v -0.23633 l 0.23633,-0.4707 0.23632,-0.23633 0.23438,-0.23632 0.23633,-0.47071 0.47265,-0.4707 0.23438,-0.23633 0.70703,-0.47265 0.47266,-0.47071 0.70703,-0.4707 h 0.23632 0.23438 l 0.23633,-0.23633 1.17969,-0.70703 0.4707,-0.23633 0.23633,-0.23633 h 0.23437 l 0.94336,-0.4707 h 0.70703 l -0.23437,0.23633 -0.23633,0.23437 h 0.23633 l 0.23437,-0.23437 0.70703,-0.47266 0.47266,-0.23437 0.4707,-0.23633 h 0.70703 l 0.47266,-0.23633 0.70703,-0.23437 h 0.23633 0.23437 l 0.47266,-0.23633 0.4707,-0.23633 h 0.23633 l 0.47071,-0.23633 0.23632,-0.23437 0.23633,-0.23633 h 0.23438 l 0.23633,0.23633 h 0.23632 l 0.23438,-0.23633 V 235.125 h 0.23633 l 0.23632,-0.23438 0.47071,-0.23632 0.47265,-0.23633 0.23438,-0.23438 0.70898,-0.47265 h 0.23438 l 0.23633,-0.23633 h 0.23632 l 0.47071,-0.4707 h 0.23633 l 0.23437,-0.23633 0.23633,-0.23438 0.47266,-0.70703 0.4707,-0.23633 0.23633,-0.23632 0.4707,-0.23633 0.23633,-0.23438 h 0.23633 l 1.17773,-0.94336 0.23633,-0.23633 0.4707,-0.23437 h 0.23633 l 0.23633,-0.47266 v 0.23633 h 0.23437 v -0.23633 l 0.23633,-0.4707 0.23633,-0.23633 0.4707,-0.23633 0.23633,-0.23437 v -0.23633 l 0.4707,-0.23633 0.47266,-0.4707 h 0.4707 l 0.94336,-0.47266 1.17774,-0.23437 0.23632,-0.23633 h 0.47071 l 0.23633,-0.23633 h 0.23632 v -0.23437 h 0.23633 l 0.23438,-0.47266 h 0.23632 l 0.23633,-0.23437 h 0.23438 v 0.23437 l -0.23438,0.23633 0.47071,-0.23633 v -0.23437 l 0.47265,-0.23633 h 0.23438 l 0.70703,-0.70703 1.17969,-0.47266 1.88671,-1.17773 0.94141,-0.23633 v -0.23633 h 0.23633 0.23633 0.23437 l -0.23437,0.70898 h -0.23633 v 0.23438 l 0.4707,-0.23438 0.23633,-0.47265 0.70703,-0.47071 0.23633,-0.23632 2.82813,-1.17774 1.41601,-0.70898 2.12109,-0.94141 0.70704,-0.47265 0.94336,-0.23438 4.00781,-1.65039 3.77148,-1.41602 1.17969,-0.70703 0.70703,-0.23437 0.70703,-0.70703 h 0.23633 l 2.12109,-1.17969 0.94336,-0.4707 2.35742,-0.23633 0.23633,-0.23633 0.23438,-0.23437 -1.41406,-2.35743 v -0.23633 l -0.94336,-2.12109 1.41406,-1.41601 0.23633,-1.41407 -0.70703,-4.47851 1.41406,-0.94336 v -0.70703 l -4.00781,0.23633 -2.35743,-1.6504 -1.88476,0.47071 h -2.12305 v -0.70703 l -0.94336,-0.23633 v 0.70703 h 0.23633 l 0.23633,0.23633 -0.70703,0.23633 -1.17969,-0.94336 -1.41406,-0.23633 -0.47071,0.70703 h -0.94336 -0.47265 l -0.70703,1.17969 -1.88477,0.70703 -2.59375,0.4707 -2.59375,0.47266 -0.4707,-0.23633 -0.94336,0.23633 -1.88672,0.94336 -1.65039,-0.70703 -0.4707,-1.17969 0.23632,-0.70703 -0.70898,-0.94336 -1.17773,-0.94336 0.23632,-0.23438 -0.47265,-0.70898 0.47265,-0.4707 -0.23632,-0.94336 -2.35743,-0.47071 h -0.23632 l -1.41407,-0.94336 -1.65039,-1.17773 0.47071,-1.65039 -1.88477,0.70703 -1.41406,-0.70703 -0.23633,-1.41602 -1.41406,-1.17773 h -1.41602 l -0.9414,0.4707 -2.35743,-0.4707 -0.47265,-0.4707 -0.47071,-0.23633 -1.41601,0.70703 -2.1211,-0.94336 -0.4707,-0.94336 -0.47266,-0.94141 v -0.70898 l 0.23633,-0.94141 -1.41406,-1.65039 -0.94336,-1.88672 0.70703,-1.65039 -0.4707,-0.23437 -0.47266,-1.41602 0.47266,-1.17773 h 0.23437 l 0.70704,-0.94336 1.17968,0.4707 0.94336,0.47266 0.23633,0.23633 0.70703,-0.23633 0.47071,0.4707 0.4707,-0.70703 v 0.47266 l 0.70898,1.17773 0.94141,0.4707 0.23633,-0.9414 0.47265,-0.23633 0.94141,-0.94336 0.94336,-0.4707 0.23633,-1.17969 1.65039,0.47266 0.4707,-0.70704 0.47266,0.47071 0.23437,0.70703 0.94336,0.23633 0.47266,0.23437 0.23437,-0.9414 0.94336,-0.47266 0.70703,-0.70703 0.94336,-0.70703 0.23633,-0.47071 1.17774,-1.17968 v -0.70704 -0.94335 l -0.70704,-1.88477 h -1.17773 l -0.23633,-0.47266 -0.4707,-0.23437 -0.70899,-0.23633 h -0.70703 l -0.23437,0.4707 -0.70899,-0.94336 0.47266,-1.17773 v -0.70703 l -0.70703,-0.94336 h -0.70703 v -0.70703 l 1.17773,-0.70703 0.47266,0.4707 0.70703,0.23633 0.23437,0.23633 h 0.47266 l 0.23633,0.23437 0.70703,-0.4707 h 1.41406 l -0.23633,-0.94336 0.70704,-0.4707 v -0.70704 l 0.94335,-0.47265 -2.12109,-1.41406 0.94336,-0.47071 0.23438,-0.70703 0.23632,0.4707 0.23633,0.47071 0.70703,-0.47071 1.41406,-0.4707 -0.23632,-0.70898 0.70703,-0.47071 -1.17774,-0.4707 v -1.41601 h 0.47071 l 0.47265,-0.47071 0.47071,-0.94336 -0.23633,-0.23437 -2.1211,-2.12305 -0.4707,-0.94336 1.17774,-0.70703 0.47265,-0.4707 v -0.47071 l -0.70898,-0.94336 h -1.41406 l -0.70704,0.47071 -0.23632,-0.94336 -0.47071,-0.4707 -1.17773,-0.47071 -0.70899,-0.23633 -0.23437,0.70704 -2.12305,1.41406 -0.70703,0.23633 -0.70703,-0.23633 -1.17773,-1.17774 v -0.47265 l -0.47266,-0.70703 -0.94336,-1.41407 v -0.23633 l -0.23438,-0.23437 0.70704,-1.65039 -0.23633,-0.23633 h -2.1211 l -0.47265,-0.94336 -0.23438,-1.17773 -0.70898,-0.23633 -0.4707,-0.4707 h -2.59376 l -2.82812,0.9414 -0.47266,0.70703 -2.35742,0.94336 v -0.23437 l 1.17969,-1.17969 -0.4707,-0.4707 0.23437,-0.70703 0.23633,-1.17969 -0.4707,-0.94336 -0.94336,0.47266 -1.17969,-0.47266 -0.4707,-0.4707 0.4707,-0.70704 -0.94336,-0.23632 -0.4707,-0.47071 -0.70703,0.47071 -0.70704,0.4707 -1.65039,0.23633 -0.47265,-0.94336 -3.06446,0.47265 -0.23632,0.23438 -0.23438,0.70703 0.23438,0.94336 -0.47071,0.23633 -0.4707,-0.4707 -0.23633,0.70703 h -0.94336 -0.70703 v -0.94336 l -0.23633,-0.47266 -2.82812,-0.23437 -1.88672,0.70703 -0.94336,1.41406 -1.41406,1.41406 -0.94336,-0.4707 -1.65039,-1.17969 -0.23438,-0.4707 v -0.4707 l -0.23633,-0.23633 v -1.41407 l -0.70703,-0.70703 -0.94336,0.47071 -1.65039,-0.23633 v 0.47265 l -0.94336,0.47071 -0.23437,0.23633 -0.23633,-0.23633 -0.70703,-0.70703 -0.47266,-0.47071 -0.9414,0.23438 -0.70899,-0.94336 -0.9414,-0.70703 -2.59375,0.47265 v -0.70703 l -0.23633,-0.47265 -1.17774,-2.35743 -0.23632,-0.70703 0.23632,-0.70703 h -1.41601 l -1.65039,0.23633 v -3.06445 l 0.94336,0.23437 1.65039,0.47266 h 2.35742 l -1.17774,0.4707 0.47071,0.94336 0.23633,0.4707 -0.94336,1.65039 0.94336,0.94336 0.23632,0.47071 1.88477,-0.23438 0.70703,-0.70703 0.23633,-0.94336 0.70703,-0.70703 0.94336,0.70703 h 1.65039 l 0.4707,-0.94336 -0.23437,-1.41406 0.4707,-0.47266 -0.70703,-0.23437 -0.70703,-0.23633 -0.23633,-2.35742 0.23633,-0.70703 0.23633,-0.70703 -1.17969,-0.23633 -1.17969,0.47265 -0.4707,0.47071 -0.70703,-1.65039 -0.70703,-0.94336 0.94336,-0.70703 0.23437,-0.70703 0.23633,-1.6504 v -0.23632 l 0.94336,-1.17774 0.70703,-1.41406 0.94336,-0.94336 0.23633,-0.4707 1.64843,-0.94336 0.47266,-0.94336 -0.70703,-0.23633 -0.94336,-0.4707 -1.17969,-0.70703 -0.9414,-0.70704 -1.65039,-0.70703 h -1.41602 l -1.17773,0.23438 -1.17969,0.94336 h -1.17774 l -3.06445,-1.88672 -0.47266,-0.4707 -1.17773,0.94335 -0.23633,-1.17968 -2.12109,-0.23438 z m 53.51563,132.25196 h -0.47071 v 0.23437 z m -16.50196,11.78711 -0.23633,0.94335 0.47071,-0.94335 z m -3.53711,4.24218 v 0.23633 l 0.23633,-0.23633 z m 0,0.23633 -0.23633,0.23633 v 0.23437 z m -1.88476,3.06445 -0.23633,0.23633 h 0.23633 z M 233,272.60938 l -0.23438,0.4707 -0.23632,0.23633 h 0.23632 z m -8.95898,2.82812 -0.23438,0.23633 h 0.23438 z m 24.51953,-141.68164 0.70703,0.23633 0.70703,0.4707 v 0.23633 l -1.41406,0.70703 v 1.17969 l -0.23633,0.70703 -0.23633,0.23437 -0.70703,0.23633 -0.23438,-0.23633 v -0.4707 l -0.47265,-1.41406 v -0.23633 -0.4707 l 1.65039,-0.23633 0.23633,-0.23633 0.23633,-0.4707 z m -40.31446,2.12305 -3.77148,0.23437 0.23633,0.23633 1.65039,0.94336 3.53515,0.23437 -0.23632,-0.23437 0.47265,-0.94336 z m 3.06446,34.65234 h 0.47265 l 0.47071,0.70898 0.47265,-0.70898 0.70703,0.47266 -0.94336,1.65039 -0.23632,-0.70703 -0.94336,-0.47266 h 0.47265 z m 77.09179,65.30078 v 0.23633 h 0.23633 z m -21.68945,19.33203 -0.4707,0.94336 -0.47266,0.94141 -0.4707,0.70898 v 0.70703 0.47071 0.23633 0.23437 0.47266 l 0.23633,-1.17969 0.23437,-1.17774 0.47266,-0.94336 0.4707,-1.17773 z m -65.53906,7.3086 h 0.94336 v 0.23437 l -0.70703,0.47266 -0.70704,-0.23633 z m 11.78711,16.50195 -0.23438,0.23437 -0.47265,0.47266 0.47265,-0.23633 z" />

    <path
   id="Província de Tarragona"
   clip-path="url(#SVG_CP_1)"
   style="fill-opacity:1;fill-rule:evenodd;stroke:#000000;stroke-width:0.334084;stroke-linecap:round;stroke-linejoin:round;stroke-miterlimit:4;stroke-dasharray:none;stroke-opacity:1"
   onclick="provinceClicked('Província de Tarragona')"
   d="m 176.65625,219.56641 -1.17969,0.23632 -0.4707,0.70704 h -1.88672 l 0.23633,1.41406 0.94336,0.47265 v 0.94141 l -1.41406,0.23633 -0.94336,-0.23633 -0.47266,-0.70703 -1.41406,-0.70703 -6.36524,-0.47071 -0.94336,-0.47265 -1.41406,0.94336 -2.59375,-1.17774 -1.41406,0.70703 -0.4707,-0.70703 -0.70899,0.23438 -0.70703,0.47265 -1.41406,-0.47265 -1.41406,0.23633 -0.70704,1.41406 -0.47265,1.88672 -2.1211,0.70703 -2.59375,0.4707 -0.23437,0.47266 0.94141,0.23437 v 0.23633 l -0.23438,0.23633 h -0.94336 l 0.23633,0.23633 h 0.4707 l -0.23633,1.88476 -0.23437,0.23633 h -0.47266 v 0.70703 l 0.23633,1.17774 0.94336,0.70898 0.4707,2.1211 h -0.94336 l -2.12109,0.94335 -3.06445,0.70704 v 0.4707 l -1.17969,0.47266 -1.41406,0.4707 -0.23633,-1.17969 -0.70703,-0.23437 -0.70703,-0.23633 -1.17774,-0.47071 -1.41601,-1.17968 -0.94336,-0.23633 -1.17774,-0.94141 -1.65039,-1.17968 -0.23633,0.47265 1.41602,1.88477 -0.47266,0.47265 -0.94336,0.70703 0.70703,0.94141 1.41602,1.17969 1.41406,0.4707 0.94336,0.70703 -1.65039,0.94336 -0.47265,1.41407 -0.47071,0.23632 -0.94336,0.23633 -0.4707,1.65039 -0.47266,1.41406 h -0.94336 v 0.70704 l -0.4707,1.17968 h -0.4707 l -0.94336,0.94141 -1.65039,-0.23438 0.23633,0.70704 -1.17969,0.94335 v 0.47071 l -0.23633,0.23633 -1.17773,-0.47266 -0.70704,1.17969 -0.47265,1.17773 -0.23438,0.70703 -1.17968,0.94336 v 0.70703 0.47266 h 0.47265 l -0.70898,0.70703 -0.94141,0.4707 h -0.70898 l -1.64844,0.23633 h -2.35937 l -0.94141,0.23633 -0.70703,0.23438 -1.65039,0.70703 -2.59375,0.47265 -1.88672,-2.83007 -0.23438,-1.17774 -1.65039,0.4707 -0.23633,0.70704 -0.47265,0.70703 -0.70703,3.53711 -0.94141,0.23632 -1.65039,-0.23632 h -0.47266 l -1.17773,-0.47071 -1.650391,-0.47265 -0.472657,-0.23633 -0.943359,0.23633 -0.470703,0.70703 -0.470703,0.94336 v 0.70703 l -2.59375,0.23633 -1.414063,0.4707 -0.943359,-0.23438 -0.707031,0.23438 -0.94336,-0.23438 -0.707031,0.23438 -0.707031,0.47266 h -0.472656 l -1.177735,-0.23633 -1.414062,1.17773 -1.416016,0.23633 -1.414062,0.47266 -0.94336,0.9414 h -1.177734 l -1.179688,-0.23437 -1.414062,-0.47266 -1.414063,-1.88476 -0.472656,-1.41602 v -0.4707 h -0.707031 l -2.357422,-1.41407 -1.177734,1.17774 -0.236329,1.17969 -1.414062,1.88476 -0.707031,1.65039 -2.59375,-0.23437 L 65.851562,262 l -0.707031,-1.17773 -0.470703,-0.70704 -0.943359,-1.65039 -1.177735,-1.41601 -0.943359,-1.17774 -0.472656,0.47071 -1.650391,0.94336 -1.177734,1.41406 v 3.53711 l -0.236328,2.82812 -1.177735,0.47266 -4.480469,-0.70703 H 52.179688 L 51,267.42188 v 1.41601 l -0.470703,1.17773 0.470703,1.17969 -1.414062,-0.23633 -0.236329,0.94336 v 0.70704 l -0.470703,0.23437 H 48.40625 l -0.943359,-0.23437 -0.941407,-0.47266 h -0.236328 l -0.236328,0.70703 -0.234375,0.23633 -0.472656,0.23633 -0.943359,-0.47266 v 0.23633 l -0.470704,0.47265 -0.236328,1.41407 -1.177734,3.77148 -0.236328,0.94336 -0.236328,0.70703 -0.234375,2.1211 -0.236329,0.47265 -0.472656,-0.23633 -0.707031,0.23633 v 0.23438 h -0.470703 l -2.121094,1.41406 -2.123047,-0.23438 v 0.23438 l 0.236328,0.47266 v 0.4707 l -0.472656,0.47266 v 0.70703 l -0.234375,0.4707 -0.472656,0.47266 h -0.707031 l -0.470703,-0.23633 -1.886719,-0.94336 h -0.707031 -0.236329 l 0.472657,0.23633 0.234375,0.23437 v 0.23633 l -0.234375,0.23633 -1.414063,0.23633 -0.472656,0.23437 v 0.47266 l 0.943359,0.9414 -0.470703,1.65039 -0.708984,0.23633 v 3.06446 l 0.236328,0.47265 h 0.472656 l 0.941406,-0.23633 0.707032,0.23633 0.236328,0.4707 v 0.23633 l -0.470703,0.23438 h -0.236328 v 0.23633 l 0.470703,0.23632 v 0.70703 l -0.470703,0.70704 0.470703,0.94336 0.708984,0.4707 v 0.47266 0.23437 l -0.236328,0.23633 -0.472656,0.23633 -0.470703,0.4707 v 0.23633 0.4707 h 0.470703 l 0.472656,-0.4707 0.470703,-0.23633 h 0.236328 l 0.236328,0.23633 v 0.23437 l -0.236328,0.47266 -0.236328,0.4707 v 0.23633 l 0.236328,0.23633 0.94336,0.23437 h 0.236328 l 0.234375,-0.23437 v -0.70703 -0.23633 h 0.236328 l 0.236328,0.23633 0.234375,0.70703 0.707031,0.70703 1.179688,0.94336 h 0.470703 l 0.472656,0.23437 0.707031,0.47266 v 0.23437 l -0.470703,0.23633 -0.472656,-0.23633 h -0.707031 -0.236329 l -0.470703,0.23633 -0.236328,0.23633 0.236328,0.70703 0.470703,0.23633 h 0.707032 l 0.236328,0.4707 0.236328,0.47071 -0.472656,0.23633 -0.234375,0.4707 v 0.47265 l 0.234375,0.23633 0.236328,0.47071 0.707031,0.70703 0.236328,0.94336 v 0.70703 0.70703 h 0.707031 l 0.470704,0.23633 v 0.23437 l -0.707032,0.94336 h -0.234375 v 0.94336 0.23633 l -0.236328,0.4707 -0.236328,0.47266 -0.470703,0.23437 -0.236328,0.23633 -0.470703,0.70703 0.234375,1.17969 -0.941406,1.17773 h -0.472657 l -0.943359,0.94336 v 1.65039 h -0.470703 l -0.236328,0.23438 v 0.23633 l 0.472656,0.70703 -0.472656,0.23633 v 1.17773 l -0.470703,0.47266 v 0.70703 l -0.707032,0.23633 -0.236328,0.23437 0.236328,0.23633 0.707032,0.47266 0.470703,0.23437 0.472656,0.70703 v 0.70703 l -0.472656,1.17969 0.236328,0.4707 v 0.70704 l 0.236328,0.47265 0.707031,2.59375 0.94336,1.17774 0.707031,0.70703 0.234375,0.47265 -0.234375,0.23438 h -0.236328 l -0.236329,0.23633 -0.707031,0.4707 -0.943359,2.35742 -1.177734,0.23633 -0.707032,0.94336 -1.179687,0.70703 v 1.17774 0.47265 l -0.470703,1.41406 -0.472657,0.23633 h -0.470703 l -1.414062,-0.23633 -1.414063,1.65039 -0.236328,-0.23632 h -0.236328 l -0.236328,0.47265 -0.470703,0.70703 h -0.236328 l -0.234375,-0.23632 -0.236329,-0.47071 -0.236328,0.23438 -0.707031,-0.23438 -0.236328,1.17774 v 0.47265 0.47071 l -0.470703,-0.23633 -0.470703,-0.70703 -0.472657,-0.47071 h -0.236328 v 0.23438 l 0.472657,0.70898 v 0.47071 l 0.470703,1.41406 1.886718,0.94336 0.707032,-0.70703 0.470703,1.17773 1.179687,-0.23437 0.236328,-0.47266 0.707032,-0.23438 0.470703,-0.23632 h 1.179687 l -0.236328,1.41406 1.177735,3.53711 0.708984,0.23437 0.941406,-0.4707 0.94336,-0.47266 h 0.472656 l 0.707031,0.47266 0.470703,0.23633 0.707031,1.41406 1.416016,0.70703 0.234375,0.70703 -0.943359,1.41407 -0.234375,0.47265 -0.707031,0.23438 h -0.236329 l -0.707031,1.88672 v 1.41406 0.23633 l -0.236328,0.23437 0.236328,0.94336 v 0.23633 l 0.470703,0.4707 h 0.236328 l 0.236329,0.70703 0.234374,0.70899 1.179688,0.70703 h 0.236328 l 0.470703,-0.23633 h 0.236328 l 0.234375,0.4707 1.416016,0.94336 2.121094,0.94336 1.886718,0.70703 3.771485,0.23633 h 1.177734 l 0.472657,0.23438 1.177734,0.47265 0.472656,0.70703 0.234375,0.70704 1.650391,1.17968 1.179687,1.17774 h 1.414063 v 0.23633 l -0.236328,0.23437 -0.234375,0.23633 -0.236329,0.47266 -0.236328,0.9414 0.236328,1.17969 v 1.65039 l 1.179688,0.94336 1.414062,0.4707 2.121094,1.17774 1.650391,0.70898 1.179687,0.4707 1.177735,0.23633 0.470703,0.23438 0.236328,-0.94141 0.707031,-1.65039 v -0.23633 -0.23633 l 1.179688,-1.65039 0.236328,-0.4707 0.707031,-1.88672 0.941406,-0.70703 h 0.236328 l 0.472657,0.47266 -0.472657,-0.70703 1.650391,-1.65039 2.59375,-3.06446 0.943359,-1.17969 0.707032,-0.23632 0.236328,-0.23438 h -0.236328 -0.236328 v -0.23633 l 0.472656,-0.23632 h 0.234375 l -0.234375,0.23632 h 0.234375 l 0.236328,0.23633 h 0.707031 v -0.23633 h -0.236328 l -0.234375,-0.23632 v 0.23632 L 74.576172,369.5 74.810547,369.26367 75.046875,369.5 v -0.23633 h 0.236328 l 0.234375,-0.23633 h 0.236328 l 1.414063,0.23633 3.773437,-0.23633 0.707032,-0.23632 0.707031,-0.23438 1.177734,-0.23633 0.943359,-0.70703 1.414063,-0.4707 3.066406,-0.23633 h 1.884766 0.236328 l 1.177734,0.23633 v 0.70703 l -0.234375,0.4707 -1.416015,2.35742 -2.357422,3.30079 -0.234375,0.23632 -0.707031,0.47071 H 86.833984 86.597656 86.126953 85.890625 85.65625 l -0.472656,-0.23633 -0.234375,0.23633 -1.416016,-0.70703 -0.943359,0.23632 h -0.470703 -0.236329 l -0.470703,0.70704 -0.707031,0.23437 -1.886719,0.47266 h -0.470703 l -0.943359,-0.23633 -0.707031,-0.70703 v 0.94336 0.4707 0.23633 0.23633 h -0.236328 -0.470704 l -0.236328,-0.23633 -0.236328,-0.23633 h -0.234375 v 0.23633 l -0.236328,0.23633 -0.707031,-0.23633 -0.236328,-0.23633 0.236328,1.41406 0.470703,0.70703 0.472656,0.94336 0.941406,0.70703 0.94336,0.23633 1.179687,0.23633 0.94336,-0.23633 1.177734,-0.23633 2.121094,-0.4707 0.943359,-0.4707 1.886719,-0.94336 0.943359,-0.70703 0.707031,-0.94336 1.177735,-1.65039 4.716797,-7.07227 0.707031,-0.70703 0.941406,-0.94336 2.123047,-1.17773 1.650391,-0.70899 4.714841,-2.12109 1.65039,-0.94336 1.17774,-0.94141 1.17969,-0.94336 0.94335,-1.65039 0.47071,-1.41406 0.4707,-0.94336 0.23633,-0.47266 -0.4707,-1.17773 -0.47266,-1.41406 -0.23438,0.23437 v 0.47266 h -0.70703 l -0.47265,-0.70703 h -0.47071 l -0.23632,0.23437 -0.47071,0.23633 -0.70898,0.23633 h -0.47071 -0.70703 l -0.4707,-0.23633 -0.70898,-0.94336 -0.94141,-0.94141 -3.066406,-4.24414 -1.177735,-2.12109 -0.472656,-0.47266 -0.707031,-0.4707 -0.470703,-0.47265 -0.94336,-0.23438 h -1.414062 -0.707031 -0.707032 l -0.472656,0.23438 -0.470703,0.47265 0.707031,0.4707 h 0.707032 0.472656 l 0.470703,0.23633 0.707031,0.23633 0.707031,0.23438 0.94336,0.47265 0.707031,0.23438 1.179688,0.70898 -0.472657,0.4707 H 96.970703 L 96.5,346.86719 l -0.470703,0.23633 -0.236328,0.23632 -0.707031,0.23438 -1.650391,-0.23438 -1.650391,-0.70703 -0.707031,-0.47265 -1.179687,-1.41407 -0.234376,-0.23632 -0.707031,-0.70704 -0.708984,-0.94335 -0.707031,-1.64844 0.236328,-0.47266 0.470703,-0.4707 0.236328,-0.23633 0.236328,-0.23633 0.470703,-0.23437 0.707032,-0.23633 h 0.236328 l 0.236328,-0.4707 0.470703,-0.23633 0.707031,-0.23633 0.236328,-0.4707 0.236328,-0.23633 h 0.470704 v 0.23633 l 0.236328,-0.23633 0.236328,-0.47071 -0.236328,-0.23632 v -0.23633 l 0.470703,-1.17774 v -0.23632 h 0.236328 l 0.236328,-0.23633 v -0.4707 l 0.470703,-0.47071 h 0.236328 0.234375 0.472657 0.236328 l 0.234375,-0.47265 v -0.23633 l 0.472656,-0.47071 0.234375,-0.4707 0.236328,-0.23633 1.179688,-0.23633 0.707031,-0.4707 v -0.23633 h 0.234375 l 0.236328,-0.23632 0.236328,-0.23438 0.470703,-0.70703 -0.234375,-0.23633 h 0.234375 v -0.23633 l 0.236328,-0.23437 0.236329,-0.23633 0.23437,-0.47266 0.23633,-0.23437 v 0.23437 0.23633 l 0.23633,-0.23633 v -0.23437 -0.23633 l 0.23438,-0.23633 v -0.23437 l 0.23632,-0.23633 h 0.23633 l 0.23633,-0.23633 0.4707,-0.23437 0.23633,-0.70899 0.4707,-0.23437 0.23633,-0.47266 v -0.23437 h 0.23633 v -0.23633 -0.23633 -0.23633 l 0.23438,-0.23437 0.23632,-0.23633 h 0.23633 v -0.47071 h 0.23438 v -0.23632 h 0.23632 l 0.23633,-0.70703 0.47071,-0.23633 0.70703,-0.70703 0.23633,-0.23633 0.23632,-0.23438 v -0.23632 -0.23633 l 0.47071,-0.47071 0.47265,-0.94336 0.47071,-0.94336 0.70703,-0.4707 h 0.4707 l 0.47266,-0.23633 0.4707,-0.70703 v -0.23633 l 0.23633,-0.4707 0.4707,-0.23633 1.17969,-1.65039 0.4707,-0.4707 0.47266,-0.23633 0.4707,-0.4707 1.17969,-1.17969 h 0.23437 0.23633 0.23633 l 0.70703,-0.23437 0.4707,-0.23633 0.70704,-1.88672 0.23632,-0.23438 0.23633,-0.23632 2.1211,-2.35743 0.94336,-0.94336 0.4707,-0.23632 0.94336,-0.94141 1.17968,-0.70703 0.70704,-0.47266 0.4707,0.23633 0.23633,-0.23633 h 0.4707 l 1.17969,-0.94336 0.70703,-0.23437 h 0.23633 l 0.23437,-0.23633 h 0.23633 l 0.23633,-0.23633 h 0.23633 l 0.23437,-0.23437 v -0.23633 l 0.47266,0.23633 v -0.23633 l 0.23437,-0.23633 h 0.23633 0.23633 l 0.23437,-0.23633 h 0.23633 v -0.23437 l 0.70703,-0.47266 h 0.23633 l 0.23633,0.23633 h 0.4707 l 0.47266,-0.23633 h 0.23437 v 0.47266 l -0.23437,0.23437 0.4707,-0.23437 v -0.23633 l 0.23633,-0.23633 h 0.70703 l 0.70703,0.23633 h 0.47071 0.23632 l 0.94336,-0.4707 1.65039,-0.23633 1.41407,-0.4707 0.70703,-0.23633 h 0.70703 0.23633 0.4707 l 0.70703,0.23633 0.23633,0.4707 0.47266,0.23633 v 0.4707 h 0.70703 l 0.4707,0.23633 v 0.4707 h 0.23633 v 0.23633 l 0.23437,0.4707 h -0.23437 l 0.23437,0.23633 0.70899,-0.23633 v 0.23633 h 0.4707 l 0.70703,-0.94336 h 0.23633 l 0.23633,-0.4707 -0.23633,-0.23633 v -0.4707 l 0.70703,-1.41602 0.70703,-1.64844 0.94336,-0.94336 0.94336,-0.70703 0.23438,0.47071 0.47265,0.4707 0.23633,-0.4707 -0.23633,-0.47071 1.17774,-0.94336 h 0.23633 l -0.23633,0.70703 0.23633,-0.23632 v 0.47265 h 0.23632 l 0.23438,-0.23633 -0.23438,-0.70703 h 0.23438 l 0.23633,0.70703 0.94336,-0.4707 -0.23633,-0.23633 v -0.23632 l 0.47265,0.23632 h 0.23438 l -0.4707,-0.23632 0.23632,-0.23633 0.47071,-0.23438 0.47265,0.23438 -0.23632,0.47265 v -0.23632 l -0.23633,0.23632 0.23633,0.23633 -1.65039,0.70703 -0.23633,0.70703 -0.23633,-0.23632 -0.4707,0.94335 0.23632,0.23633 -0.70703,0.70703 v 0.23438 l 0.70703,-0.70703 0.70704,-1.17774 1.65039,-0.94336 0.23632,-0.4707 0.23438,-0.23633 0.23633,-0.47265 h 0.23632 v -0.23438 l 0.23438,-0.23633 0.23633,-0.23632 0.4707,-0.23438 0.47266,0.23438 v 0.23632 l 0.23633,-0.23632 h 0.23437 0.23633 v -0.23438 l 0.23633,-0.23633 v -0.23633 l 0.94336,-0.4707 1.41406,-0.70703 0.94336,-0.23633 1.88476,-0.23633 0.94336,0.23633 h 1.41407 l 0.94336,0.4707 0.23632,-0.4707 0.70703,0.23633 1.17774,-0.47266 1.65039,-0.4707 0.94336,-0.23633 0.23633,0.23633 0.4707,0.23633 h 0.70703 l 0.23633,-0.23633 h 0.47266 l 0.23437,-0.4707 h 0.23633 l -0.23633,-0.23633 4.48047,-2.59375 2.35742,-1.41406 3.06445,-0.94336 1.41407,-0.47071 3.30078,-0.70703 h 0.23633 l 0.4707,-0.47265 1.17969,-0.23438 3.53515,-0.47265 1.17969,-0.23633 h 3.30078 0.23438 l 0.94336,-0.47071 0.23632,0.23633 0.47071,-0.23633 h 0.23633 l 0.4707,-0.23632 v 0.23632 l 1.65039,-0.23632 0.47266,-0.23438 -0.47266,-1.17969 v -1.41406 h 0.70703 l 0.47266,0.70703 0.23437,-0.23633 -0.70703,-1.41406 -0.4707,-0.4707 0.23633,-1.41406 -0.47266,-0.94336 -0.94336,0.4707 -0.23438,0.47266 -0.23632,0.70703 -0.94336,0.23437 -0.70703,-0.70703 -0.70703,-0.70703 -0.94336,-0.70703 -0.94336,0.23633 -1.17774,-0.23633 -0.94336,-2.12109 v -0.94336 l -0.70703,-0.94336 2.82813,0.47265 0.23632,0.23438 0.23633,0.23633 v 0.23632 h 0.47071 l 0.94336,0.47071 0.94335,-0.70703 h 0.47071 l 0.23633,-1.17969 v -0.23438 l 0.70703,-0.94336 -0.70703,-0.94336 0.70703,-0.94335 0.23632,-1.17774 h -0.23632 v -0.70703 h 0.4707 l 0.47266,-0.47266 -0.47266,-0.23437 -0.4707,0.4707 -0.23633,-0.23633 -1.17774,0.70703 -0.47265,1.17969 -1.17774,-0.4707 -1.41406,-0.94336 h -0.23633 v -0.70703 l 0.70703,-1.65039 v -0.23633 L 194.57227,262 h -0.47071 v -0.94336 l -0.70703,-1.17773 -0.23633,-1.41407 -0.70703,-0.70703 1.41406,-1.65039 0.94336,-0.23633 -0.23632,-1.17968 -0.47071,-0.23438 -0.23633,0.23438 v -0.70703 l -0.94335,-0.47071 -0.70704,0.23633 -0.70703,-0.23633 -0.4707,-1.17969 -1.17969,-1.41406 -2.12109,-0.4707 -1.17969,-0.94336 -4.24219,2.12109 0.23438,-0.70703 0.47265,-0.94336 0.47071,-1.17773 0.70703,-0.47071 -0.4707,-1.88671 -0.47071,-0.47071 0.23438,-0.47265 0.23633,-0.47071 -0.94336,-0.47265 0.23632,-1.17774 0.70704,0.23633 1.17773,-0.47266 v -0.23632 h -2.35742 v -0.47071 l -0.70703,-0.94336 2.12304,-2.59179 v -1.41602 l -0.23632,-0.9414 -0.94336,-0.47266 -0.23633,-1.17774 h -0.94141 l -0.70898,-0.47265 h -0.94141 v -0.23438 l -1.41601,-1.17968 -2.1211,-0.47071 -0.23633,-0.47265 -0.23437,0.23633 -0.70703,-0.47071 -0.94336,-0.47265 -0.23633,-0.70704 -0.4707,-0.23632 v -0.94141 l 0.23437,-0.94336 0.70703,-1.41406 2.59375,0.4707 1.17969,-1.17969 1.41406,0.47266 v -1.88672 l -0.23632,-0.70703 -1.41407,0.23633 -0.4707,-0.70703 2.82812,-2.12305 z m -21.45313,74.49414 -0.23632,0.47265 0.23632,-0.23632 z m -23.57617,6.60156 0.23633,0.23633 v -0.23633 z m -31.11914,28.28906 -0.23633,0.23633 v 0.23633 z m -11.316404,10.60938 -0.234375,0.4707 0.234375,-0.23633 z m -13.4375,29.46679 v 0.70704 h 0.236328 z m -0.707031,1.17969 h -0.236328 v 0.23438 z m 126.126955,-107.73437 -0.47071,0.4707 0.70704,0.23633 0.70703,-0.47266 v -0.23437 z" />


    <path
   id="Província de Lleida"
   clip-path="url(#SVG_CP_1)"
   style="fill-opacity:1;fill-rule:evenodd;stroke:#000000;stroke-width:0.334084;stroke-linecap:round;stroke-linejoin:round;stroke-miterlimit:4;stroke-dasharray:none;stroke-opacity:1"
   onclick="provinceClicked('Província de Lleida')"
   d="m 97.207031,15.414062 -2.357422,0.941407 H 93.90625 l -0.470703,1.416015 -1.886719,1.177735 0.472656,1.414062 0.470704,0.472657 -0.236329,1.414062 0.236329,1.177734 0.236328,1.179688 -1.414063,0.943359 -0.708984,1.414063 -0.707031,0.707031 1.179687,0.943359 0.943359,0.470704 -0.943359,0.707031 -0.943359,0.707031 -1.414063,1.650391 2.121094,0.236328 0.707031,0.470703 v 1.179687 l 0.472656,0.707032 0.470704,1.179687 0.236328,0.234375 0.707031,0.943359 -0.707031,0.470704 0.943359,1.886718 -0.707031,0.94336 -0.236328,0.943359 v 0.941406 l -0.707032,0.236329 -0.236328,-0.236329 h -0.707031 l 0.707031,1.179688 0.707032,0.236328 0.707031,2.121094 0.943359,0.943359 0.707031,0.470703 0.472657,2.357422 v 2.830078 l 1.648437,1.177735 1.416016,0.707031 1.884761,0.472656 0.47266,-0.236328 1.17774,0.470703 1.41601,0.236328 v 0.236328 l -1.17969,2.591797 v 2.59375 l -0.70703,1.886719 -0.47265,1.650391 -1.177739,1.177734 0.943359,1.650391 -0.943359,-0.236328 -0.707031,-0.707032 -1.414062,1.886719 v 1.177734 l -0.236329,1.179688 0.94336,0.470703 0.943359,0.707031 -0.472656,0.236328 -0.470703,1.179688 L 96.5,74.349609 95.792969,73.876953 94.849609,73.40625 94.613281,74.583984 H 93.90625 l -0.234375,0.236328 1.884766,4.007813 v 1.650391 l 0.707031,2.828125 1.65039,1.416015 0.707032,1.648438 -0.707032,0.708984 -0.234374,0.470703 1.177734,0.94336 0.707031,2.591797 -0.470703,0.943359 -0.472656,0.236328 -0.234375,0.707031 -1.416016,0.470703 1.179688,0.94336 0.707031,0.236328 1.179688,0.470703 1.17773,0.236328 h 0.23633 l 0.94336,0.707031 -0.47265,0.472657 -0.47071,0.234375 -0.70703,0.236328 -0.23633,0.470703 -0.943357,0.472656 -0.470703,0.234375 v 0.472656 l 0.470703,1.414061 0.943357,0.23633 0.70703,0.23437 0.70704,0.23633 -1.41407,1.41407 0.23633,0.70703 -1.414062,1.65039 -0.236328,1.88672 -0.472656,0.94336 -0.470703,2.35742 -0.236329,2.12109 -0.707031,0.94336 -0.470703,1.65039 -1.414062,1.65039 0.234375,0.94141 -0.234375,1.41601 -0.708985,1.17774 -0.234375,1.41406 -1.179687,3.30078 0.236328,0.47266 1.650391,0.9414 -1.179688,0.70704 -0.941406,1.17968 v 1.17774 2.35742 l 0.234375,0.47266 0.236328,0.70703 -0.236328,1.41406 -0.707031,1.88672 -0.707032,0.94336 -0.707031,1.41406 -0.472656,1.65039 -0.941407,1.65039 -0.472656,3.06445 -1.177734,0.70704 -0.707031,2.12109 0.234375,0.70703 0.236328,1.17969 h 0.470703 l 0.236328,0.4707 -0.943359,1.88672 -1.177735,0.70703 -0.472656,2.12109 v -0.23632 l -0.470703,-1.64844 -2.357422,0.70703 v 0.70703 l -0.707031,0.70703 -0.236328,1.65039 -0.707032,1.17774 -1.414062,-0.94336 -0.943359,0.47266 -0.94336,0.94335 -1.414062,1.88477 -0.472657,1.88672 0.472657,0.23633 0.943359,0.23437 0.707031,0.47266 3.064453,1.41406 H 80.46875 l -0.470703,0.70703 0.470703,1.17774 -0.943359,3.53711 1.65039,1.41406 -0.470703,1.17969 -1.414062,0.4707 h -0.708985 l -0.707031,0.4707 0.236328,0.70899 -0.236328,1.17773 -2.591797,-0.4707 -0.707031,1.65039 v 1.41406 l -1.179688,2.12109 -2.121093,-0.23632 h -0.94336 l -1.65039,0.94336 -0.472657,1.17968 -1.414062,0.47071 -0.94336,1.17968 -0.707031,1.17774 -0.707031,3.30078 -0.707031,0.70703 -1.886719,-0.23633 -4.949219,0.94336 h -0.943359 v 1.17969 l -0.472656,2.82812 -1.414063,-1.41406 -1.414062,2.35742 h -0.236329 l -0.234374,1.65039 -0.472657,0.47071 -3.064453,3.06445 -1.65039,2.12305 v 2.59179 l 0.943359,0.23633 2.121094,4.24414 0.472656,0.47071 -1.179688,1.17773 -0.236328,0.70899 0.236328,3.06445 6.365235,1.17773 3.064453,-1.41406 0.707031,1.65039 0.236328,1.41406 -0.943359,1.17969 0.472656,1.17774 -0.472656,0.70703 0.707031,0.94336 1.179688,2.12109 v 0.47266 l -1.650391,1.65039 -0.470703,0.70703 -1.416016,1.65039 -0.941406,1.88476 -1.650391,2.1211 -0.236328,0.23633 -1.179687,0.47265 -2.357422,0.23438 -3.064453,-0.47071 v 0.94336 0.70703 l 0.472656,1.17774 v 1.41406 l 1.177734,0.94336 v 0.47266 l -1.414062,2.12109 0.707031,0.4707 -0.236328,1.17969 -0.470703,1.17774 -0.943359,1.65039 -2.121094,2.12304 4.714844,4.00586 1.414062,3.30078 -0.943359,1.17969 -0.94336,0.23438 -1.177734,2.12304 0.470703,0.47071 1.886719,1.41406 -0.236328,1.65039 v 0.47266 l 2.357421,4.00781 4.480469,0.70703 1.177735,-0.47266 0.236328,-2.82812 v -3.53711 l 1.177734,-1.41406 1.650391,-0.94336 0.472656,-0.47071 0.943359,1.17774 1.177735,1.41601 0.943359,1.65039 0.470703,0.70704 0.707031,1.17773 0.472657,1.17969 2.59375,0.23437 0.707031,-1.65039 1.414062,-1.88476 0.236329,-1.17969 1.177734,-1.17774 2.357422,1.41407 h 0.707031 v 0.4707 l 0.472656,1.41602 1.414063,1.88476 1.414062,0.47266 1.179688,0.23437 h 1.177734 l 0.94336,-0.9414 1.414062,-0.47266 1.416016,-0.23633 1.414062,-1.17773 1.177735,0.23633 h 0.472656 l 0.707031,-0.47266 0.707031,-0.23438 0.94336,0.23438 0.707031,-0.23438 0.943359,0.23438 1.414063,-0.4707 2.59375,-0.23633 v -0.70703 L 96.5,257.99219 l 0.470703,-0.70703 0.943359,-0.23633 0.472657,0.23633 1.650391,0.47265 1.17773,0.47071 h 0.47266 l 1.65039,0.23632 0.94141,-0.23632 0.70703,-3.53711 0.47265,-0.70703 0.23633,-0.70704 1.65039,-0.4707 0.23438,1.17774 1.88672,2.83007 2.59375,-0.47265 1.65039,-0.70703 0.70703,-0.23438 0.94141,-0.23633 h 2.35937 l 1.64844,-0.23633 h 0.70898 l 0.94141,-0.4707 0.70898,-0.70703 h -0.47265 v -0.47266 -0.70703 l 1.17968,-0.94336 0.23438,-0.70703 0.47265,-1.17773 0.70704,-1.17969 1.17773,0.47266 0.23633,-0.23633 v -0.47071 l 1.17969,-0.94335 -0.23633,-0.70704 1.65039,0.23438 0.94336,-0.94141 h 0.4707 l 0.4707,-1.17968 v -0.70704 h 0.94336 l 0.47266,-1.41406 0.4707,-1.65039 0.94336,-0.23633 0.47071,-0.23632 0.47265,-1.41407 1.65039,-0.94336 -0.94336,-0.70703 -1.41406,-0.4707 -1.41602,-1.17969 -0.70703,-0.94141 0.94336,-0.70703 0.47266,-0.47265 -1.41602,-1.88477 0.23633,-0.47265 1.65039,1.17968 1.17774,0.94141 0.94336,0.23633 1.41601,1.17968 1.17774,0.47071 0.70703,0.23633 0.70703,0.23437 0.23633,1.17969 1.41406,-0.4707 1.17969,-0.47266 v -0.4707 l 3.06445,-0.70704 2.12109,-0.94335 h 0.94336 l -0.4707,-2.1211 -0.94336,-0.70898 -0.23633,-1.17774 v -0.70703 h 0.47266 l 0.23437,-0.23633 0.23633,-1.88476 h -0.4707 l -0.23633,-0.23633 h 0.94336 l 0.23438,-0.23633 v -0.23633 l -0.94141,-0.23437 0.23437,-0.47266 2.59375,-0.4707 2.1211,-0.70703 0.47265,-1.88672 0.70704,-1.41406 1.41406,-0.23633 1.41406,0.47265 0.70703,-0.47265 0.70899,-0.23438 0.4707,0.70703 1.41406,-0.70703 2.59375,1.17774 1.41406,-0.94336 0.94336,0.47265 6.36524,0.47071 1.41406,0.70703 0.47266,0.70703 0.94336,0.23633 1.41406,-0.23633 v -0.94141 l -0.94336,-0.47265 -0.23633,-1.41406 v -0.70704 l 1.65039,-1.17968 0.23633,-1.88477 v -1.17969 l 1.17773,-1.41406 2.83008,-0.94336 -1.17969,-0.94336 0.23633,-0.70703 0.47071,-0.23437 H 179.25 l 0.70703,-0.23633 0.23438,-1.65039 H 179.25 l -1.17969,-1.41407 -0.70703,-0.94335 v -1.41407 l -1.17969,-0.70703 0.47266,-0.23633 0.23437,-1.41406 -2.12109,-0.23633 v -1.17773 l -0.94336,-0.23633 0.70703,-1.41406 -2.12109,-0.23633 4.24414,-4.00781 0.94336,-0.23633 -0.70899,-0.70703 -1.17773,-0.47071 -0.70703,-0.70703 0.94336,-3.30078 v -1.17969 l 0.4707,-0.4707 0.70703,-2.35742 -0.23633,-0.4707 0.70899,-1.17969 2.35742,0.23633 1.65039,0.23633 1.65039,-0.23633 -0.23633,1.88476 v 0.94336 l -0.23632,0.70703 -0.94336,0.47266 0.70703,0.70703 h 0.47265 l 0.23633,-0.23633 0.47071,-0.23633 0.70703,0.47266 v -0.47266 l 0.4707,-0.4707 -0.23437,-1.41406 0.23437,-0.47266 -0.23437,-0.23437 2.35742,0.4707 0.70703,2.12109 v 0.47266 h 0.94336 l 0.4707,0.70703 0.47266,0.47071 0.70703,0.23632 -0.47266,0.94336 0.23633,0.70703 h 0.4707 l -0.23437,-0.70703 h 1.41406 l 0.70703,-2.12109 1.17969,-0.23633 v -0.94336 l 0.4707,0.23633 0.94336,-0.47266 0.23438,-0.23437 0.94336,0.9414 1.41601,-0.23437 -0.23633,-0.47266 0.94336,-1.41406 -0.47265,-0.94336 0.23633,-0.23437 h -0.47071 v -0.47266 l -0.47265,-0.70703 0.47265,-1.17773 2.1211,-1.17969 0.4707,-1.88477 -0.4707,-0.94336 1.65039,-0.47265 0.70703,-0.94141 -0.47071,-0.47266 0.47071,-1.41406 -0.47071,-1.41406 v -0.23633 l -0.94336,-1.88672 -1.41601,-0.4707 -0.70703,-0.23633 -1.41406,1.17969 -0.70704,0.4707 -1.65039,-1.17773 0.94336,-1.41407 0.94336,-0.47265 v 0.70703 h 0.23438 l 1.65039,-2.35742 0.47265,0.23633 1.41407,-0.47071 0.70703,-1.17969 1.17969,-1.17773 0.9414,-1.17969 h 0.47266 l 0.70703,0.23633 0.4707,-0.23633 -1.17773,-2.12109 0.70703,-0.47266 v -0.70703 l -0.4707,-0.4707 0.4707,-0.70703 v -0.23633 l -0.23633,-1.17774 0.70703,-2.12304 0.23633,-0.23438 0.4707,0.23438 0.23633,-0.4707 0.70703,-0.47266 1.17969,0.47266 -0.94336,1.65039 0.4707,0.4707 1.17969,0.23633 1.41406,-0.70703 v -0.23633 l 1.41407,-0.70703 1.65039,-1.17969 -0.47071,-0.94141 v -0.70703 l 0.23633,-0.70898 -1.17968,-0.47071 v -0.4707 l -0.94336,-1.17969 h -0.47071 l -0.47265,1.41407 1.17968,1.88671 -0.4707,0.23633 -0.23633,1.17774 -0.23633,-0.23633 -0.23632,-0.70703 -0.47071,-0.47071 -0.94336,-0.23632 -1.17773,0.23632 -0.70703,0.23633 v -1.41601 l -0.70899,-0.47071 -0.23437,0.47071 0.23437,0.23632 -0.70703,0.94336 v -0.70703 l -0.4707,-0.47265 0.4707,-0.70703 v -1.17774 l 0.47266,-1.17969 0.4707,-0.4707 h 0.70703 l -0.23437,1.41406 0.23437,0.47266 -0.4707,0.70703 0.4707,0.4707 0.70703,-0.70703 -0.23437,-0.94336 0.70703,-0.94336 0.70703,-0.4707 0.94336,-0.70703 h 0.94336 l 0.23438,-0.47266 -0.47071,-0.70703 0.23633,-0.4707 -0.23633,-0.94336 -0.47265,-0.4707 -0.70704,-0.47266 -0.4707,0.94336 -0.23633,0.70703 -0.70703,-0.4707 v -0.70703 l 0.23633,-0.94336 0.23633,-1.17969 1.64844,-2.35742 v -0.47071 -0.70703 l 0.23632,-0.94336 2.12305,0.70703 0.94141,-0.4707 0.70703,-0.70703 v -1.41406 L 212.25391,138 l -0.70703,-0.70703 0.47265,-0.47266 0.23438,-1.17773 0.23632,-0.47266 -0.4707,-0.4707 -1.17969,-0.94336 v -0.70703 l 1.88672,-3.30078 0.94141,0.47265 1.41601,-1.41601 0.47071,-0.70703 -0.23633,-1.17774 0.23633,-0.94336 -0.47071,-0.70703 0.47071,-0.23633 v -0.94336 l -2.1211,-0.9414 -0.70703,0.70703 -0.70703,0.23437 -1.88672,-1.41406 -0.70703,-1.41406 -0.70703,0.23633 0.4707,-2.59375 -0.23633,-0.23633 2.59376,-1.65039 v -0.94141 l -0.47071,-0.47265 -0.94336,-0.70704 -0.70703,-1.41406 v -0.4707 l 1.17774,-0.70899 -0.47071,-2.12109 -2.12109,-0.4707 0.23437,-0.47266 0.94336,-0.23437 h 1.41407 0.70703 l 0.23633,0.23437 1.41406,-0.70703 0.47265,0.70703 h 1.88477 0.23633 l 0.70703,-1.17773 h 1.88672 1.65039 l 0.94336,0.23633 1.17773,-0.70899 h 0.94336 v -0.4707 l 0.94336,-0.70703 1.41406,0.4707 1.17969,-0.23438 0.94141,-0.70703 h 0.70703 l -0.70703,-2.59375 v -1.65039 l 0.47265,-0.70703 v -0.47266 l -0.23633,-0.4707 0.23633,-1.177732 -0.47265,-0.94336 1.41601,0.234375 v -0.707031 l 0.23438,-0.707031 0.70703,-0.707032 -0.94141,-1.177734 -1.41601,-0.472656 -0.47071,-0.470703 -1.17968,0.707031 -0.47071,0.707031 -0.94336,0.236328 -0.4707,-0.707031 h -0.23633 l 0.47071,-1.650391 0.23632,-2.357422 -0.23632,-1.179687 0.70898,-0.234375 -0.47266,-1.179688 -0.23632,-0.236328 -1.17774,-1.65039 -0.70703,-0.234375 h -2.12109 l -0.94336,-0.236328 -2.12305,-0.236329 -1.17773,-0.941406 -0.47266,-1.179687 -0.4707,-2.121094 0.70703,-1.886719 -0.23633,-0.943359 v -0.234375 l -0.70703,-0.94336 0.94336,-1.179687 -0.70703,-1.650391 -0.70704,0.236328 -1.65039,1.414063 -1.88671,-0.470703 h -1.17774 l -0.94336,-1.414063 -0.70703,1.414063 -0.23633,2.121094 -0.23633,1.179687 -0.4707,1.177735 H 206.125 l -0.94336,-0.234376 h -0.70703 l -0.70703,0.707032 -1.17969,-0.472656 -1.17773,0.236328 -1.41407,-0.470704 -0.94336,0.470704 -1.17968,2.121093 -0.94336,-0.470703 -0.94141,-0.707031 h -0.70898 l -0.23438,0.707031 0.23438,0.94336 -0.70703,0.941406 -0.23438,1.179687 -2.12305,0.236329 -1.88476,0.470703 -2.35742,-0.707032 -1.88672,-0.236328 -2.1211,-0.234375 -1.88672,-0.472656 -0.4707,-0.943359 h 0.4707 l -0.4707,-0.941407 0.4707,-1.65039 -0.70703,-0.707032 0.23633,-1.65039 -1.41601,-1.179688 -1.17774,-0.236328 0.70703,-1.177734 2.35742,-0.707031 2.59376,-2.357422 -1.41407,-2.59375 -0.23633,-1.650391 -1.17968,-0.943359 -2.5918,1.179687 -0.70898,0.236328 0.70898,-1.65039 0.4707,-1.650391 2.1211,-1.414062 0.23632,-0.708985 -0.4707,-0.470703 -1.41601,-1.177734 v -1.179688 l 0.94336,-0.470703 0.94335,-1.886719 -0.4707,-0.236328 -0.70898,-0.941406 -0.47071,-0.708984 v -0.707032 l -0.70703,-0.707031 -0.70703,-2.357422 -0.23633,-1.177734 v -1.414063 l -0.94336,-0.472656 -0.70703,-1.650391 -1.41406,-0.234374 0.23633,-1.179688 v -1.414062 l -0.94336,-1.179688 -1.88672,-0.470703 -1.17773,-0.943359 v -1.177735 l 0.4707,-0.943359 v -0.94336 l -1.88672,0.236328 -0.70703,-0.707031 -0.70703,-0.236328 -1.41406,0.707031 h -2.35743 l -1.65039,0.707032 -0.4707,-0.236328 -1.17969,-0.234376 -0.70703,0.470704 h -0.94336 l -0.4707,-0.470704 -0.94336,-1.179687 -1.41406,-0.470703 -1.17969,0.943359 h -1.41406 l -1.88672,0.470703 -1.41406,0.707032 -0.94336,0.707031 -1.17774,-0.470703 -0.94336,-0.707032 -0.70703,-1.179687 -1.41406,-0.707031 v -1.177735 l -0.23633,-0.707031 v -1.886719 l -0.94336,-1.414062 -1.17969,-0.707031 -0.4707,-0.94336 -2.12109,-1.179687 -0.70703,-0.707031 -0.47266,-0.94336 -0.4707,0.236328 -3.53711,0.707032 -0.23438,-0.470704 -0.70898,-0.472656 -1.17774,0.236328 -2.59375,-0.943359 -1.88672,0.707031 -0.70703,-0.234375 -0.4707,-0.707031 -0.23633,-0.707031 -0.70703,-0.472657 -0.4707,-0.470703 -0.70703,-0.472656 -1.65039,0.707031 -1.17969,0.94336 -0.23633,0.943359 -0.4707,-0.236328 -1.41407,-0.707031 -0.70703,-0.470704 -0.70703,-0.707031 -1.17969,-1.179687 -1.88671,-1.177735 h -0.94141 l -1.41602,-1.886718 -2.12109,-0.470703 h -0.94336 l -3.06445,-1.886719 -1.17774,0.236328 -1.41601,0.236328 -1.17774,-0.236328 -1.41406,-0.707031 -2.83008,-0.94336 -0.4707,-1.179687 -1.416016,-0.707031 h -0.470703 z m 111.039059,120.464848 1.88672,0.4707 -0.47265,0.94336 0.23632,0.23437 -3.53515,-0.23437 -1.65039,-0.94336 -0.23633,-0.23633 z m 3.06446,34.65234 0.47265,0.94336 h -0.47265 l 0.94336,0.47266 0.23632,0.70703 0.94336,-1.65039 -0.70703,-0.47266 -0.47265,0.70898 -0.47071,-0.70898 z" />


    </g>
  <script type="text/ecmascript">
    <![CDATA[
        function provinceClicked(provinceId) {
            var province = document.getElementById(provinceId);
            if (province) {
                // Guardar el color original
                var originalColor = province.style.fill;

                // Guardar el viewBox original
                var svg = document.getElementsByTagName("svg")[0];
                var originalViewBox = svg.getAttribute("viewBox");

                // Cambiar el color de la comarca pulsada
                province.style.fill = "white"; // Cambiar a color rojo

                // Hacer zoom en la comarca
                var bbox = province.getBBox();

                // Calcular el centro del bbox
                var centerX = bbox.x + bbox.width / 2;
                var centerY = bbox.y + bbox.height / 2;

                // Establecer un margen adicional para el zoom
                //var margin = 1000; // Puedes ajustar este valor según sea necesario
             //   var newWidth = bbox.width + margin * 2; // Ancho con margen
             //   var newHeight = bbox.height + margin * 2; // Alto con margen

                // Establecer el nuevo viewBox centrado en la comarca
               // svg.setAttribute("viewBox", (centerX - newWidth / 2) + " " + (centerY - newHeight / 2) + " " + newWidth + " " + newHeight);

                // Enviar el color original y el viewBox original al Android
                Android.showProvince(provinceId, originalColor, originalViewBox);
            } else {
                console.error("No s'ha trobat la provincia amb ID: " + provinceId);
            }
        }
    ]]>
  </script>
</svg>
