<svg
    viewBox="0 0 425 400" width="100%" height="100%"
    id="provinvies"
    version="1.0"
    xmlns="http://www.w3.org/2000/svg">

    <style>
        /* Asegúrate de que el SVG ocupe toda la pantalla y se centre */
        html, body, svg {
        width: 100%;
        height: 100%;
        display: flex;
        justify-content: center;
        align-items: center;
        margin: 0;
        padding: 0;
        fill: #9ea9ba;
        }
        /* Ajusta el estilo de las rutas si es necesario */
        path {
        stroke: black; /* Bordes negros */
        stroke-width: 1;
        }
    </style>
    <g
        id="mapa"
        transform="translate(375.16408,1970.3131)">
    <path
        style="fill-opacity:1;fill-rule:nonzero;stroke:#000000;stroke-width:0.334084;stroke-miterlimit:4;stroke-dasharray:none;stroke-opacity:1"
        d="m -288.45207,-1956.5502 -1.72611,0.5006 -1.32156,2.3981 -0.13483,0.2108 -1.24063,0.8695 0.13483,4.1374 -0.2427,1.4757 -2.26549,2.8195 -0.054,0.817 1.88792,1.2121 -0.45853,1.6602 -0.35058,0.4743 -0.10788,0.975 1.02486,1.9237 0.16183,1.0277 0.1348,0.975 0.86305,1.8183 -0.0539,3.0831 0.83611,1.7656 -0.0809,1.2122 h -0.29663 l 0.24269,1.0541 0.48544,0.9485 1.7261,1.9501 0.37757,1.1857 -0.1618,1.2122 0.56641,1.0278 v 1.2648 l 0.67422,1.1331 0.97093,0.7379 1.18668,0.3426 0.944,0.8168 1.29456,0.1055 1.15967,-0.4216 1.59129,0.5006 0.59334,0.7642 v 0.7643 l -0.13489,0.8169 -0.62026,0.5534 -0.29674,1.7392 0.081,0.9223 -0.16184,1.8446 -0.5664,1.5284 -0.59335,0.5797 -0.7821,1.502 -0.24277,0.8169 v 0.817 l -0.78209,0.2898 -1.18669,1.1331 -0.2697,0.9487 0.48547,0.6851 0.88997,0.896 0.13488,1.3175 -2.13068,1.4231 -1.18669,-0.6588 -1.15967,0.4479 -0.59335,1.1332 0.0269,1.1594 0.53942,1.0015 1.32156,1.1595 v 0.7641 l -0.80908,0.7378 0.35054,0.7906 -0.054,1.0541 0.72824,0.6587 0.1348,0.8169 0.78217,0.2372 0.56634,0.7906 0.86304,0.4743 0.29672,0.7379 0.48547,0.7378 0.35057,0.7642 0.18883,0.9487 -0.10788,0.896 0.35056,1.6074 0.51249,0.9223 -0.3776,0.7905 0.40453,0.8169 -0.45847,0.7642 0.48547,1.0804 -0.13489,0.896 0.35065,0.7641 -0.75516,3.5575 0.24267,0.8433 v 0.7642 l 0.48549,0.6852 v 0.8168 l -0.75518,0.448 -0.48545,0.7115 -0.0809,0.817 0.70122,0.4479 -0.13489,1.581 -0.53939,0.5798 -0.21578,0.7906 v 0.8169 l 0.59335,0.6851 -0.24268,1.5548 -0.35067,0.8696 -0.56632,0.7114 0.10787,0.817 -0.24277,0.7906 -0.62026,0.8169 -0.35066,0.7642 -0.67421,0.5005 -0.24278,0.7643 -0.1348,0.9223 v 0.896 l -0.45855,0.6851 0.081,0.9486 -0.21578,1.5548 -0.97092,1.6338 0.0809,1.2386 -0.80911,1.581 v 0.7906 h 0.80911 l 1.18669,0.4217 -0.0269,1.1067 -1.10582,0.6325 -0.83604,1.0803 0.18876,1.2122 v 0.896 l 0.59333,0.6324 -4.31522,13.3867 -0.88998,0.8432 -1.64522,2.2136 0.56642,0.5534 -2.64308,4.7432 -1.10581,1.0277 -0.72817,1.0015 -0.21575,0.8958 -0.027,0.079 -0.29663,0.7906 -0.5664,0.7378 -0.75518,0.369 -1.13274,-0.2899 -1.29456,0.7906 -1.56428,2.1608 -0.91699,0.9487 0.21576,1.1857 1.07881,0.4481 0.78217,0.9486 1.78003,0.7906 0.10789,0.448 0.18874,0.7641 0.027,1.1595 -0.21577,2.3189 0.40451,1.4494 0.43152,0.9223 -0.78209,1.1067 -1.83398,1.0278 0.24269,0.8169 -0.054,0.3953 -1.51033,0.3953 -1.40245,-0.1317 -0.94392,0.9485 -0.21576,1.1068 -0.027,1.2386 -0.56635,1.1594 -1.13274,0.5534 -1.18669,-0.052 -1.29456,0.2636 -1.15975,0.4216 -3.15547,4.0054 -0.48548,1.0279 -0.10787,1.3701 -0.26971,1.1068 -0.70123,0.896 -2.67008,0.5796 -2.40029,0.2373 -1.53735,0.448 -1.0518,0.527 -0.91699,0.7905 -0.37757,1.1594 0.62026,1.0278 -1.29456,-0.1317 -1.0518,0.7905 -0.72825,1.2123 -0.18874,1.2121 -0.37759,1.1068 -1.15976,0.527 -0.94392,0.9487 -1.02486,0.6587 -0.75517,1.1595 -0.91697,0.7906 -0.67432,1.0276 0.43154,1.1069 0.21575,1.1595 0.59335,1.3438 0.3776,1.1068 2.07674,1.9501 0.0809,1.2121 -0.7821,0.9224 -0.13489,1.1595 0.944,2.2662 1.21361,0.5006 1.2137,-0.1844 2.5352,0.6324 1.40245,-0.5006 2.31943,-0.052 1.0518,0.8432 0.13489,1.2913 -0.86303,1.2385 0.0269,1.1331 0.32366,1.1859 1.83396,1.6337 0.10788,1.1594 -0.91699,0.817 -2.21155,2.6878 -1.05179,0.896 -0.62037,1.0805 -0.53939,1.3175 -0.35059,1.1595 -2.31942,0.975 -1.18669,0.1318 -1.15975,-0.1318 -1.24063,0.3426 -0.83603,1.6074 0.0809,0.7906 0.89006,1.3703 0.16183,0.8959 v 0.7906 l -0.13491,0.9487 -0.59333,1.502 0.2967,0.8433 -0.10787,0.8959 -0.72825,0.5534 -0.18874,0.8169 0.10788,0.7905 -0.35065,0.7906 -0.26972,0.2371 -1.24062,0.9224 -0.56632,0.6587 -0.6743,1.0541 0.70122,0.8169 1.15976,0.7906 3.3443,1.8709 0.59334,1.2386 0.917,0.8696 -0.027,1.1594 -0.64727,0.975 -0.62028,0.2373 -0.0809,-0.1055 -1.24064,1.1595 -0.45844,0.6851 0.32365,0.7642 0.78209,0.3426 0.62035,0.5534 0.78209,0.2108 0.4046,0.7906 -0.56642,1.6074 -0.75516,0.5007 0.48546,0.2108 0.83612,0.9223 0.21575,1.2385 0.67422,1.3703 -0.67422,0.9224 -0.2697,1.1857 0.29663,1.2122 -0.21576,1.1858 -0.0269,1.2912 -1.15975,0.3953 -0.56634,1.0541 -0.94401,0.7379 -2.31942,-0.026 -1.29459,0.9222 -0.67419,0.9223 -0.51248,1.1068 -0.59336,2.2662 0.26972,1.3177 -0.40451,1.133 -0.13491,1.1595 -0.29662,1.1859 -0.89007,0.7905 -2.07665,1.3439 -1.40244,0.2635 -1.10584,-0.3953 -0.75517,1.1332 0.027,1.1594 -0.80911,0.8696 -1.15977,0.1055 -1.05178,-0.817 -1.15977,0.1845 -0.94392,0.9223 -0.21575,1.1068 0.0809,1.3703 -0.37758,1.1595 -0.21577,1.2122 0.45855,1.1067 2.07666,1.5021 -0.86306,1.502 0.027,1.2385 0.99783,0.5797 0.3776,1.0805 -0.72815,1.1594 0.70121,1.0014 1.0518,0.5797 1.10583,-0.5269 1.15967,0.1844 0.37759,1.2649 1.26764,0.2634 1.15967,-0.1317 0.6743,1.0277 -1.05189,0.817 -1.05177,0.3952 v 1.1595 l 1.10571,0.6587 0.027,1.1332 0.91698,0.896 0.45846,1.054 0.21576,1.1858 1.13275,0.6062 -1.0518,0.7642 -0.37758,1.1857 -0.80911,0.9751 -0.56642,1.0013 0.37759,1.1594 -1.88792,1.6603 -0.37759,1.1068 0.081,1.2648 -0.6473,1.1331 -0.89005,2.2135 -0.24269,1.1332 1.6182,1.8183 0.0269,1.1331 -0.40453,2.2398 0.53941,1.0014 1.53726,2.0819 0.5394,1.0012 -0.37758,1.1068 -0.8091,1.0015 -1.26755,2.029 -0.91701,0.8696 -1.0788,0.6061 -0.48545,2.4243 -0.917,0.9224 -1.40246,0.606 -1.02486,0.6325 -2.31943,0.9486 -1.13274,-0.026 -0.13489,1.1332 -1.02488,0.5533 -0.8091,-0.8696 -0.37759,1.2384 0.91699,0.6589 0.45853,1.4494 0.78211,0.4216 1.15975,0.053 1.26756,0.606 1.05187,-0.6588 0.91699,-0.7905 1.0518,-0.4743 0.21575,1.4493 0.10788,2.2662 0.6743,1.0278 0.43153,1.054 1.15967,-0.606 1.15976,-0.4217 2.26549,1.1067 1.86092,1.713 0.80909,0.9223 -0.80909,0.9222 -0.97094,0.7379 -0.67421,0.9223 -0.62036,1.0541 -0.24269,1.0803 1.15968,2.1083 0.78217,0.9222 1.13275,0.5798 1.15968,0.027 1.05188,0.448 0.91698,0.8432 1.13275,0.3953 1.24064,0.1582 2.18454,0.7377 2.4004,0.448 h 2.4273 l 0.91698,0.7906 0.88998,1.2122 0.91698,0.9222 1.05188,0.6062 1.0518,0.448 0.5394,1.0013 -0.59334,1.1067 0.43152,1.1332 0.21576,1.1858 0.91699,0.7906 1.15977,0.7378 1.13274,-0.079 1.07881,0.6851 1.32149,0.3426 1.1867,0.5007 0.97091,0.5535 1.61821,0.6851 v -0.079 l 0.43153,-1.9237 2.75096,-5.0068 1.4564,-1.1858 2.53519,-3.4257 2.26549,-1.9236 1.40246,-1.7394 0.78217,-0.2898 3.96459,-0.448 2.07673,-0.1581 1.51033,-0.1054 1.53725,-1.3439 2.77797,-0.026 0.78209,-0.3689 2.10369,0.2898 0.97091,0.3953 0.1079,0.5533 -1.96878,3.8473 -1.96887,1.9501 -0.75517,0.7115 -0.72815,0.2109 -1.53733,-0.2109 -0.80911,-0.5006 -1.88792,0.1054 -0.5124,0.3952 -0.29671,0.7379 -1.26754,-0.29 -2.34646,0.3689 -1.0518,-0.2371 -0.6743,1.0014 -0.75517,-0.027 -0.16181,0.5006 0.18884,0.8697 1.94186,0.8695 1.78003,0.6588 0.32363,-0.027 0.75518,-0.053 2.96671,0.5008 1.48332,-0.8961 1.83397,-1.4756 2.10368,-2.0555 2.69701,-4.2162 1.91492,-3.7682 0.0269,-0.027 0.10788,0.1845 0.027,-0.052 0.26971,-0.1844 0.0269,-0.053 v -0.079 l 0.027,-0.027 h 0.0809 l 0.26971,-0.3953 -0.0269,-0.079 0.83602,-0.6061 3.15556,-1.502 0.0809,-0.8696 0.32363,-1.3176 0.51248,1.1595 1.34851,-0.8697 3.58698,-0.3425 1.26765,-0.6062 0.67421,-0.6059 -0.0809,-0.8433 0.83603,-0.4481 0.83612,-1.2122 1.15967,-1.0276 1.45638,-1.3176 0.62037,-1.344 -0.64728,-1.7918 -0.75517,-0.8697 -0.51248,0.027 v 1.3176 l -0.32363,0.6851 -1.10576,0.9486 h -0.027 v -0.1054 l -0.35058,-0.1317 -0.0539,0.079 v 0.053 l -0.0809,0.027 -0.054,0.027 -0.0269,0.053 -0.13489,0.053 -0.10789,0.027 h -0.054 -0.0809 l -0.21577,0.053 -0.0809,0.053 h -0.0269 -0.0809 l -0.21577,0.053 h -0.0809 -0.027 l -0.10786,0.026 h -0.0809 -0.027 l -0.0809,0.053 -0.16181,0.053 -0.0539,0.027 h -0.0809 -0.0269 l -0.0539,0.053 -0.0809,0.053 -0.16183,0.027 -0.0269,0.052 h -0.054 -0.027 l -0.054,0.053 -0.0539,0.027 -0.13481,0.052 -0.99794,0.29 -0.83603,0.6061 h -0.027 l -0.0269,0.027 -0.21574,0.053 -0.027,0.052 h -0.0539 -0.0269 l -0.081,0.027 h -0.0539 -0.0269 l -0.0809,0.053 -0.18877,0.052 -0.027,0.027 -0.0269,0.052 h -0.0539 -0.0539 l -0.081,0.027 -0.0269,0.053 -0.081,0.052 -0.0809,0.027 -0.054,0.052 -0.0809,0.053 h -0.0269 v 0.079 l -0.0809,0.027 -0.054,0.027 v 0.079 l -0.0809,0.027 -0.0809,0.027 v 0.079 l -0.0269,0.1318 h -0.13489 v 0.053 l -1.37545,0.3953 -1.99578,0.079 -0.67431,-0.2372 -1.64513,-0.5533 -0.99793,-0.7642 -0.0269,-0.027 -0.027,-0.052 h -0.0809 l -0.21576,-0.053 -0.0809,-0.027 h -0.054 -0.0269 l -0.21577,-0.027 h -0.027 -0.18874 -0.10789 -0.054 -0.0809 -0.10789 -0.0808 l -0.35066,-0.053 -2.13061,-0.7378 -2.29251,-0.2636 h -0.35057 v -0.053 h -0.0809 l -0.0269,-0.053 -0.0539,-0.026 v -0.1054 h -0.0809 v -0.079 h -0.0809 l -0.027,-0.1318 -0.0269,-0.027 -0.081,-0.026 -0.054,-0.027 v -0.1054 l -0.10786,-0.027 -0.10789,-0.027 v -0.079 h -0.0809 l -0.0809,-0.053 -0.0269,-0.027 -0.1349,-0.027 v -0.079 l -0.0809,0.027 -0.13489,0.027 v -0.079 l -0.18877,-0.027 h -0.0809 -0.0539 l -0.24269,-0.026 h -0.13489 -0.0809 -0.0809 l -0.0809,0.052 h -0.054 -0.24277 -0.10789 -0.13481 l -0.24277,0.053 h -0.054 -0.0809 l -0.0809,0.052 -0.21577,-0.1845 -0.99786,0.079 -4.04553,1.1859 -1.80705,0.7378 -3.34428,-0.3689 -0.0269,-0.6852 0.62026,0.1846 1.15977,0.3689 1.24063,0.052 6.17612,-2.0291 2.13069,-0.3689 0.70122,0.079 1.75302,1.133 4.04554,0.9224 2.13069,0.2372 3.18247,1.8445 1.51033,0.052 4.98944,-2.3716 2.72403,-1.0014 0.18875,-0.3162 -0.16183,-0.4743 -2.50817,-0.7642 -2.07675,-2.2135 -1.9958,-2.5562 -3.10153,2.2663 -2.2925,0.4217 -1.96878,-0.1055 -2.34646,0.9223 -0.29663,-0.1582 2.3734,-1.5019 1.56425,0.1845 1.80696,-0.5271 1.15976,-0.052 0.97092,-0.5008 1.37546,-1.2913 0.35064,-0.685 -0.97093,-2.0292 -0.72823,-0.5797 -1.75303,-0.5797 -1.91491,-0.2371 -0.56634,0.2108 0.917,0.6588 0.26969,0.079 2.45425,0.7643 0.43152,0.3162 0.10788,0.4743 -0.48546,0.5534 -2.56212,0.5007 -0.99795,-0.1054 -1.67216,-0.6852 -0.83603,-0.606 -1.13274,-1.2913 -1.42945,-1.6338 -0.37758,-1.0277 0.21575,-0.6325 1.48339,-1.6074 0.94392,-0.3163 1.51034,-1.7655 0.26969,-1.1067 1.40245,-1.871 2.67009,-1.6075 1.69909,-1.5811 0.5394,-0.8433 1.26764,-2.1344 1.88791,-1.7129 1.86091,-3.1095 1.13275,-1.1067 2.50826,-3.9001 2.69703,-2.1081 1.07881,-1.3967 0.29662,-0.3953 1.24063,-1.1595 0.78217,-1.3438 0.64729,-0.1845 0.6742,0.3953 0.4046,-0.1055 1.26755,-1.8446 0.4046,-1.1331 1.10575,-1.3966 3.50611,-3.5048 1.40246,-0.9224 2.0228,-0.7642 0.40451,-0.2897 0.86304,-0.6061 1.64523,-0.5798 3.99159,-0.8169 1.0788,0.3689 0.75517,-0.079 3.12853,-1.3703 1.32151,-0.2107 2.02281,0.1053 1.0518,0.2899 0.94399,1.0278 0.56632,0.1053 0.59336,0.896 0.89006,0.5535 0.56632,0.1317 1.0788,-1.4494 -0.18874,-1.5548 0.37757,-1.1594 0.91701,-1.0804 1.26755,-1.0805 2.45433,-2.0554 2.64307,-0.7115 3.74881,-0.5798 0.94401,-1.1594 0.91698,-0.158 0.94392,-0.5798 2.56221,-0.5007 0.75516,0.2635 1.1867,0.027 1.37542,0.4479 0.62037,-0.3162 0.80909,-0.027 1.15969,-0.606 1.56426,-0.8697 1.67215,0.4216 0.16182,-0.1054 0.917,-0.4215 2.0228,-1.6338 0.5394,-0.2899 5.90644,-3.0831 1.4834,-0.027 2.48125,-0.7642 2.72395,-1.2385 3.58707,-0.8169 5.50192,-1.0013 2.18455,0.2107 0.75517,-0.079 0.48546,-0.053 1.99578,-0.8696 4.39619,-0.6062 2.02272,-1.3438 1.6182,-0.448 1.51034,-0.896 1.21369,0.027 6.04132,-1.2912 1.24063,-0.3689 2.04975,-1.3966 1.94185,0.2371 1.15968,-0.3689 2.1576,0.1581 2.26551,-1.581 0.59333,-0.2108 h 1.69917 l 3.53305,-1.792 2.13069,-0.5797 0.62028,-0.1582 4.42309,-0.8168 6.2841,-0.2899 6.98525,-2.1082 1.53734,-0.6852 3.0746,-1.3438 3.29035,-2.9778 0.72814,-1.5548 0.18886,-0.8168 0.48546,-1.95 0.62026,-2.5825 2.07675,-2.3454 0.18874,0.4217 -0.6742,1.2913 0.37757,0.1054 1.18669,-1.4231 0.86305,-2.2925 1.02486,-1.871 2.07666,-2.1081 1.64523,-2.0818 0.48546,-0.8169 0.18877,-0.3426 1.375506,-2.398 0.78209,-1.3175 1.56426,-1.3176 0.72825,-0.448 2.750956,-1.7129 4.207343,-1.2121 3.61401,-1.344 4.989433,-2.9513 2.535202,-1.8447 5.20529,-3.7946 1.213624,-0.8696 4.234353,-1.3176 1.968777,-1.5285 3.128545,-1.8182 h 1.105824 l 1.968778,-1.054 3.344312,-1.0014 1.321576,-0.8959 0.593343,-0.369 3.128544,-1.0014 2.049724,-1.1594 3.155482,-0.9486 7.147129,-3.9264 2.616062,-0.5271 0.701228,-0.1581 0.48546,-0.3163 -1.645126,-2.0553 -0.566424,-0.6853 -0.242687,-0.2898 -0.782175,-1.9764 -1.29457,-1.1858 -1.078804,-0.9487 0.269692,-0.1581 0.836117,0.5534 1.267565,0.8697 1.375518,2.7405 0.05394,0.1054 0.512397,0.6062 0.728232,0.8959 0.863052,0.6588 0.539402,-0.448 0.350572,-0.8696 0.431518,-1.1068 2.076745,-1.2648 1.429376,-1.5548 3.371317,-1.3176 2.939713,-0.2635 0.944,-0.7115 1.159667,0.052 1.213708,-0.975 0.593344,0.2108 0.863037,-0.079 2.454253,-1.3175 1.321576,-1.0541 2.966718,-3.0568 1.294572,-1.7656 1.2406291,-1.0277 0.809112,-0.1845 0.782089,-0.1581 0.18883,-0.1843 v -2.0028 l 0.08086,-0.027 0.593344,-0.2371 2.022803,-0.1582 0.431535,-0.9223 1.132746,-0.1844 1.1866868,-1.3439 1.1327456,-0.4217 0.7012281,-2.2925 0.6472847,-1.8974 3.7488092,-3.9 1.4834011,-0.8432 1.0788033,-0.3426 0.1078836,-0.027 0.5933434,0.8697 0.4315186,-0.052 1.483317,-0.896 0.080966,-0.9488 0.2966305,-0.3162 0.485458,-0.5533 0.404599,0.052 0.377577,0.079 1.780031,-0.2635 0.674222,-0.3163 0.350657,-0.6587 0.566322,-2.5562 1.024861,-1.1594 1.375535,-0.2372 0.29663,-0.052 0.431518,-0.817 -0.05394,-0.3425 -0.08086,-0.3426 0.242688,-1.502 0.350655,-0.8433 0.593345,-0.2898 0.188745,-0.9751 -0.134804,-1.054 0.269693,-1.5021 0.647285,-1.1331 0.593345,-0.369 v -0.8695 l -0.431519,-2.1609 -0.647285,-0.7114 -1.051884,0.026 -1.267549,-1.2649 -0.728233,-1.0278 0.242772,-3.1358 -0.05394,-0.7115 -0.539402,-1.1067 -0.970937,-0.6588 -2.346438,0.027 -3.5600794,-1.0806 1.1866874,-0.079 3.425259,0.5798 2.481259,-0.2635 0.134821,-3.2677 0.296714,-0.8169 0.593343,-0.2371 0.566322,0.2898 0.674307,-0.7642 -0.755169,-2.398 -1.887914,-3.1358 -0.431518,-0.5797 -1.051884,-1.4493 -0.970938,-0.1054 -0.08086,-0.4744 0.323652,-0.6852 -0.485477,-0.6851 -1.132745,0.026 -0.997943,-0.8432 -0.539402,-0.052 -0.5663215,0.6852 -0.3775931,-0.052 -0.1078668,-1.1594 -1.3755343,-0.7379 -0.7012281,-0.7379 -0.4584382,-1.1858 -0.242772,-1.7655 -0.3505714,-2.3716 v -2.3454 l -0.3506566,-1.2385 0.053942,-1.2649 -0.4045138,-0.7642 -1.4834022,1.5811 -0.9709375,0.3163 -0.6472847,0.7114 -0.7551525,0.7906 -1.5912006,0.079 -0.944,1.0804 -1.4563974,0.8697 -0.1078825,-0.2636 1.07882,-1.0014 0.7821741,-1.1858 2.0766605,-0.2372 0.5664238,-0.8959 v -0.027 l 1.5103218,-0.6852 1.6451419,-1.8183 0.4585401,-0.2371 0.7012102,-1.1332 0.9439159,-3.7419 -1.4563805,-0.896 -0.2966292,-0.527 0.4045138,-0.079 1.5912679,0.5797 1.8339726,-1.95 1.9687953,-1.5812 0.863035,-0.3425 h 1.130945 l 0.323652,0.4743 0.431518,0.6324 0.02701,1.0542 0.377577,0.4743 1.348513,0.1318 1.72609,1.5283 0.539402,0.079 0.836031,1.1331 0.431518,-0.6588 0.45854,-0.6851 0.134803,-1.4756 0.188848,-0.2109 0.70121,0.2109 0.458455,-0.2373 0.296716,-0.1844 0.02693,0.079 0.458523,1.3438 0.647286,0.4481 1.321507,0.079 0.296715,0.1845 0.21575,-0.5007 -0.21575,-0.2635 -0.944,-0.3426 -0.269709,-1.1595 2.750968,-0.6587 0.836116,-1.1068 0.458438,-0.9487 -1.159665,-1.7128 0.05394,-0.8169 0.188746,-0.369 0.701227,0.2635 0.916978,0.3162 0.242772,-0.5797 -0.943999,-0.8168 -0.05394,-0.448 0.80911,-0.975 -0.29663,-0.3689 0.161827,-0.3426 0.809111,-0.1845 0.970919,-1.3176 1.564263,-0.4743 0.161827,-0.5007 -0.134889,-0.2898 -0.836031,-0.1055 -0.431536,-0.5534 h -0.890057 l -0.620264,-0.4216 -0.809111,0.369 -1.132746,-1.2912 -0.134888,-0.6061 -0.809112,-0.027 -0.916978,-0.817 -0.215767,0.052 -0.29663,0.9224 -0.593344,0.053 h -0.134888 l -0.593344,0.7378 -0.323652,-0.5269 -0.593343,-0.2372 -0.431518,-0.5534 0.107884,-0.9487 -0.566339,-0.6588 -1.375518,0.2108 -0.701227,-0.5007 -0.674206,0.3953 h -1.132746 l -0.26971,0.6852 0.26971,0.8696 -0.485477,0.6325 -0.377576,-0.027 -1.564263,-1.6075 0.269691,-0.7379 -0.997942,-0.2635 -1.672146,-1.8182 0.323651,-0.6325 -0.107884,-0.3426 -0.728148,-0.1316 -0.296731,-0.3164 0.134905,-0.2634 -0.350655,-0.9223 0.21575,-0.8169 0.755168,-0.896 -0.134803,-0.2109 -0.620365,0.053 -0.269692,-0.4217 0.944,-1.4229 -0.350656,-0.2372 -0.620282,0.1318 -0.05393,-0.2899 1.591185,-1.7393 0.215768,-0.9749 -0.188747,-0.3953 -0.647285,-0.1054 -0.18883,-0.3689 1.051884,-1.0014 -0.755171,-0.2636 -0.458539,-0.1317 -0.02692,-0.027 -1.213709,-0.052 H 10.43028 l -1.6991691,-0.027 -1.2945715,-0.2108 -0.620263,0.052 h -0.701227 l -0.6742906,0.4744 -0.5933434,0.5534 -0.1078846,0.2635 -0.5394022,0.2635 -0.5663386,-0.1317 -0.5933445,-0.1318 -0.6742895,-0.2108 -1.1866879,-0.9488 -0.4045137,-0.1844 -0.8361154,-1.4492 -0.4315354,-0.29 -0.863035,-0.6588 -0.2697106,-0.2898 -0.5933434,-1.3703 -0.4045138,-1.0541 -0.3506545,-1.054 -0.2966302,-0.1582 h -0.538197 l -0.809094,0.4744 -1.240629,0.7378 -0.48546,-0.052 -0.377593,-0.027 -0.431519,-0.369 -4.3152321,1.265 -1.024861,-0.4744 -1.699169,-0.052 -2.858835,1.6864 -0.809111,0.2372 -1.321492,0.1581 -3.182486,-0.4743 -1.159767,-0.1582 -0.943899,0.079 -0.485477,0.3162 -0.620349,0.4217 -4.450035,4.2163 -1.132746,2.3189 -0.836132,0.5534 -2.508179,0.027 -3.99158,-0.9751 -1.159767,0.053 -2.373375,0.5797 -1.456398,0.3689 -2.184528,1.3967 -2.346454,2.3452 -0.997857,0.6853 -0.512483,0.7642 0.647287,2.1344 1.860995,1.9763 0.539402,0.8697 0.107883,0.6588 -0.215768,0.4743 -0.809094,0.4744 -1.510338,0.2372 -1.456397,-0.2108 -1.078804,-0.1582 -4.207347,-1.423 -3.506122,-0.5798 -1.591284,0.027 -3.263349,2.0818 -1.699169,0.2108 -1.348513,-0.3425 -1.645125,-0.052 -1.240629,-0.7117 -3.883715,-2.2134 -0.809094,-0.4744 -0.269709,-0.5533 -0.027,-0.027 -0.75517,-0.5797 -2.83183,-3.3467 -8.414695,-2.925 -0.323654,-0.1582 -1.483403,-0.7642 -2.91277,-2.0027 -6.176134,-0.7642 -2.454326,0.4217 -1.37544,0.6061 -1.13275,1.0013 -1.69917,0.6061 -1.05178,0.053 -0.89006,-0.3689 -1.59119,-0.6324 -3.15557,-0.2371 -2.21154,2.3452 -2.64307,4.2163 -2.21157,2.0291 -2.80489,1.5284 -1.34851,0.3162 -1.42938,0.3425 -1.75312,0.1581 -1.99578,-0.1845 -1.24063,-0.3952 -0.83603,-0.8169 -3.37132,-1.7392 -0.8091,-0.7905 -0.67422,-1.5548 0.10788,-1.95 -0.43151,-1.423 -0.56643,-1.8446 -0.43152,-0.7905 -0.24269,-0.448 -0.027,-0.1054 -0.10786,-0.6061 -0.0809,-0.3163 -0.45852,-0.5534 -0.75517,-0.9749 -1.42938,-1.1068 -1.45639,-0.1581 -0.5394,0.3162 -0.64728,0.369 -1.05189,-0.079 -4.66579,-2.8987 -1.78004,-1.871 -2.13068,-1.3966 -7.28194,0.053 -0.3776,-0.1317 -3.61401,-1.1331 -0.99785,-1.0015 -2.67009,1.8447 -1.10572,-0.1844 -2.21156,-1.5548 -0.45856,-0.027 -0.29662,0.3426 -0.62034,2.0818 0.13488,0.527 -2.21155,2.4508 -2.18463,0.2898 -3.0746,1.2912 -1.72609,1.1068 -2.1576,-0.1844 -2.85885,2.3453 -3.77584,0.7642 -0.26969,0.052 -4.85463,-0.5798 -0.26971,-0.026 -0.18875,-0.079 -0.1618,-0.053 -0.72826,-0.2371 -1.48331,-1.1594 -0.51247,-3.1622 -2.13059,-2.4508 -0.081,-0.3953 0.21576,-0.8958 3.39824,-2.7934 0.35065,-0.527 0.18875,-0.9223 -0.0809,-0.7116 -1.91491,-3.1621 -0.78212,-0.2108 -1.53733,0.2898 -0.62028,-0.3162 -0.24276,-2.0553 0.89006,-1.6075 0.43151,-1.8709 -0.72822,-1.9238 -0.0269,-0.6325 1.10575,-0.8432 0.51249,-1.5021 -3.02068,-7.5892 -3.50611,-6.0608 -2.64308,-1.871 -0.6743,-0.7115 0.027,-1.1332 -0.45854,-0.6588 -0.97092,-0.5798 -1.56427,-0.053 -6.01431,-0.027 -3.91071,0.3952 -2.34638,-0.8431 -1.05188,-0.079 -2.53519,0.685 -1.21363,0.527 -2.1576,0.9488 -0.78217,0.079 -1.40246,-0.3162 -2.37336,-2.0027 -1.05182,-2.0291 -0.62034,-2.3189 -0.72816,-0.7643 -0.10788,-0.079 -2.91279,-3.3466 -1.29457,-1.0541 -4.58492,-0.2108 -1.21369,-0.4743 -3.47912,0.2899 -1.91493,-0.1318 -2.2655,-0.8696 -0.10788,-0.052 -0.29663,-0.8433 -0.32363,-0.8433 -0.97092,-0.4744 -0.64729,0.079 -1.94186,1.6866 -0.70123,0.2635 -3.26343,-1.2122 -2.99365,-2.1081 -4.58493,-2.398 -2.42731,-0.7378 -4.15342,-1.2913 -2.61614,-0.2635 -3.74882,-1.7919 -0.59334,-0.2898 z m 155.96851,60.1608 -0.18875,0.1317 -0.24277,0.7643 -2.45424,2.7405 -0.51248,2.5298 1.42946,0.975 0.88998,0.2636 4.20736,0.4479 0.32363,-0.6324 -0.10789,-0.2899 -0.10788,-0.2635 -0.29663,-0.4743 -1.13274,-0.7906 -0.59334,-0.4217 -0.53941,-1.3175 0.0539,-0.5534 0.35058,-2.7933 -0.59335,-0.1845 z m -157.99132,284.1499 h 0.027 0.054 0.10788 0.18875 0.027 l 0.054,0.026 0.16181,0.053 0.16183,0.027 0.16183,0.053 0.0539,0.027 0.10789,0.026 0.054,0.053 0.0809,0.027 0.0809,0.027 0.0269,0.053 0.027,0.027 0.054,0.052 0.054,0.027 0.0269,0.052 0.054,0.027 0.027,0.079 h 0.0808 l 0.027,0.053 0.0269,0.027 0.027,0.079 -1.75311,0.052 -0.7821,-0.6324 0.0809,-0.027 0.21576,-0.053 0.027,-0.027 h 0.0539 0.1079 l 0.0808,-0.052 h 0.054 0.081 z m 16.39787,2.5298 -0.59335,0.4216 h -0.054 l 0.027,-0.027 0.0269,-0.027 0.027,-0.027 0.0269,-0.027 v -0.027 h 0.027 l 0.0269,-0.026 0.027,-0.027 0.0809,-0.052 0.081,-0.027 v -0.027 l 0.0269,-0.027 0.13491,-0.052 0.0269,-0.027 z"
        id="Tarragona"
        onclick="provinceClicked('Tarragona')"/>
    <path
        style="fill-opacity:1;fill-rule:nonzero;stroke:#000000;stroke-width:0.334084;stroke-miterlimit:4;stroke-dasharray:none;stroke-opacity:1"
        d="m -288.53683,-1956.5552 -1.7216,0.5057 -1.32554,2.3943 -0.13201,0.2114 -1.24103,0.8721 0.13203,4.133 -0.24293,1.4758 -2.26551,2.8224 -0.0529,0.8153 1.89061,1.2125 -0.45946,1.6615 -0.34854,0.4747 -0.11091,0.9751 1.02453,1.9248 0.1637,1.0267 0.13203,0.9752 0.86607,1.8163 -0.0529,3.0856 0.83442,1.7646 -0.0793,1.2127 h -0.301 l 0.2429,1.0525 0.48586,0.9494 1.72688,1.9505 0.38023,1.1867 -0.16372,1.2126 0.56507,1.0268 v 1.2642 l 0.67596,1.13 0.9717,0.7379 1.18294,0.3457 0.9453,0.8151 1.29383,0.1084 1.16181,-0.423 1.58955,0.5004 0.56507,0.7276 0.0159,0.021 0.0159,0.016 v 0.7636 l -0.13732,0.8154 -0.61786,0.5573 -0.30103,1.7387 0.0845,0.9237 -0.1637,1.842 -0.56508,1.5273 -0.59147,0.5832 -0.78686,1.5014 -0.24294,0.8153 v 0.8153 l -0.78158,0.2889 -1.18293,1.1352 -0.26933,0.9493 0.48586,0.6864 0.88719,0.8926 0.13731,1.3209 -2.13351,1.419 -1.18821,-0.6553 -1.15654,0.4489 -0.59674,1.13 0.0316,1.1609 0.53867,1.0011 1.32022,1.161 v 0.7636 l -0.80798,0.7379 0.34854,0.7894 -0.0529,1.0526 0.72878,0.6604 0.13203,0.8153 0.78158,0.2374 0.57035,0.7895 0.86079,0.4747 0.29573,0.7378 0.48584,0.7378 0.35382,0.7689 0.18485,0.9443 -0.10563,0.8978 0.34855,1.6098 0.51226,0.9185 -0.37496,0.7947 0.40136,0.8151 -0.45417,0.7637 0.48585,1.0785 -0.1373,0.8978 0.10038,0.2269 0.24819,0.5367 -0.10562,0.4901 -0.169,0.7999 -0.48055,2.2702 0.24291,0.8411 v 0.7638 l 0.48585,0.6862 v 0.8152 l -0.75517,0.4489 -0.48585,0.7121 -0.0793,0.8152 0.70235,0.449 -0.13731,1.5788 -0.53865,0.5831 -0.21652,0.7895 v 0.8153 l 0.59674,0.6862 -0.24292,1.5531 -0.35382,0.8721 -0.56507,0.712 0.1109,0.8152 -0.2429,0.7895 -0.62318,0.8205 -0.34852,0.7636 -0.67596,0.5004 -0.24295,0.7638 -0.13202,0.9236 v 0.8927 l -0.45945,0.6861 0.0793,0.9495 -0.21651,1.5531 -0.9717,1.6356 0.0845,1.2384 -0.81328,1.5789 v 0.7946 h 0.81328 l 1.18294,0.4181 -0.0264,1.1093 -1.10373,0.6295 -0.83438,1.0836 0.18482,1.2125 v 0.8927 l 0.59676,0.6346 -2.52959,7.8379 -1.79026,5.5468 -0.88719,0.8462 -1.64767,2.2136 0.57035,0.5521 -2.64576,4.7419 -1.10371,1.0269 -0.72878,1.0009 -0.21652,0.8978 -0.0264,0.077 -0.29573,0.7946 -0.56507,0.7379 -0.75519,0.3664 -1.1354,-0.2889 -1.29383,0.7895 -1.56317,2.1619 -0.91887,0.9494 0.2165,1.1867 1.07731,0.4438 0.7816,0.9494 1.77968,0.7894 0.11091,0.449 0.1901,0.7636 0.0264,1.161 -0.21652,2.3219 0.40135,1.4448 0.43303,0.9237 -0.78158,1.1092 -1.54204,0.8617 -0.29046,0.1652 0.17428,0.583 0.0686,0.2323 -0.058,0.3973 -0.11619,0.031 -1.39418,0.3613 -1.39946,-0.1291 -0.94528,0.9493 -0.21653,1.1043 -0.0264,1.2384 -0.56507,1.1608 -1.13541,0.5522 -1.18293,-0.051 -1.29385,0.2632 -1.16181,0.4231 -3.15799,4.004 -0.48059,1.0268 -0.11089,1.3726 -0.26933,1.1042 -0.70236,0.8978 -2.6669,0.5778 -2.40283,0.2374 -1.53677,0.4489 -1.05092,0.5264 -0.91887,0.7894 -0.37496,1.1609 0.61787,1.0269 -1.29383,-0.1291 -1.05091,0.7895 -0.72877,1.2127 -0.1901,1.2124 -0.37497,1.1043 -1.16181,0.5263 -0.94529,0.9494 -1.0245,0.6604 -0.75518,1.161 -0.91361,0.7895 -0.67596,1.0267 0.43303,1.1094 0.21652,1.1559 0.59148,1.3466 0.37492,1.1043 2.08072,1.9505 0.0793,1.2124 -0.78159,0.9237 -0.1373,1.161 0.9453,2.2651 1.21461,0.5005 1.21463,-0.1857 2.53486,0.6347 1.39945,-0.5006 2.32362,-0.057 1.05093,0.8462 0.13201,1.2899 -0.86081,1.2385 0.0264,1.135 0.32215,1.1817 1.83777,1.6357 0.10562,1.1609 -0.9189,0.8153 -2.20743,2.6883 -1.05619,0.8978 -0.61788,1.0785 -0.53867,1.3156 -0.35383,1.1611 -2.31833,0.9752 -1.18823,0.1341 -1.15652,-0.1341 -1.24102,0.3457 -0.8344,1.6046 0.0793,0.7895 0.88721,1.3726 0.16372,0.8926 v 0.7946 l -0.13204,0.9495 -0.59675,1.5014 0.29574,0.8411 -0.10563,0.8978 -0.72875,0.5522 -0.19012,0.8151 0.1109,0.7895 -0.35384,0.7946 -0.26932,0.2374 -1.24102,0.9185 -0.56507,0.6603 -0.67596,1.0527 0.70237,0.8205 1.16179,0.7895 3.34286,1.8678 0.59148,1.2435 0.91889,0.8669 -0.0264,1.1609 -0.64955,0.9752 -0.61788,0.2374 -0.0793,-0.1084 -1.24105,1.161 -0.45943,0.6862 0.32215,0.7637 0.78158,0.3406 0.62314,0.552 0.78158,0.2116 0.40136,0.7946 -0.56505,1.6048 -0.75517,0.5004 0.48583,0.2116 0.83439,0.9237 0.0316,0.1908 1.44697,-0.057 0.0793,-0.01 0.22709,-0.01 4.68421,0.6088 1.18293,-0.4953 0.18482,-2.838 -0.095,-3.5913 1.19348,-1.4395 1.66352,-0.9752 0.47528,-0.4799 1.03507,1.1765 1.23575,1.3983 1.05092,1.6511 0.50168,0.6812 0.74463,1.1866 0.5175,1.1869 2.69859,0.1703 0.69709,-1.6821 1.41004,-1.9143 0.22706,-1.2023 1.20406,-1.1867 2.46621,1.3724 0.74462,-0.016 0.0106,0.4748 0.5281,1.4086 1.50506,1.8937 1.4734,0.4489 1.23574,0.1961 1.23048,-0.021 0.95057,-0.965 1.44696,-0.5004 1.44702,-0.2734 1.46281,-1.1972 1.20406,0.2013 0.48584,-0.01 0.73407,-0.4851 0.73933,-0.2322 0.97697,0.2012 0.70765,-0.2322 1.00866,0.2012 1.447,-0.5004 2.68273,-0.2683 -0.0159,-0.7224 0.45946,-0.9546 0.47,-0.7327 0.96642,-0.2425 0.49112,0.2167 1.72689,0.4386 1.2463,0.4489 0.48585,-0.01 1.72157,0.2167 0.96643,-0.2683 0.65485,-3.5707 0.46471,-0.7017 0.21125,-0.7328 1.70046,-0.5005 0.29574,1.192 2.01733,2.8018 2.67745,-0.5212 1.70046,-0.7584 0.70767,-0.2322 0.99281,-0.2683 2.43452,-0.047 1.71104,-0.2528 0.71293,-0.01 0.99282,-0.4902 0.6918,-0.7378 -0.48585,0.01 -0.0106,-0.4695 -0.0211,-0.7275 1.20933,-0.965 0.20596,-0.7275 0.45416,-1.1765 0.71293,-1.2125 1.24631,0.4541 0.22181,-0.2271 -0.0159,-0.5057 1.20933,-0.9648 -0.2482,-0.6915 1.6899,0.1909 0.98227,-0.9597 0.48585,-0.01 0.45416,-1.2076 -0.0159,-0.6913 0.9717,-0.021 0.44887,-1.4551 0.43833,-1.646 0.9664,-0.2734 0.48056,-0.227 0.44889,-1.4603 1.6952,-0.9752 -0.99282,-0.7068 -1.47339,-0.4438 -1.48924,-1.1405 -0.77102,-0.9647 0.95585,-0.707 0.4753,-0.485 -1.51037,-1.8936 0.21124,-0.4747 1.75327,1.166 1.25689,0.9186 0.97698,0.2373 1.48922,1.1403 1.24631,0.4799 0.7499,0.2064 0.71821,0.2374 0.29046,1.1608 1.44697,-0.4953 1.21991,-0.4954 -0.0159,-0.4745 3.15804,-0.7793 2.18104,-0.9855 0.97169,-0.021 -0.54395,-2.131 -0.99283,-0.676 -0.29043,-1.1919 -0.0159,-0.7274 0.48585,-0.01 0.2535,-0.2271 0.17426,-1.8937 -0.48585,0.01 -0.23236,-0.2477 0.9717,-0.021 0.25347,-0.2579 -0.005,-0.2167 -1.01394,-0.2375 0.24819,-0.4746 2.67744,-0.5211 2.18634,-0.7328 0.43302,-1.9297 0.67596,-1.4345 1.48396,-0.2786 1.47337,0.4489 0.73407,-0.4851 0.70765,-0.2373 0.50169,0.6863 1.4734,-0.7224 2.7197,1.1507 1.43642,-1.001 0.98224,0.454 6.62234,0.3819 1.47868,0.6656 0.50696,0.7171 0.97698,0.2065 1.48393,-0.2477 -0.0264,-0.9494 -1.01394,-0.454 -0.26406,-1.4449 -0.0211,-0.6914 1.68461,-1.228 0.17958,-1.8937 -1.71632,0.031 -0.98754,-0.4541 -1.2516,-0.7016 -0.24291,-0.7224 -0.48059,0.258 -0.97697,-0.2322 -0.2746,-0.4696 1.2199,-0.4953 -0.0106,-0.4696 2.18103,-0.7636 0.20596,-0.9494 0.47002,-0.485 3.69667,-0.067 0.9981,0.9289 0.20597,-0.6966 0.48055,-0.258 0.74462,-0.016 0.73934,-0.2322 0.18482,-1.677 -0.97169,0.021 -1.27271,-1.4292 -0.73934,-0.934 -0.037,-1.4137 -1.24631,-0.7018 0.4753,-0.2322 0.2218,-1.4241 -2.20743,-0.2116 -0.0316,-1.197 -1.00867,-0.2013 0.70765,-1.4293 -2.21272,-0.2115 4.29871,-4.1125 0.96641,-0.2734 -0.72878,-0.6759 -1.24629,-0.4851 -0.76574,-0.6759 0.8872,-3.3591 -0.0316,-1.1661 0.47531,-0.5109 0.68123,-2.3786 -0.23764,-0.4695 0.68124,-1.2075 2.46622,0.2065 1.6899,0.1909 1.71631,-0.2529 -0.17954,1.8937 0.0264,0.9442 -0.24294,0.7328 -0.95584,0.49 0.76046,0.707 0.49111,-0.01 0.21654,-0.258 0.48056,-0.2271 0.76046,0.4593 -0.0159,-0.4748 0.47528,-0.5106 -0.29572,-1.4139 0.24291,-0.4799 -0.26404,-0.2115 2.47676,0.423 0.80271,2.1311 0.0106,0.4746 0.9717,-0.021 0.50696,0.6863 0.4964,0.4644 0.75519,0.2373 -0.49642,0.9546 0.27991,0.7172 0.48584,-0.01 -0.24821,-0.7222 1.46282,-0.026 0.65484,-2.1569 1.22518,-0.2424 -0.0264,-0.9751 0.49111,0.2424 0.96116,-0.4901 0.25349,-0.2581 0.99809,0.9597 1.45228,-0.2786 -0.24295,-0.4695 0.93474,-1.4345 -0.50696,-0.9649 0.21652,-0.2271 -0.48586,0.01 -0.0106,-0.4747 -0.50697,-0.712 0.45417,-1.2074 2.17576,-1.2075 0.43302,-1.9297 -0.50696,-0.934 1.70047,-0.5056 0.72349,-0.9598 -0.5017,-0.4644 0.4489,-1.4241 -0.52281,-1.4395 -0.005,-0.2219 -1.05619,-1.904 -1.46812,-0.4438 -0.72348,-0.2115 -1.45754,1.228 -0.70238,0.4851 -1.74799,-1.1662 0.93472,-1.4344 0.96114,-0.4902 0.0159,0.6914 0.26407,-0.01 1.65294,-2.3942 0.49112,0.2116 1.44699,-0.5005 0.71293,-1.1764 1.16709,-1.2178 0.94,-1.2176 0.52283,-0.01 0.7182,0.2424 0.48058,-0.263 -1.25688,-2.1208 0.70238,-0.485 -0.0211,-0.7223 -0.4964,-0.4644 0.46471,-0.7018 -0.005,-0.2528 -0.25878,-1.192 0.65485,-2.1258 0.25348,-0.258 0.49114,0.2476 0.21651,-0.5108 0.73407,-0.485 1.24102,0.4489 -0.92417,1.6873 0.4964,0.4643 1.20406,0.2323 1.4734,-0.7533 -0.005,-0.222 1.43643,-0.7481 1.68991,-1.2281 -0.51226,-0.9391 -0.0211,-0.6913 0.21123,-0.7276 -1.21461,-0.4541 -0.0106,-0.4695 -1.03507,-1.1816 -0.48584,0.01 -0.44889,1.424 1.27801,1.8989 -0.47531,0.2321 -0.23236,1.2023 -0.23236,-0.2477 -0.27461,-0.6915 -0.50169,-0.4591 -0.97699,-0.2373 -1.22518,0.2735 -0.70764,0.2321 -0.037,-1.4138 -0.76047,-0.4593 -0.24291,0.4748 0.26403,0.2477 -0.71821,0.9597 -0.0211,-0.7224 -0.4964,-0.4644 0.46471,-0.7327 -0.0316,-1.1662 0.45416,-1.2073 0.4753,-0.4799 0.7446,-0.016 -0.19012,1.4241 0.24294,0.4644 -0.47001,0.7326 0.50168,0.4644 0.7235,-0.7378 -0.28517,-0.9391 0.72349,-0.9597 0.69709,-0.485 0.98754,-0.7431 0.97169,-0.016 0.21652,-0.4798 -0.50698,-0.7121 0.24822,-0.4798 -0.28517,-0.9391 -0.50169,-0.4644 -0.72349,-0.4592 -0.49115,0.9546 -0.21123,0.7275 -0.75517,-0.4592 -0.0211,-0.7225 0.23237,-0.9494 0.19541,-1.2021 1.6582,-2.3943 -0.0106,-0.4747 -0.0211,-0.7223 0.23236,-0.9495 2.22327,0.6863 0.96114,-0.5263 0.6918,-0.7017 -0.037,-1.4189 -1.46283,-0.2271 -0.73406,-0.7121 0.4753,-0.4798 0.19539,-1.1713 0.2482,-0.5058 -0.5017,-0.4642 -1.25685,-0.9237 -0.0159,-0.6914 1.85363,-3.3746 0.98752,0.4541 1.45226,-1.4448 0.46473,-0.7326 -0.29044,-1.192 0.23766,-0.9546 -0.50699,-0.6812 -0.15843,-0.1496 v -0.9338 l -2.10711,-0.7483 -0.82911,0.8154 -2.5507,-1.3107 -1.15126,-1.4344 -0.31685,0.2477 0.38023,-2.5541 2.61936,-2.0588 0.19011,-0.934 -1.72159,-1.2487 -0.53867,-1.4912 h 0.005 l -0.0159,-0.4747 1.18294,-0.7172 -0.54393,-2.131 -2.21274,-0.4334 0.24293,-0.4747 0.96641,-0.2735 1.45754,-0.026 0.74463,-0.01 0.26932,0.2477 1.43642,-0.7534 0.50696,0.7173 1.94341,-0.036 0.25878,-0.01 0.68125,-1.2126 1.98035,-0.031 1.71633,-0.031 0.97697,0.2012 1.18293,-0.7172 1.00337,-0.016 -0.0106,-0.4747 0.95058,-0.7431 1.47341,0.4489 1.22517,-0.2424 0.20596,-0.16 c -0.10059,-0.5923 -0.21248,-1.2804 -0.30104,-1.966 -0.0924,-0.7162 -0.15842,-1.4247 -0.1584,-2.002 0,-0.318 0.0821,-0.8008 0.15314,-1.2539 0.0355,-0.2265 0.0667,-0.4446 0.0845,-0.6294 0.0179,-0.1847 0.0237,-0.3356 0,-0.4283 -0.0287,-0.1123 -0.26784,-0.7205 -0.43834,-1.3003 -0.0853,-0.2898 -0.15125,-0.5739 -0.169,-0.7843 -0.008,-0.1052 -0.005,-0.192 0.0159,-0.2528 0.0208,-0.061 0.057,-0.093 0.11618,-0.093 0.28876,0 0.50236,-0.01 0.6654,-0.021 0.16305,-0.015 0.27709,-0.045 0.37496,-0.098 0.0978,-0.053 0.1761,-0.125 0.26932,-0.2373 0.0932,-0.1124 0.19942,-0.2649 0.34855,-0.4592 0.21806,-0.2841 0.62025,-0.6956 0.83968,-1.063 0.0548,-0.092 0.0948,-0.1799 0.12146,-0.2632 0.0266,-0.083 0.0393,-0.1629 0.0264,-0.2322 -0.0129,-0.07 -0.0473,-0.1309 -0.11091,-0.1806 -0.0637,-0.05 -0.15932,-0.083 -0.28518,-0.1083 -0.4104,-0.081 -0.78751,-0.1634 -1.14068,-0.2993 -0.17658,-0.068 -0.34743,-0.1502 -0.51224,-0.2528 -0.16483,-0.1027 -0.3258,-0.2255 -0.48057,-0.3767 -0.12278,-0.12 -0.27015,-0.2147 -0.43305,-0.2786 -0.16288,-0.064 -0.33689,-0.096 -0.50697,-0.093 -0.17007,0 -0.33628,0.039 -0.48055,0.1186 -0.14432,0.08 -0.26829,0.1992 -0.35384,0.3663 -0.044,0.086 -0.15549,0.2623 -0.3063,0.4592 -0.1508,0.197 -0.34146,0.4188 -0.53338,0.5883 -0.096,0.084 -0.19125,0.1544 -0.28515,0.2064 -0.0939,0.052 -0.1857,0.086 -0.26934,0.088 -0.0837,0 -0.16192,-0.027 -0.22709,-0.093 -0.0652,-0.066 -0.11994,-0.1695 -0.15842,-0.3199 -0.045,-0.1756 -0.0323,-0.3047 0.0106,-0.4076 0.0429,-0.103 0.11822,-0.1816 0.20596,-0.2632 0.0878,-0.082 0.1847,-0.162 0.27462,-0.2735 0.0899,-0.1115 0.17249,-0.251 0.2218,-0.4437 0.075,-0.2934 0.1431,-0.7142 0.17429,-1.1403 0.0155,-0.2131 0.0241,-0.4286 0.0159,-0.6295 -0.008,-0.201 -0.0333,-0.3882 -0.0739,-0.547 -0.0715,-0.2791 -0.19351,-0.6496 -0.23764,-1.0112 -0.0221,-0.1809 -0.0239,-0.3577 0.0106,-0.5212 0.0344,-0.1636 0.10311,-0.3124 0.22709,-0.4334 0.0931,-0.091 0.15644,-0.1711 0.19539,-0.2426 0.039,-0.071 0.0567,-0.1389 0.0528,-0.1961 -0.004,-0.057 -0.0282,-0.1068 -0.0634,-0.1547 -0.0352,-0.048 -0.0822,-0.09 -0.13731,-0.1342 -0.11039,-0.088 -0.24818,-0.1753 -0.36965,-0.2786 -0.0608,-0.051 -0.11737,-0.1071 -0.16372,-0.1704 -0.0464,-0.063 -0.0851,-0.1365 -0.10563,-0.2167 -0.0575,-0.225 -0.13091,-0.3857 -0.2165,-0.5108 -0.0857,-0.1252 -0.18049,-0.2145 -0.2852,-0.2942 -0.10469,-0.08 -0.21785,-0.149 -0.33268,-0.2372 -0.11485,-0.088 -0.2325,-0.1945 -0.34854,-0.3457 -0.12265,-0.1597 -0.27585,-0.4471 -0.48586,-0.6966 -0.10501,-0.1247 -0.22415,-0.2415 -0.3591,-0.3251 -0.13496,-0.083 -0.28914,-0.1341 -0.45946,-0.1341 -0.36909,0 -0.69202,0.038 -0.9981,0.057 -0.15304,0.01 -0.30048,0.012 -0.44886,0.01 -0.14839,-0.01 -0.29775,-0.025 -0.44889,-0.062 -0.2643,-0.065 -0.6735,-0.06 -1.09315,-0.072 -0.20983,-0.01 -0.41926,-0.018 -0.61789,-0.041 -0.19862,-0.023 -0.38457,-0.059 -0.53864,-0.1188 -0.44977,-0.1757 -0.76008,-0.2566 -1.00869,-0.3973 -0.12428,-0.071 -0.23262,-0.153 -0.33798,-0.2734 -0.10535,-0.1204 -0.20426,-0.2753 -0.31157,-0.4851 -0.12073,-0.2358 -0.44897,-0.7707 -0.74461,-1.3105 -0.14783,-0.2699 -0.28748,-0.5413 -0.39079,-0.7791 -0.10333,-0.2379 -0.16899,-0.4391 -0.16899,-0.5728 0,-0.2081 0.0691,-0.436 0.16899,-0.6708 0.0999,-0.2348 0.23181,-0.4796 0.35911,-0.7171 0.12729,-0.2378 0.25044,-0.4695 0.33269,-0.6864 0.0411,-0.1084 0.0682,-0.2107 0.0845,-0.3095 0.0163,-0.099 0.0229,-0.1925 0.005,-0.2786 -0.0297,-0.1454 -0.11375,-0.2946 -0.21652,-0.4438 -0.1028,-0.1493 -0.22555,-0.3008 -0.34328,-0.4489 -0.11772,-0.1482 -0.23174,-0.2916 -0.30628,-0.4335 -0.0745,-0.1419 -0.11124,-0.2822 -0.0845,-0.4128 0.0601,-0.2942 0.15765,-0.5988 0.27989,-0.8926 0.12223,-0.2937 0.27113,-0.5745 0.42774,-0.8307 0.15665,-0.2563 0.32244,-0.484 0.48586,-0.6657 0.007,-0.01 0.0142,-0.01 0.0211,-0.016 l -0.40135,-0.4024 -2.67216,1.842 -1.10372,-0.1806 -2.21272,-1.5583 -0.45944,-0.026 -0.29574,0.3457 -0.62316,2.0794 0.1373,0.5263 -2.21273,2.4511 -2.1863,0.2889 -3.07354,1.2951 -1.72687,1.1042 -1.06675,-0.093 -1.08787,-0.093 -2.86229,2.3478 -3.7759,0.7636 -0.26932,0.051 -4.8532,-0.5779 -0.26933,-0.026 -0.19012,-0.082 -0.15842,-0.051 -0.72877,-0.2374 -1.48395,-1.1557 -0.51226,-3.163 -2.13351,-2.4509 -0.0793,-0.3974 0.21651,-0.8978 3.39567,-2.7915 0.35382,-0.5262 0.19011,-0.9237 -0.0845,-0.712 -1.9117,-3.1578 -0.78159,-0.2116 -0.69708,0.129 -0.84496,0.1599 -0.61787,-0.3147 -0.24293,-2.0588 0.89249,-1.6047 0.42776,-1.873 -0.72879,-1.9247 -0.0264,-0.6295 1.10899,-0.8462 0.51228,-1.5015 -3.02072,-7.5902 -3.50656,-6.0576 -2.64578,-1.873 -0.67066,-0.7121 0.0264,-1.13 -0.45945,-0.6605 -0.9717,-0.5779 -1.56317,-0.057 -6.015,-0.026 -3.91321,0.3973 -2.34474,-0.8461 -1.05091,-0.077 -2.53486,0.6862 -1.21463,0.5262 -2.1599,0.9495 -0.78158,0.077 -1.39946,-0.3148 -2.37644,-2.002 -1.05092,-2.0279 -0.61786,-2.3218 -0.72877,-0.7638 -0.11091,-0.077 -2.90981,-3.3487 -1.29384,-1.0527 -4.58388,-0.2114 -1.2146,-0.4748 -0.169,0.016 -3.31116,0.2734 -1.91701,-0.129 -2.26552,-0.872 -0.10562,-0.051 -0.29573,-0.841 -0.32742,-0.8463 -0.96641,-0.4747 -0.64957,0.078 -1.94339,1.6873 -0.70237,0.2632 -3.25836,-1.2126 -2.99429,-2.1052 -4.58916,-2.3993 -2.42396,-0.7379 -4.15612,-1.29 -2.61409,-0.2631 -3.74947,-1.7905 -0.59147,-0.2941 -4.10332,-1.9505 z m 119.40785,121.272 1.95398,0.4335 -0.45945,0.9546 0.26404,0.2477 -3.67025,-0.1858 -1.74274,-0.9134 -0.26403,-0.2167 z m 5.55558,34.8497 -0.46472,0.7379 -0.50698,-0.7172 -0.48585,0.01 0.51227,0.934 -0.48585,0.01 0.98226,0.4541 0.27988,0.7171 0.92417,-1.6872 z"
        id="Lleida"
        onclick="provinceClicked('Lleida')"/>
    <path
        style="fill-opacity:1;fill-rule:nonzero;stroke:#000000;stroke-width:0.334084;stroke-miterlimit:4;stroke-dasharray:none;stroke-opacity:1"
        d="m -163.15092,-1896.964 c -0.007,0.01 -0.0141,0.01 -0.0212,0.015 -0.16341,0.1817 -0.3292,0.4094 -0.48584,0.6657 -0.15662,0.2562 -0.30552,0.537 -0.42775,0.8307 -0.12224,0.2937 -0.21969,0.5984 -0.27988,0.8925 -0.0267,0.1307 0.009,0.271 0.0845,0.4129 0.0745,0.1419 0.18856,0.2854 0.30628,0.4335 0.11774,0.148 0.24048,0.2996 0.34328,0.4489 0.1028,0.1491 0.18678,0.2984 0.21653,0.4437 0.0177,0.086 0.011,0.1799 -0.005,0.2787 -0.0162,0.099 -0.0434,0.2011 -0.0845,0.3095 -0.0823,0.217 -0.20539,0.4485 -0.33269,0.6863 -0.1273,0.2377 -0.25923,0.4824 -0.35911,0.7172 -0.0999,0.2348 -0.16898,0.4627 -0.16898,0.6707 0,0.1337 0.0657,0.335 0.16898,0.5728 0.10333,0.2378 0.24296,0.5092 0.39078,0.7792 0.29565,0.5399 0.6239,1.0746 0.74463,1.3106 0.1073,0.2096 0.20621,0.3646 0.31156,0.485 0.10537,0.1204 0.2137,0.2031 0.33798,0.2735 0.24861,0.1406 0.55893,0.2215 1.00868,0.3973 0.15408,0.061 0.34003,0.096 0.53866,0.1187 0.19862,0.023 0.40805,0.036 0.61788,0.041 0.41965,0.012 0.82886,0.01 1.09316,0.072 0.15113,0.037 0.30049,0.055 0.44888,0.062 0.14838,0.01 0.29583,0 0.44887,-0.01 0.30608,-0.018 0.62901,-0.057 0.9981,-0.057 0.17032,0 0.32449,0.05 0.45945,0.1342 0.13496,0.083 0.25412,0.2004 0.3591,0.3251 0.21001,0.2495 0.36322,0.5368 0.48586,0.6966 0.11604,0.1511 0.23369,0.2574 0.34854,0.3457 0.11484,0.088 0.22801,0.1577 0.33269,0.2373 0.10469,0.08 0.19958,0.1689 0.28519,0.2941 0.0857,0.1252 0.15893,0.2858 0.21651,0.5108 0.0205,0.081 0.0592,0.1535 0.10562,0.2168 0.0464,0.063 0.10301,0.1186 0.16372,0.1702 0.12147,0.1034 0.25926,0.1906 0.36965,0.2787 0.0552,0.044 0.10206,0.086 0.13732,0.1341 0.0352,0.048 0.0595,0.098 0.0634,0.1548 0.004,0.057 -0.0139,0.1246 -0.0529,0.1961 -0.039,0.072 -0.10217,0.1515 -0.19539,0.2425 -0.12396,0.1211 -0.19269,0.2699 -0.22709,0.4335 -0.0344,0.1636 -0.0326,0.3403 -0.0106,0.5211 0.0442,0.3616 0.16621,0.7322 0.23763,1.0113 0.0406,0.1588 0.0657,0.346 0.0739,0.5469 0.008,0.2011 -3.4e-4,0.4165 -0.0159,0.6295 -0.0311,0.4261 -0.0992,0.847 -0.17429,1.1404 -0.0494,0.1926 -0.13188,0.3321 -0.2218,0.4437 -0.09,0.1115 -0.18685,0.1919 -0.27462,0.2735 -0.0877,0.082 -0.16314,0.1602 -0.20596,0.2631 -0.0428,0.1029 -0.0554,0.2321 -0.0106,0.4077 0.0385,0.1505 0.0932,0.2542 0.15842,0.3199 0.0652,0.066 0.14344,0.095 0.22709,0.093 0.0837,0 0.17539,-0.036 0.26934,-0.088 0.0939,-0.052 0.18919,-0.1216 0.28515,-0.2063 0.19192,-0.1695 0.38258,-0.3913 0.53338,-0.5883 0.15081,-0.1969 0.26232,-0.3733 0.3063,-0.4592 0.0856,-0.1672 0.20951,-0.2866 0.35384,-0.3663 0.14427,-0.08 0.31047,-0.116 0.48055,-0.1186 0.17008,0 0.34409,0.029 0.50697,0.093 0.16289,0.064 0.31027,0.1585 0.43305,0.2785 0.15477,0.1512 0.31574,0.274 0.48057,0.3766 0.16481,0.1027 0.33566,0.1849 0.51224,0.2529 0.35317,0.1358 0.73028,0.219 1.14068,0.2993 0.12586,0.025 0.22149,0.059 0.28518,0.1083 0.0637,0.049 0.0981,0.1114 0.11091,0.1806 0.0129,0.07 1.7e-4,0.1489 -0.0264,0.2322 -0.0266,0.083 -0.0666,0.1713 -0.12145,0.2632 -0.21943,0.3674 -0.62162,0.7788 -0.83969,1.063 -0.14912,0.1942 -0.25531,0.3468 -0.34854,0.4592 -0.0932,0.1123 -0.17147,0.1846 -0.26932,0.2373 -0.0979,0.053 -0.21191,0.082 -0.37496,0.098 -0.16304,0.016 -0.37664,0.021 -0.6654,0.021 -0.0592,0 -0.0952,0.032 -0.11618,0.093 -0.0208,0.061 -0.0247,0.1476 -0.0159,0.2528 0.0178,0.2104 0.0838,0.4945 0.169,0.7844 0.1705,0.5796 0.40959,1.1879 0.43834,1.3002 0.0237,0.093 0.0179,0.2436 0,0.4283 -0.0179,0.1847 -0.049,0.403 -0.0845,0.6295 -0.0711,0.4529 -0.15314,0.9358 -0.15314,1.2539 -2e-5,0.5771 0.0659,1.2856 0.1584,2.0019 0.0885,0.6856 0.20045,1.3737 0.30103,1.966 l 0.74462,-0.5831 0.74461,-0.016 1.44169,-0.7481 0.96115,-0.4903 0.49113,0.2426 0.96643,-0.2683 0.25875,-0.01 0.96643,-0.2374 0.73933,-0.2682 0.46472,-0.7017 1.45226,-0.2786 1.96981,0.9132 2.21271,0.2116 0.29045,1.1609 1.20406,-0.9701 0.5017,0.4644 3.22667,1.8627 1.19878,-0.02 1.20405,-0.9649 1.22519,-0.2786 1.45755,-0.026 1.73745,0.6966 0.99282,0.6759 1.2463,0.7018 0.98753,0.4541 0.74991,0.2373 -0.45946,0.9546 -1.68991,0.9752 -0.2482,0.4799 -0.95057,0.9597 -0.70765,1.4344 -0.94001,1.2127 0.0105,0.2528 -0.18483,1.6717 -0.24291,0.7018 -0.95058,0.7379 0.77101,0.9338 0.75519,1.6564 0.47528,-0.4799 1.21989,-0.4954 1.23577,0.1961 -0.24294,0.7328 -0.20596,0.6966 0.29045,2.389 0.74992,0.2063 0.7182,0.2374 -0.47001,0.485 0.29573,1.4138 -0.45943,0.9494 -1.72161,0.031 -0.98753,-0.6708 -0.72877,0.7018 -0.20069,0.9856 -0.72877,0.7017 -1.93811,0.2889 -0.26933,-0.4695 -0.9981,-0.9236 0.92945,-1.6873 -0.24291,-0.4696 -0.54395,-0.97 1.21991,-0.4902 -2.42925,0.041 -1.73215,-0.4387 -0.97699,-0.2063 0.0845,3.0907 1.71103,-0.2838 1.45755,-0.026 -0.24292,0.7276 0.27987,0.7173 1.29385,2.3425 0.23765,0.4695 0.0211,0.7225 2.67745,-0.5212 0.99282,0.6759 0.76575,0.934 0.9664,-0.2374 0.50168,0.4592 0.76576,0.7121 0.23235,0.2167 0.25349,-0.2219 0.95586,-0.5263 -0.0107,-0.4695 1.72162,0.2218 0.96112,-0.4901 0.76574,0.6758 0.037,1.45 0.23236,0.2168 0.0106,0.4746 0.27461,0.4645 1.748,1.166 0.98753,0.4593 1.42059,-1.4448 0.93474,-1.4345 1.95393,-0.7636 2.92568,0.2012 0.26931,0.4645 0.0264,0.9494 0.71292,-0.016 0.9717,-0.016 0.24292,-0.7327 0.49641,0.4644 0.48056,-0.227 -0.25348,-0.9443 0.21123,-0.7275 0.25349,-0.2581 3.16331,-0.5262 0.51224,0.9649 1.711026,-0.2838 0.69709,-0.485 0.73407,-0.485 0.49641,0.4644 0.98225,0.2012 0.3908,-0.01 -0.4489,0.8978 1.51565,0.9649 1.288556,-0.6708 0.417202,1.001 -0.681248,2.3323 0.755161,0.2218 -1.399441,1.29 2.49789,-0.6243 0.45418,-1.1094 3.253072,-0.8514 2.460914,0.1084 0.760458,0.6656 0.17957,0.015 0.195388,0.7895 0.512242,0.9649 2.207462,-0.041 0.232356,0.2167 -0.670685,1.682 0.232356,0.2477 0.0053,0.2219 1.013952,1.4035 0.501696,0.712 0.01589,0.4747 1.262141,1.1764 0.749897,0.2065 0.707649,-0.2374 2.165195,-1.4861 0.242924,-0.6965 0.749898,0.2064 1.209331,0.4488 0.5017,0.4954 0.285172,0.9391 0.734045,-0.4851 1.457547,-0.026 0.734063,0.934 0.01589,0.4695 -0.475303,0.485 -1.177647,0.743 0.506973,0.9391 2.260253,2.1001 0.237652,0.2168 -0.464726,0.9545 -0.470014,0.5108 -0.485848,0.01 0.03697,1.419 1.241035,0.449 -0.734063,0.4849 0.2799,0.7224 -1.47867,0.5005 -0.697087,0.4851 -0.27461,-0.4696 -0.237652,-0.4695 -0.242908,0.6965 -0.961152,0.4903 2.244418,1.4136 -0.961135,0.4903 0.02113,0.6914 -0.734062,0.485 0.253486,0.9753 -1.457547,0.026 -0.70236,0.485 -0.264047,-0.2477 -0.485849,0.01 -0.269321,-0.2167 -0.71821,-0.2425 -0.496428,-0.4644 -1.214605,0.7481 0.02113,0.6966 0.744607,-0.016 0.734063,0.934 0.02113,0.7224 -0.454179,1.2075 0.771037,0.9286 0.21651,-0.4747 0.744608,-0.016 0.749914,0.2065 0.491122,0.2477 0.242923,0.4643 1.230474,-0.021 0.792128,1.8782 0.02641,0.9752 0.02113,0.6914 -1.198772,1.2229 -0.248212,0.4747 -0.955847,0.743 -0.723501,0.7069 -0.961135,0.4902 -0.137305,0.6399 -1.695197,-0.4954 -0.792128,-1.2538 -0.343271,0.7739 -1.774403,-0.5933 -0.264049,1.259 -1.024507,0.516 -1.320242,1.3312 -0.380224,0.9597 -0.982261,-0.4799 -0.755171,-1.2176 -0.037,-0.5211 -0.380234,0.6656 -0.607314,-0.5522 -0.67596,0.2219 -2.497891,-1.0733 -1.589564,1.9969 0.644259,1.5892 0.380235,0.258 -0.834382,1.7337 1.172362,2.1466 1.436419,1.4756 -0.33798,1.517 1.13014,2.1052 2.344756,0.9959 1.362464,-0.6656 1.246308,0.7018 2.386999,0.4798 0.723499,-0.5882 0.570345,0.1547 1.457546,-0.026 1.489231,1.1713 0.295735,1.4085 1.478669,0.7019 1.927544,-0.7586 -0.443601,1.677 1.748007,1.1661 1.483943,0.9185 0.258776,-0.01 2.445077,0.4282 0.285189,0.9391 -0.475304,0.4851 0.506973,0.712 -0.253486,0.258 1.256886,0.9236 0.765732,0.9288 -0.237636,0.7327 0.517517,1.1558 1.737446,0.6914 1.916982,-0.9804 0.998111,-0.2683 0.49641,0.2425 2.677456,-0.521 -0.02113,0.1032 1.832485,-0.5522 0.665401,-1.0474 1.457548,0.1135 0.464724,-0.8566 1.515645,0.3458 1.246307,0.9648 0.496394,-0.227 -0.464725,-0.97 1.193515,0.2322 0.290444,0.7069 2.181046,0.227 1.425844,-0.5934 2.064865,0.9082 0.03169,0.3095 2.365871,1.5273 4.177234,-0.2992 0.02113,0.7275 -1.468091,0.9701 0.866078,4.489 -0.221816,1.4241 -1.420572,1.4758 1.024507,2.0948 0.01051,0.2529 0.512245,0.7688 0.786871,0.5986 0.538658,-0.4437 0.353833,-0.8721 0.427751,-1.1042 2.07541,-1.2693 1.43115,-1.5532 3.374543,-1.3158 2.936217,-0.263 0.945284,-0.7121 1.161812,0.051 1.209349,-0.9752 0.59674,0.2116 0.860806,-0.077 2.45564,-1.321 1.320241,-1.0525 2.967901,-3.0546 1.293828,-1.7699 1.2410351,-1.0268 0.807978,-0.1806 0.285189,-0.057 0.496394,-0.1032 0.190115,-0.1856 v -2.0022 l 0.07922,-0.026 0.596741,-0.2374 2.022617,-0.1599 0.427749,-0.9185 1.1354155,-0.1857 1.1882099,-1.3468 1.130142,-0.4179 0.7023601,-2.2961 0.6495666,-1.8937 3.744196,-3.901 1.4839413,-0.8461 1.0826062,-0.3405 0.1056184,-0.026 0.5914694,0.8668 0.4330384,-0.051 1.4839425,-0.8978 0.079221,-0.9443 0.2957346,-0.3199 0.485849,-0.5521 0.406625,0.051 0.38023,0.082 1.779692,-0.2632 0.670675,-0.3199 0.353832,-0.6552 0.565073,-2.5594 1.024489,-1.1557 1.373051,-0.2374 0.301024,-0.057 0.427766,-0.8154 -0.05283,-0.3405 -0.07921,-0.3457 0.242924,-1.5015 0.348543,-0.841 0.591469,-0.2891 0.190114,-0.9752 -0.132032,-1.0577 0.269337,-1.5015 0.644277,-1.13 0.596759,-0.3716 v -0.8667 l -0.433058,-2.1621 -0.649549,-0.712 -1.050904,0.026 -1.267431,-1.2642 -0.72879,-1.0268 0.242942,-3.1372 -0.05283,-0.712 -0.538642,-1.1042 -0.971698,-0.6605 -2.344748,0.026 -3.5593864,-1.0784 1.1829354,-0.082 3.427354,0.5831 2.482054,-0.2632 0.132015,-3.2713 0.295735,-0.8153 0.596757,-0.2374 0.565055,0.289 0.675962,-0.7636 -0.755168,-2.3994 -1.890586,-3.132 -0.427749,-0.5831 -1.056193,-1.4498 -0.966425,-0.1032 -0.0845,-0.4747 0.32213,-0.6864 -0.480559,-0.6862 -1.135398,0.031 -0.580923,-0.4903 -0.417188,-0.356 -0.538658,-0.051 -0.5650714,0.6864 -0.3802303,-0.057 -0.1056185,-1.1558 -1.3783229,-0.7378 -0.6970878,-0.7379 -0.4594525,-1.1868 -0.2429065,-1.7646 -0.353833,-2.3735 v -2.3427 l -0.3485439,-1.2383 0.052807,-1.2693 -0.4013531,-0.7637 -1.4839424,1.5841 -0.9716975,0.3148 -0.6495666,0.7119 -0.7551862,0.7895 -1.5895619,0.077 -0.9453003,1.0835 -1.4575462,0.867 -0.1056195,-0.2632 1.0773159,-1.0011 0.7815834,-1.1868 2.0807167,-0.2373 0.5650552,-0.8926 v -0.026 l 1.5103544,-0.6863 1.642388,-1.8163 0.4594357,-0.2373 0.7023769,-1.1352 0.9452834,-3.7408 -1.4575451,-0.8979 -0.2957347,-0.5264 0.4013531,-0.077 1.5948511,0.5779 1.8325032,-1.9505 1.9697913,-1.5789 0.860806,-0.3457 h 1.135398 l 0.322148,0.4748 0.433021,0.6346 0.02641,1.0527 0.374941,0.4747 1.351927,0.1341 1.726884,1.5273 0.538658,0.077 0.834392,1.1352 0.43304,-0.6604 0.459435,-0.6864 0.132032,-1.4756 0.190114,-0.2115 0.702377,0.2115 0.454146,-0.2374 0.301024,-0.1857 0.02641,0.082 0.459435,1.3415 0.644278,0.449 1.320241,0.077 0.301024,0.1858 0.211239,-0.5006 -0.211239,-0.2631 -0.945303,-0.3405 -0.269336,-1.161 2.75139,-0.6605 0.834392,-1.1042 0.459454,-0.9494 -1.161813,-1.713 0.05279,-0.8154 0.190115,-0.3715 0.702377,0.2632 0.918887,0.3148 0.237635,-0.578 -0.939994,-0.8151 -0.05283,-0.449 0.807996,-0.9752 -0.295734,-0.3664 0.158429,-0.3457 0.807978,-0.1857 0.971699,-1.3157 1.563165,-0.4748 0.163717,-0.5005 -0.132014,-0.289 -0.839683,-0.1083 -0.427749,-0.5522 h -0.892491 l -0.617882,-0.4179 -0.813252,0.3664 -1.130143,-1.2899 -0.137287,-0.6089 -0.807997,-0.026 -0.918887,-0.8153 -0.211238,0.051 -0.301007,0.9236 -0.591468,0.051 h -0.132032 l -0.596758,0.7378 -0.32213,-0.5263 -0.591469,-0.2373 -0.433038,-0.5522 0.105618,-0.9493 -0.565053,-0.6605 -1.37305,0.2116 -0.702377,-0.5006 -0.675964,0.3973 h -1.130126 l -0.269338,0.6812 0.269338,0.872 -0.485849,0.6295 -0.38023,-0.026 -1.563164,-1.6048 0.269336,-0.7379 -0.99811,-0.2631 -1.674074,-1.8214 0.327436,-0.6295 -0.110909,-0.3457 -0.728772,-0.129 -0.295735,-0.3148 0.137306,-0.2631 -0.353816,-0.9236 0.21651,-0.8204 0.755187,-0.8927 -0.132032,-0.2116 -0.623155,0.051 -0.269336,-0.423 0.945301,-1.4189 -0.348544,-0.2375 -0.623155,0.1291 -0.05281,-0.289 1.589579,-1.7389 0.216511,-0.9752 -0.190115,-0.3973 -0.644277,-0.1031 -0.190115,-0.3664 1.050904,-1.0063 -0.755171,-0.2631 -0.459434,-0.129 -0.02641,-0.026 -1.214622,-0.051 h -0.132273 l -1.7004879,-0.031 -1.2938273,-0.2063 -0.6178645,0.051 H 6.0348906 l -0.6759649,0.4747 -0.5914672,0.5521 -0.1109087,0.2631 -0.5386411,0.2632 -0.5650721,-0.129 -0.5914683,-0.1342 -0.6759628,-0.2115 -1.1882078,-0.9494 -0.4013541,-0.1806 -0.8396818,-1.4499 -0.4277483,-0.289 -0.866078,-0.6605 -0.2693384,-0.2889 -0.5914672,-1.3724 -0.4066265,-1.0527 -0.3485607,-1.0526 -0.3010059,-0.16 h -0.5384297 l -0.807997,0.4747 -1.241018,0.7379 -0.485847,-0.051 -0.37494,-0.031 -0.433057,-0.3663 -4.3145391,1.2641 -1.024507,-0.4747 -1.700469,-0.051 -2.856993,1.6873 -0.807997,0.2373 -1.325514,0.1548 -3.179156,-0.4696 -1.161812,-0.1599 -0.945284,0.077 -0.485849,0.3148 -0.617881,0.4231 -4.451844,4.2156 -1.130126,2.3219 -0.839682,0.5521 -2.503159,0.026 -3.992409,-0.9753 -1.161812,0.051 -2.371161,0.583 -1.457547,0.3663 -2.186318,1.3984 -2.344749,2.3426 -0.998093,0.6863 -0.512262,0.7636 0.644277,2.1362 1.864173,1.9761 0.538675,0.8721 0.105619,0.6553 -0.211239,0.4748 -0.813284,0.4746 -1.510339,0.2374 -1.452274,-0.2115 -1.082589,-0.1548 -4.203648,-1.4242 -3.506558,-0.5831 -1.594868,0.026 -3.263619,2.0846 -0.126743,0.016 -1.568456,0.1961 -0.797417,-0.2064 -0.554509,-0.1394 -1.642371,-0.051 -1.241035,-0.712 -3.88679,-2.2136 -0.807978,-0.4747 -0.269339,-0.5521 -0.02639,-0.026 -0.755186,-0.578 -2.830597,-3.3487 -8.417855,-2.9256 -0.322151,-0.1549 -1.483939,-0.7687 -2.909816,-2.0021 -6.178723,-0.7636 -2.455646,0.4231 -1.37305,0.6037 -1.1354,1.001 -1.6952,0.6088 -1.0509,0.051 -0.89249,-0.3664 -1.58958,-0.6347 -3.158,-0.2372 -2.21273,2.3476 -2.64048,4.2157 -2.21274,2.0278 -2.80417,1.5273 -1.34664,0.3148 -1.43116,0.3456 -1.75328,0.16 -1.9962,-0.1858 -0.17429,-0.057 -1.06672,-0.3404 -0.83442,-0.8153 -3.37452,-1.7389 -0.808,-0.7894 -0.67068,-1.5583 0.10563,-1.9504 -0.43304,-1.419 -0.56507,-1.8473 -0.43302,-0.7893 -0.24294,-0.449 -0.0264,-0.1032 -0.10562,-0.6089 -0.0845,-0.3147 -0.45417,-0.5521 -0.75516,-0.9751 -1.43114,-1.1095 -1.45756,-0.1548 -0.53865,0.3148 -0.64955,0.3663 -1.05093,-0.077 -4.66309,-2.8998 -1.77967,-1.868 -2.13351,-1.3982 -7.28246,0.051 -0.37494,-0.129 -3.61747,-1.1352 -0.59145,-0.5985 z m 30.58733,0.5728 -0.1901,0.129 -0.24291,0.7688 -2.45566,2.7398 -0.51226,2.5284 1.43115,0.9752 0.88719,0.2632 4.20893,0.4489 0.32215,-0.6348 -0.10562,-0.2889 -0.11091,-0.2631 -0.29574,-0.4748 -1.13011,-0.7895 -0.59675,-0.423 -0.53867,-1.3158 0.0529,-0.552 0.35383,-2.7967 -0.59675,-0.1857 z m 5.18064,58.2082 0.23765,0.2477 -0.21652,0.4747 -0.2535,0.2271 -1.67934,0.2838 0.016,0.4695 0.005,0.2528 0.52282,1.4086 0.0105,0.4748 0.23237,0.2167 0.73933,-0.2373 0.22182,-0.2529 0.24291,-0.7018 -0.0316,-1.197 1.43642,-0.7482 -0.005,-0.2219 -0.7235,-0.4592 -0.75517,-0.2374 z"
        id="Girona"
        onclick="provinceClicked('Girona')"/>
    <path
        style="fill-opacity:1;fill-rule:nonzero;stroke:#000000;stroke-width:0.334084;stroke-miterlimit:4;stroke-dasharray:none;stroke-opacity:1"
        d="m -141.64155,-1868.5951 -1.45226,0.2786 -0.46472,0.7018 -0.73933,0.2681 -0.96643,0.2375 -0.25875,0.01 -0.96643,0.2683 -0.49113,-0.2425 -0.96115,0.4902 -1.44169,0.7482 -0.74462,0.015 -0.95057,0.7431 -1.22518,0.2425 -1.4734,-0.449 -0.95058,0.7431 0.0106,0.4747 -1.00338,0.016 -1.18292,0.7171 -0.97698,-0.2012 -1.71632,0.031 -1.98037,0.031 -0.68123,1.2125 -0.25879,0.01 -1.9434,0.036 -0.50696,-0.7172 -1.43642,0.7533 -0.26933,-0.2476 -0.74463,0.01 -1.45753,0.026 -0.96641,0.2735 -0.24293,0.4748 2.21274,0.4334 0.54393,2.1309 -1.18295,0.7173 0.0159,0.4748 h -0.005 l 0.53867,1.4911 1.72159,1.2487 -0.19011,0.9339 -2.61936,2.0588 -0.38023,2.5541 0.31685,-0.2477 1.15126,1.4345 2.55068,1.3106 0.82913,-0.8152 2.1071,0.7481 v 0.9339 l 0.15843,0.1497 0.50699,0.6811 -0.23766,0.9546 0.29045,1.1918 -0.46474,0.7328 -1.45225,1.4447 -0.98752,-0.454 -1.85364,3.3745 0.0159,0.6914 1.25685,0.9237 0.5017,0.4643 -0.24821,0.5057 -0.19539,1.1713 -0.47529,0.4799 0.73405,0.712 1.46284,0.2271 0.037,1.4189 -0.6918,0.7017 -0.96113,0.5263 -2.22328,-0.6862 -0.23236,0.9494 0.0211,0.7223 0.0106,0.4748 -1.6582,2.3942 -0.19541,1.2022 -0.23237,0.9494 0.0211,0.7224 0.75517,0.4592 0.21123,-0.7275 0.49113,-0.9546 0.7235,0.4592 0.50169,0.4644 0.28518,0.9391 -0.24822,0.4798 0.50697,0.7121 -0.21651,0.4799 -0.9717,0.015 -0.98753,0.7431 -0.6971,0.485 -0.72348,0.9596 0.28517,0.9391 -0.7235,0.738 -0.50168,-0.4644 0.47001,-0.7328 -0.24294,-0.4644 0.19012,-1.424 -0.74461,0.016 -0.47529,0.4798 -0.45416,1.2073 0.0316,1.1662 -0.46473,0.7327 0.49642,0.4645 0.0211,0.7222 0.71822,-0.9596 -0.26404,-0.2477 0.24291,-0.4747 0.76047,0.4592 0.037,1.4138 0.70763,-0.2321 1.22519,-0.2735 0.97698,0.2374 0.50169,0.4591 0.27461,0.6914 0.23237,0.2477 0.23235,-1.2022 0.47531,-0.2322 -1.27801,-1.8989 0.4489,-1.4241 0.48583,-0.01 1.03507,1.1817 0.0106,0.4695 1.21461,0.4541 -0.21122,0.7276 0.0211,0.6913 0.51227,0.9392 -1.68993,1.228 -1.43642,0.7483 0.005,0.2218 -1.4734,0.7533 -1.20405,-0.2322 -0.4964,-0.4643 0.92415,-1.6874 -1.24101,-0.4489 -0.73406,0.485 -0.21652,0.511 -0.49113,-0.2478 -0.25349,0.258 -0.65484,2.1259 0.25877,1.1919 0.005,0.2529 -0.46472,0.7017 0.49641,0.4643 0.0211,0.7224 -0.70238,0.485 1.25689,2.1208 -0.48058,0.2631 -0.71821,-0.2425 -0.52282,0.01 -0.94,1.2177 -1.1671,1.2177 -0.71292,1.1764 -1.447,0.5005 -0.49111,-0.2116 -1.65295,2.3943 -0.26406,0.01 -0.0158,-0.6914 -0.96114,0.4902 -0.93472,1.4343 1.74799,1.1662 0.70239,-0.485 1.45753,-1.2281 0.72348,0.2115 1.46812,0.4438 1.05619,1.904 0.005,0.2219 0.52281,1.4395 -0.44889,1.4242 0.5017,0.4645 -0.7235,0.9596 -1.70047,0.5056 0.50696,0.934 -0.43302,1.9298 -2.17576,1.2074 -0.45417,1.2074 0.50697,0.7122 0.0106,0.4745 0.48586,-0.01 -0.21652,0.227 0.50696,0.965 -0.93474,1.4345 0.24295,0.4695 -1.45228,0.2785 -0.99809,-0.9596 -0.25349,0.258 -0.96116,0.49 -0.49111,-0.2423 0.0264,0.9751 -1.22518,0.2426 -0.65484,2.1568 -1.46282,0.026 0.24821,0.7224 -0.48584,0.01 -0.2799,-0.7172 0.49641,-0.9545 -0.75518,-0.2374 -0.49641,-0.4644 -0.50696,-0.6863 -0.9717,0.021 -0.0106,-0.4748 -0.80272,-2.1309 -2.47676,-0.4232 0.26405,0.2116 -0.24292,0.4799 0.29572,1.4138 -0.47528,0.5108 0.0159,0.4746 -0.76046,-0.4591 -0.48056,0.2269 -0.21654,0.2581 -0.49111,0.01 -0.76046,-0.7068 0.95585,-0.4901 0.24294,-0.7328 -0.0264,-0.9443 0.17954,-1.8936 -1.7163,0.2529 -1.68991,-0.191 -2.46622,-0.2063 -0.68123,1.2073 0.23763,0.4695 -0.68123,2.3787 -0.47531,0.5108 0.0316,1.1662 -0.8872,3.3591 0.76573,0.6759 1.2463,0.485 0.72878,0.6759 -0.96641,0.2735 -4.29871,4.1124 2.21273,0.2116 -0.70766,1.4293 1.00867,0.2012 0.0316,1.197 2.20743,0.2116 -0.22179,1.4242 -0.47531,0.2321 1.24631,0.7019 0.037,1.4136 0.73934,0.934 1.27271,1.4293 0.97169,-0.02 -0.18482,1.677 -0.73934,0.2322 -0.74462,0.015 -0.48055,0.2581 -0.20596,0.6965 -0.99811,-0.9287 -3.69667,0.067 -0.47002,0.485 -0.20595,0.9493 -2.18104,0.7637 0.0106,0.4696 -1.21991,0.4954 0.27461,0.4695 0.97697,0.2322 0.48059,-0.2581 0.24292,0.7225 1.25159,0.7017 0.98754,0.454 1.71631,-0.031 -0.17957,1.8937 -1.68461,1.228 0.0211,0.6915 1.94339,-0.037 0.46473,-0.7017 1.22518,-0.2735 3.98185,2.0743 -2.89397,2.1929 0.50697,0.7172 1.48395,-0.2785 0.24293,0.7223 0.0529,1.8885 -1.47337,-0.4489 -1.19878,1.2229 -2.70385,-0.4231 -0.70766,1.4293 -0.20067,0.9494 0.0264,0.9442 0.49113,0.2425 0.2746,0.6915 0.98755,0.454 0.72349,0.4593 0.25348,-0.227 0.24294,0.4695 2.21272,0.4334 1.5262,1.1712 0.005,0.2168 0.97169,-0.015 0.72349,0.4591 1.0034,-0.015 0.25875,1.192 0.98755,0.454 0.28515,0.939 0.037,1.45 -2.1335,2.6573 0.77102,0.9288 0.0106,0.4747 2.42924,-0.047 0.005,0.2529 -1.2146,0.4952 -0.72351,-0.2373 -0.22706,1.1971 0.98753,0.4592 -0.21653,0.4747 -0.2482,0.48 0.50168,0.4592 0.53339,1.8833 -0.69709,0.516 -0.45416,1.1764 -0.46473,0.9545 -0.23763,0.7276 4.35152,-2.2239 1.25685,0.9237 2.18105,0.4334 1.27272,1.4292 0.51751,1.1559 0.74991,0.2374 0.73935,-0.2632 0.98224,0.485 0.0211,0.6914 0.22182,-0.2219 0.49112,0.2115 0.29046,1.192 -0.96642,0.2374 -1.44699,1.6975 0.76575,0.7121 0.29573,1.4138 0.74461,1.1816 0.0264,0.9443 0.48586,-0.01 2.00149,0.9082 0.005,0.2529 -0.70235,1.682 0.0211,0.6915 0.25877,-0.01 1.48396,0.9185 1.24101,0.4542 0.45945,-1.1766 1.17766,-0.7482 0.26404,0.2477 0.4753,-0.4798 0.49112,0.2115 -0.46999,0.4799 -0.48586,0.01 0.0159,0.7224 h 0.22707 l -0.19539,1.1972 -0.7182,0.9596 0.77101,0.9339 -0.7235,0.9598 0.005,0.2477 -0.19539,1.1712 -0.48586,0.01 -0.98224,0.7431 -0.98754,-0.4541 -0.48586,0.01 -0.005,-0.2528 -0.23235,-0.2168 -0.26935,-0.2425 -2.92565,-0.423 0.73405,0.9339 0.0264,0.9442 1.02977,2.1259 1.23576,0.227 0.96641,-0.2684 0.99283,0.707 0.76574,0.7121 0.76046,0.6811 0.96641,-0.2425 0.21123,-0.7276 0.24821,-0.4747 0.95585,-0.4902 0.51227,0.934 -0.19012,1.4241 0.50169,0.4645 0.7499,1.4343 -0.22181,0.227 -0.50697,-0.6862 -0.74462,0.016 0.037,1.4138 0.51753,1.192 0.20594,0.6242 0.0686,-0.01 1.83778,-0.2529 2.02259,-1.3466 1.616,-0.4438 1.51033,-0.8979 1.21464,0.026 6.04142,-1.2899 1.24101,-0.3716 2.04902,-1.3931 1.9434,0.2373 1.15652,-0.3715 2.15992,0.16 2.26555,-1.5841 0.59146,-0.2115 h 1.70046 l 3.53298,-1.7905 2.13349,-0.578 0.61789,-0.16 3.69139,-0.6809 0.73405,-0.1342 6.28435,-0.289 6.98142,-2.1104 1.53677,-0.6863 3.07881,-1.3415 3.29003,-2.9772 0.72878,-1.5583 0.18483,-0.8153 0.0581,-0.2374 0.42777,-1.713 0.62314,-2.5799 2.07542,-2.3478 0.19012,0.4231 -0.67597,1.29 0.38023,0.1084 1.18294,-1.4242 0.86607,-2.2961 1.02451,-1.8678 2.07541,-2.1104 1.64766,-2.0794 0.48058,-0.8153 0.19011,-0.3457 1.378326,-2.3993 0.78158,-1.3159 1.56317,-1.3156 0.72878,-0.4489 1.6107,-1.0011 1.140678,-0.712 4.203653,-1.2126 3.617447,-1.3415 4.990515,-2.9515 2.534867,-1.8473 5.201757,-3.7925 1.214605,-0.8719 4.23535,-1.3158 1.969791,-1.5274 3.12633,-1.8214 h 1.109002 l 1.964518,-1.0526 3.348131,-1.0009 1.320243,-0.8978 0.591467,-0.3665 3.131619,-1.0009 2.049014,-1.161 3.152727,-0.9494 7.150425,-3.9266 2.614068,-0.5264 0.702377,-0.16 0.485849,-0.3147 -1.647661,-2.0535 -0.565055,-0.6864 -0.242941,-0.289 -0.781582,-1.9761 -1.293829,-1.1868 -1.077317,-0.9495 0.269339,-0.1599 0.834375,0.5572 1.267432,0.867 1.37305,2.7398 0.0581,0.1083 0.512246,0.6038 0.728789,0.8979 0.07391,0.057 -0.512245,-0.7689 -0.01051,-0.2528 -1.024506,-2.0949 1.42057,-1.4757 0.221818,-1.4242 -0.866078,-4.489 1.46809,-0.97 -0.02113,-0.7276 -4.177234,0.2992 -2.365871,-1.5272 -0.03169,-0.3096 -2.064865,-0.9082 -1.425844,0.5934 -2.181046,-0.227 -0.290444,-0.707 -1.193515,-0.2321 0.464725,0.9701 -0.496393,0.227 -1.246308,-0.965 -1.515645,-0.3456 -0.464724,0.8565 -1.457547,-0.1134 -0.665402,1.0474 -1.832485,0.5521 0.02113,-0.1032 -2.677456,0.5211 -0.49641,-0.2426 -0.998111,0.2683 -1.916982,0.9805 -1.737446,-0.6915 -0.517517,-1.1557 0.237636,-0.7328 -0.765732,-0.9287 -1.256886,-0.9237 0.253486,-0.2579 -0.506973,-0.7121 0.475304,-0.485 -0.285189,-0.9391 -2.445077,-0.4283 -0.258776,0.01 -1.483943,-0.9185 -1.748007,-1.166 0.443601,-1.6771 -1.927544,0.7585 -1.478669,-0.7017 -0.295734,-1.4086 -1.489232,-1.1713 -1.457546,0.026 -0.570345,-0.1547 -0.723499,0.5881 -2.386996,-0.4798 -1.246307,-0.7017 -1.362475,0.6656 -2.344746,-0.9959 -1.13014,-2.1052 0.337981,-1.517 -1.43642,-1.4757 -1.172362,-2.1465 0.834382,-1.7337 -0.380234,-0.258 -0.64426,-1.5893 1.589564,-1.9968 2.49788,1.0732 0.675972,-0.2218 0.607313,0.5521 0.380235,-0.6656 0.037,0.5212 0.755161,1.2175 0.982261,0.48 0.380235,-0.9598 1.320241,-1.3311 1.024504,-0.5161 0.264048,-1.259 1.774404,0.5934 0.343271,-0.774 0.792128,1.2539 1.695198,0.4953 0.137304,-0.6399 0.961135,-0.4901 0.723501,-0.7069 0.955847,-0.743 0.248213,-0.4747 1.198771,-1.2229 -0.02113,-0.6915 -0.02641,-0.9751 -0.792127,-1.8782 -1.230474,0.021 -0.242923,-0.4644 -0.491122,-0.2476 -0.749914,-0.2064 -0.744608,0.016 -0.21651,0.4747 -0.771038,-0.9286 0.45418,-1.2076 -0.02113,-0.7224 -0.734063,-0.9339 -0.744607,0.016 -0.02113,-0.6965 1.214605,-0.7481 0.496428,0.4643 0.71821,0.2425 0.269321,0.2168 0.485849,-0.01 0.264047,0.2476 0.70236,-0.485 1.457547,-0.026 -0.253486,-0.9752 0.734062,-0.4851 -0.02113,-0.6913 0.961135,-0.4903 -2.244418,-1.4137 0.961152,-0.4903 0.242908,-0.6965 0.237652,0.4696 0.274611,0.4695 0.697085,-0.485 1.478671,-0.5006 -0.279899,-0.7223 0.734062,-0.485 -1.241035,-0.4489 -0.03697,-1.419 0.485849,-0.01 0.470014,-0.5108 0.464724,-0.9547 -0.237651,-0.2166 -2.260253,-2.1001 -0.506973,-0.9391 1.177648,-0.7429 0.475303,-0.485 -0.01589,-0.4696 -0.734063,-0.9339 -1.457546,0.026 -0.734046,0.485 -0.285172,-0.939 -0.5017,-0.4954 -1.209331,-0.4489 -0.749898,-0.2063 -0.242924,0.6965 -2.165195,1.486 -0.707649,0.2374 -0.749897,-0.2064 -1.262142,-1.1764 -0.01589,-0.4748 -0.501703,-0.712 -1.013941,-1.4035 -0.0053,-0.2219 -0.232366,-0.2477 0.670695,-1.682 -0.232366,-0.2167 -2.207452,0.041 -0.512252,-0.965 -0.195389,-0.7895 -0.179569,-0.016 -0.760459,-0.6656 -2.460913,-0.1083 -3.253073,0.8514 -0.454179,1.1094 -2.497874,0.6243 1.399435,-1.29 -0.755171,-0.2219 0.681258,-2.3322 -0.417201,-1.001 -1.288561,0.6708 -1.51564,-0.965 0.44889,-0.8977 -0.39079,0.01 -0.98226,-0.2012 -0.49641,-0.4644 -0.73406,0.485 -0.69709,0.4849 -1.711026,0.2838 -0.51225,-0.9648 -3.1633,0.5262 -0.25349,0.258 -0.21124,0.7276 0.25349,0.9443 -0.48056,0.227 -0.49641,-0.4644 -0.24292,0.7327 -0.9717,0.016 -0.71293,0.016 -0.0264,-0.9495 -0.26932,-0.4644 -2.92567,-0.2012 -1.95394,0.7636 -0.93474,1.4345 -1.42059,1.4448 -0.98752,-0.4593 -1.748,-1.1661 -0.27461,-0.4644 -0.0106,-0.4747 -0.23236,-0.2167 -0.037,-1.45 -0.76574,-0.6759 -0.96111,0.4902 -1.72161,-0.2219 0.0107,0.4696 -0.95586,0.5263 -0.25349,0.2218 -0.23237,-0.2167 -0.76574,-0.7121 -0.50168,-0.4591 -0.96641,0.2373 -0.76575,-0.9339 -0.99281,-0.676 -2.67745,0.5212 -0.0211,-0.7224 -0.23765,-0.4696 -1.29385,-2.3425 -0.27987,-0.7172 0.2429,-0.7276 -1.45753,0.026 -1.71104,0.2838 -0.0845,-3.0907 0.97698,0.2064 1.73216,0.4385 2.42924,-0.041 -1.21991,0.4902 0.54395,0.9699 0.2429,0.4697 -0.92945,1.6873 0.99812,0.9236 0.26931,0.4694 1.93813,-0.2888 0.72877,-0.7018 0.20069,-0.9855 0.72876,-0.7018 0.98754,0.6708 1.7216,-0.031 0.45944,-0.9495 -0.29574,-1.4137 0.47002,-0.4851 -0.7182,-0.2373 -0.74992,-0.2064 -0.29045,-2.3889 0.20595,-0.6967 0.24294,-0.7327 -1.23576,-0.1961 -1.2199,0.4954 -0.47528,0.4798 -0.75518,-1.6563 -0.77101,-0.9339 0.95058,-0.7379 0.24291,-0.7017 0.18483,-1.6718 -0.0105,-0.2528 0.94002,-1.2126 0.70765,-1.4345 0.95057,-0.9596 0.2482,-0.4799 1.68991,-0.9753 0.45945,-0.9545 -0.7499,-0.2374 -0.98753,-0.454 -1.24631,-0.7018 -0.99282,-0.6759 -1.73744,-0.6966 -1.45755,0.026 -1.22519,0.2786 -1.20406,0.965 -1.19877,0.021 -3.22667,-1.8627 -0.5017,-0.4644 -1.20406,0.9701 -0.29045,-1.161 -2.21271,-0.2115 -1.96981,-0.9133 z m 14.2586,30.4121 0.75517,0.2374 0.7235,0.4592 0.005,0.2219 -1.43642,0.7482 0.0316,1.197 -0.24291,0.7018 -0.22183,0.2529 -0.73933,0.2373 -0.23236,-0.2167 -0.0105,-0.4748 -0.52282,-1.4086 -0.005,-0.2528 -0.016,-0.4695 1.67935,-0.2838 0.25349,-0.2271 0.21652,-0.4747 -0.23765,-0.2477 z m -41.74603,2.8998 -3.91845,0.3199 0.26403,0.2167 1.74274,0.9134 3.67025,0.1858 -0.26404,-0.2477 0.45945,-0.9546 z m 5.55558,34.8497 0.75518,0.4592 -0.92417,1.6872 -0.27988,-0.7171 -0.98226,-0.4541 0.48585,-0.01 -0.51227,-0.934 0.48585,-0.01 0.50698,0.7172 z m -8.53931,92.8876 0.0106,0.2476 -0.73404,0.4903 -0.75519,-0.2426 0.50698,-0.4798 z"
        id="Barcelona"
        onclick="provinceClicked('Barcelona')"/>
</g>

    <script type="text/ecmascript">
        <![CDATA[
        function provinceClicked(provinceId) {
            var province = document.getElementById(provinceId);
            if (province) {
                // Guardar el color original
                var originalColor = province.style.fill;

                // Guardar el viewBox original
                var svg = document.getElementsByTagName("svg")[0];
                var originalViewBox = svg.getAttribute("viewBox");

                // Cambiar el color de la comarca pulsada
                province.style.fill = "white"; // Cambiar a color rojo

                // Hacer zoom en la comarca
                var bbox = province.getBBox();

                // Calcular el centro del bbox
                var centerX = bbox.x + bbox.width / 2;
                var centerY = bbox.y + bbox.height / 2;

                // Establecer un margen adicional para el zoom
                //var margin = 1000; // Puedes ajustar este valor según sea necesario
             //   var newWidth = bbox.width + margin * 2; // Ancho con margen
             //   var newHeight = bbox.height + margin * 2; // Alto con margen

                // Establecer el nuevo viewBox centrado en la comarca
               // svg.setAttribute("viewBox", (centerX - newWidth / 2) + " " + (centerY - newHeight / 2) + " " + newWidth + " " + newHeight);

                // Enviar el color original y el viewBox original al Android
                Android.showProvince(provinceId, originalColor, originalViewBox);
            } else {
                console.error("No s'ha trobat la provincia amb ID: " + provinceId);
            }
        }
    ]]>
    </script>
</svg>